<?xml version="1.0" encoding="UTF-8"?>
<svg id="Camada_1" data-name="Camada 1" xmlns="http://www.w3.org/2000/svg" viewBox="0 0 400 200">
  <defs>
    <style>
      .cls-1 {
        fill: #393938;
      }

      .cls-1, .cls-2 {
        stroke-width: 0px;
      }

      .cls-2 {
        fill: #0da6df;
      }
    </style>
  </defs>
  <path class="cls-1" d="M383.84,59.98c.16-2.22-.57-4.29-2.05-5.85-1.43-1.51-3.39-2.34-5.55-2.3-1.52.03-2.52-.39-3.41-1.48-1.62-1.96-3.48-3.84-4.97-5.35-.56-.57-1.44-1.3-2.42-1.54-2.57-.64-4.73-1.05-6.78-1.3-1.07-.13-2.39.12-3.43.64-1.23.62-2.45,1.31-3.66,2-1.28.73-2.61,1.48-3.95,2.14-.47.23-1.34.13-1.96-.06-.63-.19-1.25-.55-1.98-.96-.37-.21-.75-.43-1.18-.65l-1.08-.57-.18,1.21c-.15,1.02-.3,2-.45,2.96v.09c-.37,2.31-.7,4.49-.97,6.69-.16,1.27-.45,1.9-1.81,2.28-2.95.82-5.86,1.82-8.67,2.79-.65.22-1.31.45-1.96.67l-.45.15c-7.63,2.6-15.54,5.29-23.88,5.06-2.63-.07-5.28.19-7.84.45-1.37.14-2.78.28-4.17.36-1.29.08-2.14.43-2.68,1.09-.51.63-.69,1.47-.55,2.59.09.65.06,1.33.04,2.13,0,.02,0,.04,0,.06-.22-.08-.44-.16-.67-.24-1.24-.45-2.42-.88-3.55-1.36-.98-.42-1.73-.47-2.37-.15-.64.32-1.06.96-1.31,2.01-.95,4-1.74,7.07-2.56,9.94-.23.82-.66,1.55-.99,1.71-7.21,3.44-14.48,6.74-20.02,9.23-.21.09-.73.04-.84-.01-2.26-2.3-4.45-4.72-6.57-7.09-.03-.04-.13-.23-.17-.63l-.02-.16c-.15-1.55-.32-3.15-.38-4.72-.16-3.91-.59-4.34-4.64-4.59-1.31-.08-2.66-.25-3.98-.4-.27-.03-.54-.07-.81-.1.23-.12.45-.25.65-.43,1.21-1.03,2.44-2.12,3.53-3.09,1.88-1.67,3.83-3.4,5.82-4.98,1.09-.86,1.64-1.68,1.73-2.56.1-.89-.26-1.77-1.14-2.85-.25-.3-.52-.62-.8-.94-1-1.15-2.23-2.58-2.18-3.57.04-.85.92-1.81,1.85-2.83.52-.57,1.07-1.17,1.5-1.8.68-.98,1.45-1.37,2.76-1.38,1.34,0,2.66-.16,4.06-.32.61-.07,1.23-.14,1.88-.2l1.16-.11-.58-1.42c-1.25-3.1-2.34-5.78-5.71-7.2-3.46-1.46-6.88-3.25-10.18-4.98l-.15-.08c-.67-.35-1.33-.7-2-1.04-1.58-.82-2.87-.71-4.28.36-11.23,8.52-22.78,17.22-35.28,26.59-.74.56-1.69.99-2.6,1.18-2.22.48-4.48.92-6.67,1.35h-.06c-2.22.45-4.51.9-6.79,1.39-1.04.22-1.22.07-1.53-.7-.38-.94-.82-1.85-1.26-2.76-.43-.87-.87-1.78-1.22-2.68-.39-.98-.88-1.57-1.55-1.84-.68-.27-1.45-.18-2.44.27-1.56.72-3.22,1.43-4.69,2.06l-.04.02c-1.74.75-3.53,1.52-5.28,2.34-.92.43-1.32.35-2.01-.44-.95-1.08-1.97-2.15-2.87-3.09-1.06-1.11-2.15-2.25-3.16-3.42-.74-.86-1.43-1.27-2.17-1.29-.75-.03-1.46.35-2.28,1.21-2.7,2.81-5.52,5.61-8.26,8.33l-1.04,1.03c-1.9,1.89-6.51,1.99-8.49.18-2.55-2.32-5.11-4.64-7.67-6.95l-.28-.26c-6.53-5.9-13.28-11.99-19.73-18.19-3.61-3.46-7.32-3.82-10.78-3.69-5.2.2-8.87,1.61-11.92,4.59-.62.6-1.54,1.07-2.37,1.18-1.71.24-3.44.41-5.13.58-2.22.22-4.51.45-6.76.83-1.58.27-2.36-.04-3.08-1.21-1.1-1.78-2.73-2.27-4.61-1.38-2.13,1.01-4.39,1.01-7.34,0-1.19-.41-2.7-.38-3.76.07-2.1.9-4.18,1.9-6.21,2.87-1.27.61-2.7,1.3-4.09,1.93-.85.39-1.34.86-1.54,1.48-.26.83.12,1.64.43,2.17.38.66.75,1.37,1.08,2.01.5.97,1.02,1.97,1.63,2.91,1,1.53,1.08,2.78.3,4.32-.57,1.12-.99,2.32-1.42,3.58l-.03.08c-.19.56-.39,1.13-.62,1.74l-.35.93,8.94,2.01c-.22,1.1-.43,2.18-.64,3.26-.8,4.07-1.56,7.92-2.38,11.85-.15.69-.5,1.4-.95,1.91-4.06,4.54-9.44,10.51-15.01,16.48-.27.29-1.14.51-1.3.47-2.41-1.45-4.44-.98-6.21,1.43-.17.23-.4.44-.65.68-.14.13-.29.26-.42.4-.53.54-1.06,1.08-1.59,1.62l-.14.15c-4.17,4.28-8.49,8.71-14.39,10.78-.24.08-1.04.41-1.44,1.11-.24.43-.34.89-.42,1.29-.03.14-.06.28-.09.42l-.23.85.85.21c.13.03.27.08.42.13.39.13.84.28,1.33.24.7-.05,1.38-.15,2.07-.25.6-.09,1.22-.17,1.82-.22.45-.04.89-.09,1.34-.14,1.97-.23,3.68-.42,5.43.76,2.29,1.54,4.73,2.92,7.1,4.25,1.41.8,2.87,1.62,4.3,2.48.35.21.69.79.85,1.26l.32.97c1,3.01,2.03,6.11,2.83,9.21.55,2.13,1.74,3.04,4.03,3.04,1.71.01,3.47.13,4.91.24h.15c.44.04.88.08,1.32.11,0,.02,0,.04.01.06,0,.58.02,1.16.03,1.76.03,1.51.07,3.07-.06,4.56-.06.68-.44,1.53-1.06,2.33-.46.6-1.02,1.17-1.56,1.72-.74.76-1.51,1.54-2.11,2.47-.99,1.51-1.64,2.51-1.31,3.48.33.96,1.33,1.32,3.32,2.02.18.06.36.12.55.18.39.13.76.24,1.08.41,2.08,1.08,4.1,1.63,6.01,1.63,2.09,0,4.13-.65,6.06-1.94,1-.67,2.17-1.17,3.29-1.41,2.88-.63,6.27-2.18,6.82-8.7.42-4.93,1.74-8.39,4.26-11.14l3.67,2.91.53-.35c.15-.1.29-.19.43-.27.33-.2.68-.41.97-.71,2.05-2.13,4.43-2.66,7.28-1.63,1.56.56,3,.1,4.05-1.31,1.25-1.68,2.61-3.3,4.05-4.82,1.11-1.17,1.3-2.39.61-3.93-.37-.82-.69-1.67-1.06-2.65l-.04-.11c-.05-.13-.1-.27-.16-.41.16-.04.33-.07.49-.11.96-.22,1.8-.41,2.63-.48,2.15-.2,4.49-.34,7.37-.43.71-.02,1.6-.14,2.08-.84.48-.71.26-1.57.02-2.25-.45-1.24-.81-2.54-1.2-3.92l-.02-.08c-.08-.28-.16-.57-.25-.87,5.02-.35,9.06-2.6,12.64-4.59.94-.52,1.91-1.03,2.89-1.51.84-.41,1.51-.77,1.99-1.03.66-.35,1.26-.68,1.48-.67.18.02.67.47,1.23.99.43.4,1.01.94,1.79,1.59,1.86,1.58,2.97,2.7,2.66,4.87-.13.95-.18,2.11.63,2.65.84.56,1.92.05,2.87-.51,1.04-.62,1.8-.6,2.91.08.66.41,1.36.75,2.05,1.09.71.35,1.45.72,2.11,1.14,3.85,2.49,7.99,3.53,12.65,3.18,3.2-.23,7.58,3.58,8.22,7.17.16.93.83,1.89,1.59,2.3.74.4,1.53.61,2.38.83.34.09.7.18,1.07.3l.82.25.26-.82c.07-.23.15-.45.24-.7.17-.5.35-1.02.47-1.56.1-.47.16-.95.22-1.41.08-.62.15-1.21.32-1.76.32-1.07.71-2.09,1.33-2.33.56-.22,1.57.06,3.01.82-.04.09-.07.18-.11.27-.28.71-.58,1.43-.94,2.09-.48.86-.6,1.6-.38,2.25.23.68.8,1.2,1.79,1.63,1.73.76,3.46,1.66,5.12,2.53l.37.19c.84.44,1.81.87,2.72.45.38-.17.7-.48.94-.9l1.83,1.2c-.12.07-.23.14-.34.21-2.99,1.72-1.61,4.25-1.16,5.09,1.77,3.24,3.3,6.63,4.45,9.23.32.72.76,1.49,1.58,1.71.82.22,1.59-.25,2.17-.69,1.02-.77,2.09-1.51,3.15-2.25,1.57-1.1,3.2-2.23,4.72-3.48,2-1.63,4.29-3.62,6.13-5.97,2.46-3.13,4.73-6.33,7.15-9.73.79-1.11,1.59-2.23,2.41-3.37.36.4.72.79,1.08,1.18,1.39,1.52,2.7,2.95,3.88,4.5,1.74,2.29,3.68,2.84,6.09,1.71,1.9-.89,3.5-.63,5.71.91,6.68,4.66,13.57,9.27,20.24,13.74,3.12,2.09,6.24,4.18,9.35,6.28.65.44,1.44.86,2.29.66.64-.15,1.15-.61,1.61-1.43.67-1.22,1.44-2.29,2.27-3.17.39-.41,1.09-.78,1.42-.74,2.03.24,4.1.56,6.09.86,2.07.31,4.21.64,6.35.89,1.61.19,3.22,0,4.42-.54,3.19-1.43,6.56-3.1,10.58-5.26l.32-.17c2.32-1.24,4.71-2.53,6.78-4.22,2.11-1.74,3.89-3.88,5.61-5.94l.28-.34c.79-.95,1.36-2.3,1.47-3.52.09-.97.31-1.24,1.24-1.53,3.5-1.08,7.21-2.32,11.37-3.78,1.24-.44,2.15-.57,3.12.08,2.94,1.95,5.82,1.24,8.01.41,2.58-.98,5.42-1.89,8.95-2.86,1.07-.29,2.23-.33,3.1-.1,5.52,1.48,11.17,3.1,16.8,4.81,2.24.69,3.46.07,4.22-2.13.84-2.42,1.67-4.85,2.51-7.27l.02-.05c4.14-12.03,8.42-24.47,12.94-36.58,3.42-9.19,4.73-16.5,4.24-23.68-.03-.44.03-.92.09-1.43.04-.31.08-.61.1-.92ZM381.91,62.45c.48,6.92-.8,14-4.13,22.95-4.52,12.15-8.81,24.6-12.97,36.67-.83,2.42-1.67,4.85-2.51,7.27-.45,1.31-.72,1.45-2.07,1.04-5.64-1.72-11.31-3.34-16.86-4.83-1.17-.31-2.63-.28-4.01.1-3.58.98-6.48,1.91-9.1,2.91-2.67,1.02-4.65.94-6.43-.23-1.66-1.1-3.29-.75-4.66-.27-4.12,1.46-7.82,2.69-11.3,3.76-1.59.49-2.3,1.37-2.46,3.03-.08.87-.5,1.88-1.08,2.56l-.28.34c-1.67,2.01-3.4,4.08-5.38,5.71-1.93,1.59-4.25,2.83-6.49,4.03l-.32.17c-3.99,2.14-7.31,3.79-10.47,5.2-.92.41-2.2.56-3.51.4-2.08-.25-4.2-.57-6.3-.89-2.01-.31-4.08-.62-6.15-.87-1-.12-2.22.55-2.89,1.27-.93.99-1.78,2.17-2.53,3.52-.28.51-.46.57-.49.58-.05.01-.27.02-.9-.41-3.11-2.1-6.23-4.19-9.35-6.28-6.64-4.45-13.51-9.04-20.22-13.72-2.73-1.9-4.95-2.22-7.44-1.06-1.67.78-2.71.47-3.96-1.19-1.23-1.62-2.63-3.15-3.98-4.63-.59-.65-1.19-1.3-1.78-1.97l-.72-.81-.64.88c-1.02,1.42-2.02,2.82-3.01,4.2l-.05.08c-2.39,3.36-4.66,6.54-7.09,9.64-1.74,2.22-3.94,4.13-5.87,5.7-1.46,1.2-3.06,2.31-4.61,3.39-1.05.73-2.14,1.49-3.2,2.29-.49.37-.67.39-.67.4-.02-.01-.18-.13-.44-.73-1.16-2.62-2.71-6.06-4.51-9.36-.87-1.6-.55-2.14.5-2.74.28-.16.55-.33.91-.56l.09-.05c.16-.1.34-.22.56-.36l1.09-.74-5.99-3.92-.28,1.21c-.17.73-.38.83-.39.84-.08.04-.35.03-1.19-.41l-.38-.2c-1.69-.88-3.44-1.8-5.22-2.58-.65-.29-.81-.5-.84-.6-.03-.07-.05-.3.25-.85.41-.75.73-1.53,1.03-2.28l.02-.05c.12-.3.24-.61.37-.9l.31-.71-.67-.39c-2.38-1.38-3.97-1.78-5.18-1.3-1.23.49-1.83,1.73-2.35,3.45-.21.68-.29,1.37-.38,2.06-.05.42-.11.85-.19,1.26-.09.41-.23.84-.39,1.29-.11-.03-.22-.06-.33-.09-.77-.2-1.44-.38-1.99-.68-.25-.14-.62-.66-.7-1.07-.87-4.88-6.35-8.88-10.06-8.6-4.26.32-8.05-.63-11.57-2.91-.74-.48-1.53-.87-2.28-1.24-.64-.32-1.3-.64-1.91-1.02-1.66-1.02-3.11-1.05-4.71-.1-.48.29-.78.41-.95.47,0-.16,0-.43.06-.87.47-3.28-1.6-5.03-3.25-6.44-.73-.62-1.28-1.13-1.73-1.55-1.94-1.8-2.34-1.85-4.74-.56-.5.27-1.12.6-1.91.99-1,.49-2,1.01-2.96,1.55-3.68,2.05-7.84,4.36-12.95,4.42h-1.15s.33,1.12.33,1.12c.2.68.38,1.32.56,1.95v.05c.41,1.41.79,2.74,1.25,4.03.15.41.16.61.17.67-.07.03-.26.09-.68.1-2.91.09-5.28.23-7.47.44-.95.09-1.88.3-2.86.52-.46.1-.94.21-1.45.31l-1.02.2.38.97c.2.52.39,1,.57,1.48.38,1,.71,1.86,1.09,2.72.4.88.33,1.37-.28,2.02-1.49,1.57-2.89,3.24-4.18,4.97-.6.81-1.22,1.02-2.06.72-3.52-1.27-6.59-.58-9.13,2.06-.13.13-.34.26-.58.41l-3.92-3.11-.55.54c-4.12,4.08-5,9.25-5.3,12.79-.37,4.31-1.95,6.38-5.46,7.15-1.33.29-2.71.88-3.88,1.66-3.16,2.1-6.53,2.18-10.31.22-.45-.23-.91-.38-1.35-.52l-.05-.02c-.15-.05-.3-.1-.46-.15-.94-.33-2.01-.71-2.23-.94.04-.33.68-1.31,1.11-1.97.51-.78,1.19-1.48,1.92-2.23.57-.58,1.16-1.19,1.67-1.86.81-1.06,1.33-2.24,1.41-3.24.14-1.6.1-3.2.07-4.75-.01-.58-.02-1.15-.03-1.73,0-.23-.05-.42-.11-.65-.03-.11-.06-.24-.1-.41l-.14-.64-.66-.04c-.62-.04-1.25-.08-1.88-.13h-.2c-1.6-.14-3.24-.26-4.9-.26h-.18c-1.45,0-1.95-.37-2.3-1.74-.81-3.15-1.85-6.29-2.86-9.33l-.32-.97c-.12-.36-.59-1.59-1.6-2.2-1.44-.87-2.92-1.7-4.36-2.51-2.33-1.31-4.73-2.67-6.97-4.17-2.29-1.54-4.58-1.27-6.6-1.04-.42.05-.84.1-1.27.13-.66.05-1.32.15-1.95.24-.6.09-1.28.18-1.92.23-.1,0-.24-.03-.39-.07.04-.19.1-.36.17-.49.04-.06.22-.23.5-.32,6.28-2.21,10.74-6.78,15.06-11.2.57-.59,1.15-1.17,1.72-1.76.11-.11.22-.22.37-.35.3-.28.61-.56.87-.92,1.23-1.67,2.29-1.93,3.91-.96.91.54,2.72.02,3.47-.78,5.6-6,10.97-11.97,15.03-16.5.65-.72,1.15-1.74,1.36-2.71.83-3.94,1.58-7.8,2.39-11.88.27-1.35.53-2.71.81-4.09l.17-.83-8.66-1.95c.1-.29.2-.58.3-.86l.02-.07c.42-1.2.81-2.34,1.32-3.36,1.07-2.09.94-4.02-.39-6.06-.57-.88-1.07-1.84-1.55-2.76-.34-.65-.72-1.38-1.12-2.08-.33-.56-.28-.75-.28-.77,0-.03.08-.19.6-.43,1.39-.64,2.78-1.3,4.13-1.95,2-.96,4.07-1.95,6.13-2.83.67-.28,1.72-.3,2.51-.03,3.41,1.17,6.08,1.15,8.65-.08,1.08-.51,1.74-.31,2.38.72,1.09,1.78,2.59,2.4,4.85,2.02,2.2-.37,4.47-.6,6.69-.82,1.69-.17,3.43-.34,5.15-.58,1.16-.16,2.48-.82,3.34-1.66,2.71-2.66,6.03-3.92,10.76-4.1,3.57-.13,6.55.36,9.51,3.21,6.46,6.2,13.21,12.3,19.77,18.22l.15.13c2.6,2.35,5.21,4.7,7.8,7.07,2.7,2.46,8.3,2.35,10.89-.23l1.08-1.07c2.72-2.7,5.54-5.5,8.25-8.32.53-.55.82-.67.97-.67,0,0,0,0,0,0,.1,0,.38.07.91.69,1.03,1.19,2.12,2.34,3.21,3.49.94.98,1.9,2,2.82,3.04,1.19,1.35,2.44,1.62,4.05.86,1.74-.81,3.54-1.59,5.27-2.33,1.47-.63,3.13-1.35,4.72-2.08.63-.29.93-.29,1.06-.24.11.04.33.21.58.86.38.96.84,1.9,1.28,2.81.42.86.85,1.74,1.21,2.63.82,2.04,2.23,2.03,3.51,1.76,2.24-.48,4.53-.93,6.77-1.37,2.22-.43,4.51-.88,6.76-1.37,1.15-.25,2.34-.79,3.28-1.49,12.53-9.38,24.07-18.08,35.29-26.59.88-.67,1.45-.72,2.43-.21.72.37,1.43.74,2.15,1.12,3.33,1.74,6.78,3.54,10.3,5.03,2.41,1.02,3.34,2.78,4.48,5.53-.26.03-.51.06-.77.09-1.34.15-2.61.3-3.85.31-1.86.01-3.19.69-4.18,2.13-.37.53-.87,1.08-1.36,1.62-1.09,1.2-2.23,2.44-2.3,3.91-.09,1.69,1.34,3.35,2.63,4.83.26.3.51.59.74.87.55.68.8,1.19.76,1.57-.04.38-.4.84-1.08,1.38-2.03,1.62-4,3.36-5.9,5.04-1.08.96-2.31,2.05-3.5,3.07-.23.2-.6.34-1,.48-.23.09-.46.17-.67.27l-.95.43,1.5,2.14.39.04c.6.07,1.21.14,1.81.21,1.32.16,2.7.33,4.07.41,1.23.08,2.39.15,2.66.41.26.25.3,1.35.35,2.52.07,1.63.23,3.25.39,4.82l.02.16c.07.71.28,1.25.61,1.63,2.13,2.36,4.32,4.8,6.63,7.14.63.64,2.02.73,2.79.38,5.56-2.5,12.87-5.81,20.06-9.24,1.2-.57,1.77-2.29,1.92-2.8.83-2.9,1.63-5.99,2.58-10.01.17-.71.36-.84.39-.85.05-.03.26-.09.91.19,1.18.51,2.38.94,3.65,1.41l.12.04c.54.2,1.09.4,1.67.61l1.18.44v-1.26c0-.44.01-.85.02-1.25.03-.87.05-1.62-.06-2.4-.08-.6-.02-1.02.17-1.25.21-.26.69-.41,1.45-.46,1.42-.09,2.85-.23,4.26-.37,2.5-.25,5.09-.51,7.59-.44,8.72.22,16.75-2.51,24.53-5.16l.41-.14c.66-.22,1.31-.45,1.97-.67,2.8-.96,5.69-1.96,8.57-2.75,2.38-.66,2.88-2.19,3.07-3.74.27-2.19.6-4.35.95-6.63.09-.6.18-1.21.28-1.83l.05.03c.81.46,1.52.86,2.33,1.11.45.14,2.03.54,3.23-.05,1.38-.68,2.73-1.44,4.04-2.18,1.17-.66,2.37-1.34,3.59-1.96.75-.38,1.68-.56,2.43-.47,1.98.24,4.07.64,6.57,1.26.46.11,1.03.5,1.6,1.08,1.87,1.89,3.42,3.48,4.87,5.24,1.23,1.49,2.72,2.14,4.79,2.11,1.63-.04,3.14.59,4.25,1.76,1.14,1.2,1.69,2.81,1.57,4.53-.02.27-.05.53-.09.82-.07.57-.15,1.15-.1,1.77Z"/>
  <path class="cls-2" d="M390.13,75.89c1.22.2,2.48.41,3.75-.72.08-.07.1-.19.03-.28-.06-.09-.18-.12-.28-.07-1.09.56-2.19-.04-3.37-.68-.9-.49-1.83-.99-2.77-.95.64-.67,1.48-.87,2.36-1.07,1.2-.28,2.45-.57,3.19-2.1.05-.1.01-.22-.08-.27-.09-.06-.21-.04-.28.04-.79.93-2.04.8-3.37.66-1.02-.11-2.07-.22-2.93.18.33-.86,1.03-1.37,1.77-1.89,1-.72,2.04-1.46,2.14-3.16,0-.11-.07-.2-.18-.22-.11-.02-.21.04-.25.15-.37,1.16-1.58,1.52-2.86,1.9-.99.29-2,.59-2.63,1.29-.02-.92.43-1.66.91-2.42.65-1.05,1.33-2.13.77-3.74-.04-.1-.14-.16-.25-.14-.11.02-.18.12-.17.23.1,1.22-.88,2.01-1.92,2.85-.8.65-1.62,1.31-1.94,2.2-.38-.85-.24-1.7-.09-2.59.2-1.22.41-2.48-.72-3.75-.07-.08-.19-.1-.28-.03-.09.06-.12.18-.07.28.56,1.09-.04,2.19-.68,3.37-.49.9-.99,1.83-.95,2.77-.67-.64-.87-1.48-1.07-2.36-.28-1.2-.57-2.45-2.1-3.19-.1-.05-.22-.01-.27.08-.06.09-.04.21.04.28.93.79.8,2.04.66,3.37-.11,1.02-.22,2.07.18,2.93-.86-.33-1.37-1.03-1.89-1.77-.72-1-1.46-2.04-3.16-2.14-.11,0-.2.07-.22.18-.02.11.04.21.15.25,1.16.37,1.52,1.58,1.9,2.86.29.99.59,2,1.29,2.63-.92.02-1.66-.43-2.42-.91-1.05-.65-2.13-1.33-3.74-.77-.1.04-.16.14-.14.25.02.11.12.18.23.17,1.22-.1,2.01.88,2.85,1.92.65.8,1.31,1.62,2.2,1.94-.85.38-1.7.24-2.59.09-1.22-.2-2.48-.41-3.75.72-.08.07-.1.19-.03.28.06.09.18.12.28.07,1.09-.56,2.19.04,3.37.68.87.47,1.76.95,2.66.95.04,0,.08,0,.11,0-.64.67-1.48.87-2.36,1.07-1.2.28-2.45.57-3.19,2.1-.05.1-.01.22.08.27.04.02.08.04.12.04.06,0,.12-.03.16-.08.79-.93,2.04-.8,3.37-.66,1.02.11,2.07.22,2.93-.18-.33.86-1.03,1.37-1.77,1.89-1,.72-2.04,1.46-2.14,3.16,0,.11.07.2.18.22.01,0,.03,0,.04,0,.09,0,.18-.06.21-.15.37-1.16,1.58-1.52,2.86-1.9.99-.29,2-.59,2.63-1.29.02.92-.43,1.66-.91,2.42-.65,1.05-1.33,2.13-.77,3.74.03.09.11.14.2.14.01,0,.03,0,.04,0,.11-.02.18-.12.17-.23-.1-1.22.88-2.01,1.92-2.85.8-.65,1.62-1.31,1.94-2.2.38.85.24,1.7.09,2.59-.2,1.22-.41,2.48.72,3.75.04.05.1.07.16.07.04,0,.08-.01.12-.04.09-.06.12-.18.07-.28-.56-1.09.04-2.19.68-3.37.49-.9.99-1.83.95-2.77.67.64.87,1.48,1.07,2.36.28,1.2.57,2.45,2.1,3.19.03.01.06.02.09.02.07,0,.14-.04.18-.1.06-.09.04-.21-.04-.28-.93-.79-.8-2.04-.66-3.37.11-1.02.22-2.07-.18-2.93.86.33,1.37,1.03,1.89,1.77.72,1,1.46,2.04,3.16,2.14,0,0,0,0,.01,0,.1,0,.19-.07.21-.18.02-.11-.04-.21-.15-.25-1.16-.37-1.52-1.58-1.9-2.86-.29-.99-.59-2-1.29-2.63.93-.02,1.66.43,2.42.91.78.48,1.57.98,2.58.98.36,0,.74-.06,1.16-.21.1-.04.16-.14.14-.25-.02-.11-.12-.18-.23-.17-1.22.1-2.01-.88-2.85-1.92-.65-.8-1.31-1.62-2.2-1.94.85-.38,1.7-.24,2.59-.09Z"/>
</svg>