<svg width="16" height="16" viewBox="0 0 16 16" fill="none" xmlns="http://www.w3.org/2000/svg">
<g clip-path="url(#clip0_768_161)">
<path d="M7.98638 0C3.57572 0 0 3.58172 0 7.9999C0 12.4186 3.57572 16.0001 7.98638 16.0001C12.3972 16.0001 15.9728 12.4186 15.9728 7.9999C15.9728 3.582 12.3974 0.000381829 7.98628 0.000381829L7.98638 0ZM11.6489 11.5382C11.5054 11.7738 11.1989 11.8477 10.9644 11.7041C9.08901 10.5559 6.72847 10.2965 3.9485 10.9327C3.68062 10.9942 3.41359 10.826 3.35256 10.5577C3.29123 10.2894 3.45841 10.0219 3.72696 9.96076C6.76919 9.26405 9.37874 9.56393 11.4838 10.8524C11.7184 10.9967 11.7928 11.3033 11.6488 11.5383L11.6489 11.5382ZM12.6264 9.36016C12.4458 9.65373 12.0626 9.74582 11.7699 9.56555C9.62365 8.24399 6.35091 7.86119 3.81175 8.63327C3.48244 8.73291 3.13464 8.54701 3.03469 8.21772C2.93551 7.88785 3.12119 7.54012 3.44992 7.43981C6.35034 6.55826 9.956 6.98527 12.4213 8.50278C12.714 8.68333 12.8065 9.06736 12.6263 9.36026L12.6264 9.36016ZM12.7103 7.09189C10.136 5.56044 5.88961 5.41963 3.43208 6.16677C3.03746 6.28666 2.62013 6.0635 2.50053 5.66819C2.38094 5.2727 2.60353 4.85494 2.99845 4.73477C5.81952 3.87691 10.5092 4.04265 13.4727 5.8049C13.8276 6.01592 13.9441 6.47514 13.7337 6.83023C13.5239 7.18579 13.0642 7.303 12.7104 7.09189H12.7103ZM21.7283 7.38536C20.3494 7.05597 20.1039 6.82479 20.1039 6.33901C20.1039 5.88008 20.5352 5.57124 21.1767 5.57124C21.7985 5.57124 22.415 5.80576 23.0614 6.28857C23.081 6.30319 23.1055 6.30901 23.1296 6.3052C23.1537 6.30157 23.1751 6.28828 23.1892 6.26832L23.8625 5.3176C23.8902 5.27843 23.8826 5.22446 23.8454 5.19456C23.076 4.57619 22.2097 4.27555 21.1971 4.27555C19.7082 4.27555 18.6682 5.17058 18.6682 6.45117C18.6682 7.82441 19.5654 8.31067 21.1157 8.686C22.4352 8.99045 22.6578 9.24553 22.6578 9.70149C22.6578 10.2067 22.2075 10.5209 21.4828 10.5209C20.6779 10.5209 20.0214 10.2493 19.287 9.61217C19.2688 9.5964 19.2438 9.58925 19.2207 9.59058C19.1964 9.59259 19.1742 9.60386 19.1587 9.62249L18.4038 10.5225C18.3721 10.5598 18.3761 10.6156 18.4127 10.6479C19.2672 11.4121 20.3182 11.8157 21.4523 11.8157C23.0567 11.8157 24.0934 10.9376 24.0934 9.57845C24.0963 8.43113 23.4106 7.79585 21.7312 7.3866L21.7283 7.38536ZM27.7231 6.02309C27.0277 6.02309 26.4573 6.29745 25.9869 6.85965V6.22685C25.9869 6.17689 25.9465 6.1362 25.8967 6.1362H24.662C24.6121 6.1362 24.5718 6.17689 24.5718 6.22685V13.2581C24.5718 13.308 24.6121 13.3487 24.662 13.3487H25.8967C25.9465 13.3487 25.9869 13.308 25.9869 13.2581V11.0386C26.4574 11.5675 27.0279 11.8259 27.7231 11.8259C29.0152 11.8259 30.3233 10.8295 30.3233 8.92483C30.3252 7.01967 29.0168 6.023 27.7245 6.023L27.7231 6.02309ZM28.8875 8.92483C28.8875 9.89475 28.2911 10.5716 27.4371 10.5716C26.5928 10.5716 25.9559 9.86399 25.9559 8.92483C25.9559 7.98577 26.5928 7.27808 27.4371 7.27808C28.2773 7.27798 28.8876 7.97038 28.8876 8.92473L28.8875 8.92483ZM33.676 6.02309C32.0119 6.02309 30.7082 7.30664 30.7082 8.94555C30.7082 10.5666 32.0029 11.8367 33.6555 11.8367C35.3255 11.8367 36.6332 10.5574 36.6332 8.92482C36.6332 7.29785 35.3343 6.02328 33.6759 6.02328L33.676 6.02309ZM33.676 10.5812C32.7908 10.5812 32.1236 9.86886 32.1236 8.92435C32.1236 7.97582 32.7678 7.28753 33.6555 7.28753C34.5464 7.28753 35.2181 7.9999 35.2181 8.94508C35.2181 9.89341 34.5696 10.5812 33.676 10.5812H33.676ZM40.1867 6.1362H38.828V4.74471C38.828 4.69484 38.7878 4.65414 38.7379 4.65414H37.5033C37.4534 4.65414 37.4128 4.69484 37.4128 4.74471V6.1362H36.8192C36.7695 6.1362 36.7292 6.17689 36.7292 6.22686V7.28983C36.7292 7.33969 36.7695 7.38048 36.8192 7.38048H37.4128V10.1309C37.4128 11.2424 37.9651 11.8059 39.0543 11.8059C39.4972 11.8059 39.8646 11.7143 40.2109 11.5176C40.2391 11.5019 40.2565 11.4715 40.2565 11.4392V10.4269C40.2565 10.3957 40.2403 10.3662 40.2136 10.3499C40.1867 10.3329 40.1532 10.3321 40.1257 10.3457C39.8878 10.4656 39.6579 10.521 39.4009 10.521C39.0047 10.521 38.828 10.3408 38.828 9.93698V7.38097H40.1867C40.2366 7.38097 40.2767 7.34027 40.2767 7.29031V6.22744C40.2786 6.17748 40.2386 6.13678 40.188 6.13678L40.1867 6.1362ZM44.9208 6.14165V5.97074C44.9208 5.46796 45.1132 5.24375 45.5449 5.24375C45.8022 5.24375 46.009 5.29496 46.2406 5.37234C46.2691 5.38132 46.2988 5.37683 46.322 5.35973C46.3458 5.34262 46.3593 5.31521 46.3593 5.28617V4.24393C46.3593 4.20409 46.3337 4.16884 46.2954 4.15709C46.0508 4.0842 45.7378 4.0094 45.2691 4.0094C44.1287 4.0094 43.5259 4.6527 43.5259 5.86909V6.13084H42.9327C42.8829 6.13084 42.8421 6.17154 42.8421 6.22141V7.28982C42.8421 7.33969 42.8829 7.38048 42.9327 7.38048H43.5259V11.6229C43.5259 11.6728 43.5662 11.7135 43.6159 11.7135H44.8507C44.9005 11.7135 44.9412 11.6728 44.9412 11.6229V7.38077H46.094L47.8599 11.6221C47.6594 12.0678 47.4623 12.1564 47.1932 12.1564C46.9757 12.1564 46.7466 12.0914 46.5124 11.963C46.4903 11.9508 46.4642 11.9488 46.4404 11.9562C46.4169 11.9645 46.3971 11.9821 46.387 12.005L45.9686 12.9247C45.9486 12.9681 45.9657 13.0192 46.0075 13.0417C46.4444 13.2787 46.8387 13.3799 47.3261 13.3799C48.2378 13.3799 48.7418 12.9545 49.186 11.81L51.328 6.26545C51.3388 6.23755 51.3356 6.20603 51.3185 6.18129C51.3015 6.15674 51.2742 6.14193 51.2442 6.14193H49.9588C49.9203 6.14193 49.8859 6.16648 49.8733 6.20269L48.5566 9.97022L47.1143 6.2002C47.1012 6.16514 47.0674 6.14193 47.03 6.14193H44.9205L44.9208 6.14165ZM42.1761 6.1362H40.9413C40.8915 6.1362 40.8508 6.17689 40.8508 6.22686V11.6229C40.8508 11.6728 40.8915 11.7135 40.9413 11.7135H42.1761C42.2259 11.7135 42.2666 11.6728 42.2666 11.6229V6.22724C42.2666 6.21532 42.2643 6.20351 42.2597 6.19249C42.2552 6.18147 42.2485 6.17146 42.2401 6.16304C42.2317 6.15461 42.2217 6.14794 42.2107 6.1434C42.1997 6.13886 42.1879 6.13654 42.176 6.13658L42.1761 6.1362ZM41.5657 3.67926C41.0766 3.67926 40.6797 4.07589 40.6797 4.56587C40.6797 5.05614 41.0767 5.45326 41.5657 5.45326C42.0547 5.45326 42.4512 5.05614 42.4512 4.56587C42.4512 4.07599 42.0545 3.67926 41.5662 3.67926H41.5657ZM52.3823 7.87113C51.8937 7.87113 51.5134 7.47801 51.5134 7.00065C51.5134 6.52329 51.8986 6.12569 52.3869 6.12569C52.8756 6.12569 53.2558 6.5187 53.2558 6.99568C53.2558 7.47305 52.8705 7.87113 52.3822 7.87113H52.3823ZM52.3871 6.21224C51.942 6.21224 51.6053 6.56666 51.6053 7.00065C51.6053 7.43446 51.9396 7.7841 52.3826 7.7841C52.8276 7.7841 53.1647 7.42997 53.1647 6.99568C53.1647 6.56188 52.83 6.21224 52.3875 6.21224H52.3871ZM52.5797 7.08519L52.8255 7.42987H52.6183L52.397 7.11367H52.2068V7.42987H52.0333V6.51622H52.44C52.652 6.51622 52.7913 6.62484 52.7913 6.80769C52.7922 6.95748 52.7055 7.049 52.5805 7.0852L52.5797 7.08519ZM52.4329 6.67299H52.2067V6.96197H52.4329C52.5458 6.96197 52.6132 6.90666 52.6132 6.81734C52.6132 6.72334 52.5455 6.67299 52.433 6.67299L52.4329 6.67299Z" fill="black"/>
</g>
<defs>
<clipPath id="clip0_768_161">
<rect width="16" height="16" fill="white"/>
</clipPath>
</defs>
</svg>
