<svg width="498" height="154" viewBox="0 0 498 154" fill="none" xmlns="http://www.w3.org/2000/svg">
<path d="M131.194 83.3738C138.124 84.5153 145.291 85.703 152.491 79.2762C152.952 78.8671 153.038 78.1743 152.689 77.6596C152.34 77.1515 151.669 76.98 151.116 77.2571C144.936 80.4309 138.644 77.013 131.984 73.3839C126.844 70.5862 121.579 67.7225 116.209 67.9666C119.835 64.1462 124.613 63.0244 129.602 61.8565C136.44 60.2531 143.514 58.5969 147.707 49.9003C147.977 49.346 147.792 48.673 147.272 48.3365C146.752 48 146.068 48.0989 145.667 48.5674C141.165 53.8725 134.044 53.1269 126.515 52.3285C120.704 51.7148 114.741 51.088 109.871 53.3776C111.76 48.4552 115.748 45.585 119.914 42.5959C125.62 38.4917 131.523 34.249 132.076 24.6022C132.109 23.9819 131.681 23.4343 131.076 23.3221C130.47 23.2099 129.871 23.5662 129.681 24.1535C127.548 30.7848 120.684 32.8237 113.418 34.9814C107.811 36.6442 102.072 38.3532 98.446 42.332C98.3143 37.0599 100.901 32.8765 103.606 28.515C107.311 22.5303 111.148 16.3476 107.976 7.22209C107.772 6.63484 107.166 6.29832 106.561 6.42369C105.955 6.54906 105.541 7.10992 105.593 7.73017C106.153 14.6716 100.591 19.1915 94.7012 23.9687C90.1602 27.6572 85.5072 31.4381 83.671 36.5056C81.5387 31.6888 82.3285 26.8324 83.1643 21.7649C84.3028 14.8168 85.4875 7.63119 79.0707 0.412584C78.6627 -0.0493008 77.9717 -0.135079 77.4583 0.214634C76.9516 0.564347 76.7805 1.23738 77.0569 1.79164C80.2225 7.9941 76.8068 14.2955 73.1937 20.9731C70.4032 26.1198 67.547 31.4051 67.7905 36.7893C63.9799 33.1536 62.8611 28.3632 61.6962 23.3617C60.097 16.506 58.4451 9.41275 49.771 5.20959C49.2181 4.93906 48.5469 5.12381 48.2112 5.64508C47.8756 6.16636 47.9743 6.85258 48.4416 7.25508C53.7329 11.7684 52.9892 18.9012 52.1929 26.4563C51.5808 32.2827 50.9556 38.2608 53.2393 43.1436C48.3297 41.2498 45.4668 37.2512 42.4855 33.0811C38.392 27.3603 34.1602 21.4416 24.5384 20.8873C23.9264 20.8543 23.3735 21.2832 23.2616 21.8902C23.1498 22.4973 23.5052 23.0977 24.0909 23.2891C30.7051 25.4072 32.7387 32.2893 34.8907 39.5739C36.5492 45.1957 38.2538 50.9494 42.2223 54.5851C36.9638 54.7171 32.7913 52.1239 28.4411 49.412C22.4719 45.6971 16.3053 41.8503 7.20338 45.0307C6.61764 45.2352 6.27542 45.8423 6.40704 46.4493C6.53209 47.0564 7.09149 47.4721 7.71013 47.4193C14.6336 46.8584 19.1418 52.4341 23.9066 58.3396C27.5855 62.8925 31.3566 67.5641 36.411 69.3984C31.6067 71.5363 26.7629 70.7379 21.7085 69.9065C14.7784 68.765 7.61141 67.5773 0.411515 74.0041C-0.0491729 74.4132 -0.134729 75.106 0.214078 75.6207C0.562884 76.1288 1.23417 76.3003 1.787 76.0232C7.97338 72.8494 14.2585 76.2739 20.9187 79.8964C25.8481 82.582 30.9025 85.3335 36.049 85.3335C36.2596 85.3335 36.4768 85.3269 36.6874 85.3137C33.0611 89.1341 28.2832 90.2559 23.2946 91.4238C16.4566 93.0272 9.38177 94.6834 5.18951 103.38C4.91968 103.934 5.10395 104.607 5.62387 104.944C5.82789 105.076 6.06482 105.142 6.29516 105.142C6.64397 105.142 6.99277 104.99 7.2297 104.706C11.7313 99.4012 18.8456 100.147 26.3812 100.945C32.1924 101.559 38.155 102.186 43.0252 99.8961C41.1364 104.818 37.1481 107.689 32.9888 110.678C27.2828 114.782 21.3794 119.025 20.8266 128.672C20.7937 129.292 21.2215 129.839 21.8269 129.952C21.9059 129.965 21.9783 129.971 22.0507 129.971C22.5772 129.971 23.051 129.635 23.2156 129.12C25.3479 122.489 32.2122 120.45 39.4779 118.292C45.0851 116.63 50.824 114.921 54.4502 110.942C54.5819 116.214 51.9954 120.397 49.2905 124.759C45.5853 130.743 41.7484 136.926 44.9206 146.052C45.0983 146.553 45.5655 146.876 46.0789 146.876C46.1644 146.876 46.25 146.87 46.3356 146.85C46.941 146.725 47.3556 146.164 47.303 145.544C46.7436 138.602 52.3048 134.082 58.195 129.305C62.736 125.616 67.389 121.836 69.2252 116.768C71.3575 121.585 70.5677 126.441 69.7319 131.509C68.5934 138.457 67.4087 145.643 73.8189 152.861C74.0624 153.132 74.398 153.27 74.7337 153.27C74.9706 153.27 75.2141 153.198 75.4247 153.052C75.9315 152.703 76.1026 152.03 75.8262 151.475C72.654 145.28 76.0697 138.972 79.6894 132.294C82.4798 127.147 85.3361 121.862 85.0926 116.478C88.9031 120.113 90.022 124.904 91.1868 129.905C92.7861 136.761 94.438 143.854 103.112 148.058C103.283 148.143 103.467 148.183 103.645 148.183C104.047 148.183 104.441 147.985 104.672 147.622C105.007 147.101 104.909 146.415 104.441 146.012C99.1502 141.499 99.8938 134.366 100.69 126.804C101.302 120.978 101.927 115 99.6437 110.124C104.553 112.017 107.416 116.016 110.398 120.193C114.491 125.913 118.723 131.832 128.345 132.386C128.371 132.386 128.391 132.386 128.417 132.386C129.003 132.386 129.516 131.964 129.621 131.383C129.733 130.776 129.378 130.176 128.792 129.985C122.178 127.847 120.144 120.965 117.992 113.68C116.334 108.058 114.629 102.304 110.661 98.6688C115.919 98.5368 120.092 101.13 124.442 103.842C128.851 106.587 133.373 109.404 139.105 109.404C141.132 109.404 143.304 109.055 145.68 108.223C146.265 108.019 146.608 107.412 146.476 106.805C146.351 106.197 145.792 105.782 145.173 105.835C138.249 106.395 133.741 100.82 128.976 94.9143C125.298 90.3614 121.526 85.6898 116.472 83.8555C121.296 81.744 126.14 82.5424 131.194 83.3738Z" fill="#05A8E1"/>
<path d="M221.311 32.1573C204.279 32.1573 188.227 44.681 188.227 65.545C188.227 86.7389 203.654 99.0053 223.477 99.0053C231.993 99.0053 241.424 96.2208 248.689 91.5491L242.437 80.1604C236.797 83.0175 231.822 84.5879 226.057 84.5879C215.638 84.5879 208.919 80.4375 207.056 71.2262H250.466C250.723 69.6492 251.256 66.2246 251.256 62.7605C251.25 45.4332 240.924 32.1573 221.311 32.1573ZM221.943 46.5417C229.255 46.5417 233.572 50.6591 234.533 58.5507H207.274C209.169 50.5535 214.539 46.5417 221.943 46.5417Z" fill="#0F0F0F"/>
<path d="M303.485 32.1573C296.66 32.1573 289.658 35.4895 284.538 40.1875H284.057L282.695 33.7013H267.321V121.123H286.19V102.456L285.308 92.1166H285.749C290.276 96.5177 295.792 99.0053 301.379 99.0053C315.641 99.0053 328.968 86.442 328.968 64.5882C328.974 44.9053 319.352 32.1573 303.485 32.1573ZM297.095 83.5189C293.791 83.5189 289.75 82.4236 286.203 79.2894V53.5624C290.171 49.3592 293.896 47.6436 297.93 47.6436C305.927 47.6436 309.665 53.338 309.665 64.773C309.665 77.9697 304.044 83.5189 297.095 83.5189Z" fill="#0F0F0F"/>
<path d="M375.135 32.1573C358.103 32.1573 342.051 44.681 342.051 65.545C342.051 86.7389 357.478 99.0053 377.3 99.0053C385.817 99.0053 395.248 96.2208 402.507 91.5491L396.255 80.1604C390.614 83.0175 385.639 84.5879 379.874 84.5879C369.456 84.5879 362.736 80.4375 360.874 71.2262H404.284C404.54 69.6492 405.073 66.2246 405.073 62.7605C405.073 45.4332 394.747 32.1573 375.135 32.1573ZM375.76 46.5417C383.072 46.5417 387.39 50.6591 388.35 58.5507H361.091C362.993 50.5535 368.363 46.5417 375.76 46.5417Z" fill="#0F0F0F"/>
<path d="M474.414 77.6596C469.84 80.8268 464.357 83.7367 457.684 83.7367C447.246 83.7367 439.816 76.6368 439.816 65.6176C439.816 54.5587 447.371 47.4259 458.309 47.4259C463.087 47.4259 467.549 49.0095 472.4 52.5462L481.08 40.8209C475.769 35.7138 467.312 32.1573 457.283 32.1573C437.697 32.1573 420.506 44.3906 420.506 65.6176C420.506 86.7719 435.861 99.0053 455.9 99.0053C464.575 99.0053 474.367 96.0558 482.028 89.6092L474.414 77.6596Z" fill="#0F0F0F"/>
<path d="M497.849 45.4332C497.849 48.3166 495.533 50.7448 492.571 50.7448C489.623 50.7448 487.339 48.3496 487.339 45.4662C487.339 42.5827 489.636 40.1545 492.604 40.1545C495.553 40.1545 497.849 42.5365 497.849 45.4332ZM496.968 45.4332C496.968 43.0512 495.072 41.0848 492.604 41.0848C490.116 41.0848 488.221 43.0776 488.221 45.4596C488.221 47.8416 490.103 49.8079 492.571 49.8079C495.059 49.8079 496.968 47.8152 496.968 45.4332ZM493.736 46.1656L494.947 47.9273H493.92L492.94 46.3371H492.709H491.485V47.9273H490.597V42.6619H492.709C494.078 42.6619 494.835 43.3151 494.835 44.4698C494.842 45.2946 494.453 45.8819 493.736 46.1656ZM492.709 45.5849C493.519 45.5849 493.999 45.1824 493.999 44.4764C493.999 43.777 493.519 43.4009 492.709 43.4009H491.485V45.5783H492.709V45.5849Z" fill="#0F0F0F"/>
</svg>
