<?xml version="1.0" encoding="UTF-8"?>
<svg id="Conteeúdo" xmlns="http://www.w3.org/2000/svg" version="1.1" viewBox="0 0 95.83 94.94">
  <!-- Generator: Adobe Illustrator 30.0.0, SVG Export Plug-In . SVG Version: 2.1.1 Build 123)  -->
  <defs>
    <style>
      .st0 {
        fill: #fff;
      }

      .st1 {
        fill: #515151;
      }

      .st2 {
        fill: #0a0a0a;
      }
    </style>
  </defs>
  <rect class="st2" x="12.44" y="36.86" width="3.92" height="3.92"/>
  <rect class="st2" x="16.35" y="36.86" width="3.92" height="3.92"/>
  <rect class="st2" x="20.27" y="40.78" width="3.92" height="3.92"/>
  <rect class="st2" x="4.6" y="48.62" width="3.92" height="3.92"/>
  <rect class="st2" x="8.52" y="40.78" width="3.92" height="3.92"/>
  <rect class="st2" x="4.6" y="44.7" width="3.92" height="3.92"/>
  <rect class="st2" x="86.88" y="36.86" width="3.92" height="3.92"/>
  <rect class="st2" x="86.88" y="40.78" width="3.92" height="3.92"/>
  <rect class="st2" x="82.97" y="36.86" width="3.92" height="3.92"/>
  <rect class="st2" x="71.21" y="44.7" width="3.92" height="3.92"/>
  <rect class="st2" x="71.21" y="48.62" width="3.92" height="3.92"/>
  <rect class="st2" x="79.05" y="36.86" width="3.92" height="3.92"/>
  <rect class="st2" x="75.13" y="40.78" width="3.92" height="3.92"/>
  <g>
    <rect class="st0" x="51.62" y="60.37" width="3.92" height="3.92"/>
    <rect class="st2" x="51.62" y="52.54" width="3.92" height="3.92"/>
    <rect class="st2" x="51.62" y="64.29" width="3.92" height="3.92"/>
    <rect class="st2" x="55.54" y="52.54" width="3.92" height="3.92"/>
    <rect class="st2" x="55.54" y="56.45" width="3.92" height="3.92"/>
    <rect class="st2" x="51.62" y="68.21" width="3.92" height="3.92"/>
    <rect class="st2" x="55.54" y="60.37" width="3.92" height="3.92"/>
    <rect class="st0" x="55.54" y="64.29" width="3.92" height="3.92"/>
    <rect class="st2" x="55.54" y="68.21" width="3.92" height="3.92"/>
    <rect class="st2" x="47.7" y="60.37" width="3.92" height="3.92"/>
    <rect class="st0" x="47.7" y="56.45" width="3.92" height="3.92"/>
    <rect class="st2" x="47.7" y="64.29" width="3.92" height="3.92"/>
    <rect class="st2" x="47.7" y="52.54" width="3.92" height="3.92"/>
    <rect class="st2" x="16.35" y="68.21" width="3.92" height="3.92"/>
    <rect class="st2" x="20.27" y="68.21" width="3.92" height="3.92"/>
    <rect class="st2" x="28.11" y="68.21" width="3.92" height="3.92"/>
    <rect class="st2" x="24.19" y="68.21" width="3.92" height="3.92"/>
    <rect class="st2" x="63.37" y="68.21" width="3.92" height="3.92"/>
    <rect class="st2" x="63.37" y="64.29" width="3.92" height="3.92"/>
    <rect class="st2" x="63.37" y="52.54" width="3.92" height="3.92"/>
    <rect class="st2" x="63.37" y="60.37" width="3.92" height="3.92"/>
    <rect class="st2" x="63.37" y="56.45" width="3.92" height="3.92"/>
    <rect class="st2" x="59.46" y="60.37" width="3.92" height="3.92"/>
    <rect class="st2" x="59.46" y="64.29" width="3.92" height="3.92"/>
    <rect class="st2" x="59.46" y="68.21" width="3.92" height="3.92"/>
    <rect class="st2" x="59.46" y="52.54" width="3.92" height="3.92"/>
    <rect class="st2" x="59.46" y="56.45" width="3.92" height="3.92"/>
    <rect class="st2" x="51.62" y="56.45" width="3.92" height="3.92"/>
    <rect class="st2" x="20.27" y="36.86" width="3.92" height="3.92"/>
    <rect class="st2" x="24.19" y="60.37" width="3.92" height="3.92"/>
    <rect class="st2" x="20.27" y="60.37" width="3.92" height="3.92"/>
    <rect class="st2" x="8.52" y="60.37" width="3.92" height="3.92"/>
    <rect class="st0" x="16.35" y="60.37" width="3.92" height="3.92"/>
    <rect class="st2" x="35.95" y="60.37" width="3.92" height="3.92"/>
    <rect class="st2" x="32.03" y="60.37" width="3.92" height="3.92"/>
    <rect class="st2" x="28.11" y="60.37" width="3.92" height="3.92"/>
    <rect class="st2" x="12.44" y="60.37" width="3.92" height="3.92"/>
    <rect class="st2" x="39.86" y="52.54" width="3.92" height="3.92"/>
    <rect class="st2" x="43.78" y="52.54" width="3.92" height="3.92"/>
    <rect class="st2" x="43.78" y="60.37" width="3.92" height="3.92"/>
    <rect class="st2" x="43.78" y="56.45" width="3.92" height="3.92"/>
    <rect class="st2" x="32.03" y="64.29" width="3.92" height="3.92"/>
    <rect class="st2" x="12.44" y="64.29" width="3.92" height="3.92"/>
    <rect class="st2" x="16.35" y="64.29" width="3.92" height="3.92"/>
    <rect class="st2" x="28.11" y="64.29" width="3.92" height="3.92"/>
    <rect class="st2" x="24.19" y="64.29" width="3.92" height="3.92"/>
    <rect class="st0" x="20.27" y="64.29" width="3.92" height="3.92"/>
    <rect class="st2" x="16.35" y="52.54" width="3.92" height="3.92"/>
    <rect class="st2" x="4.6" y="52.54" width="3.92" height="3.92"/>
    <rect class="st2" x="8.52" y="52.54" width="3.92" height="3.92"/>
    <rect class="st2" x="20.27" y="52.54" width="3.92" height="3.92"/>
    <rect class="st2" x="12.44" y="52.54" width="3.92" height="3.92"/>
    <rect class="st2" x="32.03" y="52.54" width="3.92" height="3.92"/>
    <rect class="st2" x="24.19" y="52.54" width="3.92" height="3.92"/>
    <rect class="st2" x="28.11" y="52.54" width="3.92" height="3.92"/>
    <rect class="st1" x="32.03" y="56.45" width="3.92" height="3.92"/>
    <rect class="st2" x="35.95" y="56.45" width="3.92" height="3.92"/>
    <rect class="st2" x="28.11" y="56.45" width="3.92" height="3.92"/>
    <rect class="st2" x="24.19" y="56.45" width="3.92" height="3.92"/>
    <rect class="st2" x="35.95" y="52.54" width="3.92" height="3.92"/>
    <rect class="st2" x="20.27" y="56.45" width="3.92" height="3.92"/>
    <rect class="st0" x="12.44" y="56.45" width="3.92" height="3.92"/>
    <rect class="st2" x="16.35" y="56.45" width="3.92" height="3.92"/>
    <rect class="st2" x="8.52" y="56.45" width="3.92" height="3.92"/>
    <rect class="st2" x="71.21" y="60.37" width="3.92" height="3.92"/>
    <rect class="st2" x="71.21" y="56.45" width="3.92" height="3.92"/>
    <rect class="st2" x="71.21" y="52.54" width="3.92" height="3.92"/>
    <rect class="st2" x="67.29" y="52.54" width="3.92" height="3.92"/>
    <rect class="st1" x="67.29" y="56.45" width="3.92" height="3.92"/>
    <rect class="st2" x="67.29" y="64.29" width="3.92" height="3.92"/>
    <rect class="st2" x="67.29" y="60.37" width="3.92" height="3.92"/>
  </g>
</svg>