<?xml version="1.0" encoding="UTF-8"?>
<svg id="Conteeúdo" xmlns="http://www.w3.org/2000/svg" version="1.1" viewBox="0 0 85.25 94.94">
  <!-- Generator: Adobe Illustrator 30.0.0, SVG Export Plug-In . SVG Version: 2.1.1 Build 123)  -->
  <defs>
    <style>
      .st0 {
        fill: #ffa000;
      }

      .st1 {
        fill: #fff;
      }

      .st2 {
        fill: #ffc800;
      }

      .st3 {
        fill: #ff6100;
      }

      .st4 {
        fill: #101010;
      }

      .st5 {
        fill: #ffeb7f;
      }

      .st6 {
        fill: #00daff;
      }
    </style>
  </defs>
  <rect class="st4" x="48.23" y="83.66" width="5.56" height="5.56"/>
  <rect class="st4" x="42.67" y="83.66" width="5.56" height="5.56"/>
  <rect class="st4" x="37.11" y="83.66" width="5.56" height="5.56"/>
  <rect class="st4" x="31.56" y="83.66" width="5.56" height="5.56"/>
  <rect class="st4" x="59.34" y="78.11" width="5.56" height="5.56"/>
  <rect class="st4" x="53.78" y="78.11" width="5.56" height="5.56"/>
  <rect class="st3" x="48.23" y="78.11" width="5.56" height="5.56"/>
  <rect class="st3" x="42.67" y="78.11" width="5.56" height="5.56"/>
  <rect class="st3" x="37.11" y="78.11" width="5.56" height="5.56"/>
  <rect class="st3" x="31.56" y="78.11" width="5.56" height="5.56"/>
  <rect class="st4" x="26" y="78.11" width="5.56" height="5.56"/>
  <rect class="st4" x="20.45" y="78.11" width="5.56" height="5.56"/>
  <rect class="st4" x="64.89" y="72.55" width="5.56" height="5.56"/>
  <rect class="st6" x="59.34" y="72.55" width="5.56" height="5.56"/>
  <rect class="st3" x="53.78" y="72.55" width="5.56" height="5.56"/>
  <rect class="st0" x="48.23" y="72.55" width="5.56" height="5.56"/>
  <rect class="st0" x="42.67" y="72.55" width="5.56" height="5.56"/>
  <rect class="st0" x="37.11" y="72.55" width="5.56" height="5.56"/>
  <rect class="st0" x="31.56" y="72.55" width="5.56" height="5.56"/>
  <rect class="st3" x="26" y="72.55" width="5.56" height="5.56"/>
  <rect class="st6" x="20.45" y="72.55" width="5.56" height="5.56"/>
  <rect class="st4" x="14.89" y="72.55" width="5.56" height="5.56"/>
  <rect class="st4" x="70.45" y="67" width="5.56" height="5.56"/>
  <rect class="st6" x="64.89" y="67" width="5.56" height="5.56"/>
  <rect class="st0" x="59.34" y="67" width="5.56" height="5.56"/>
  <rect class="st0" x="53.78" y="67" width="5.56" height="5.56"/>
  <rect class="st0" x="48.23" y="67" width="5.56" height="5.56"/>
  <rect class="st0" x="42.67" y="67" width="5.56" height="5.56"/>
  <rect class="st0" x="37.11" y="67" width="5.56" height="5.56"/>
  <rect class="st0" x="31.56" y="67" width="5.56" height="5.56"/>
  <rect class="st0" x="26" y="67" width="5.56" height="5.56"/>
  <rect class="st0" x="20.45" y="67" width="5.56" height="5.56"/>
  <rect class="st6" x="14.89" y="67" width="5.56" height="5.56"/>
  <rect class="st4" x="9.34" y="67" width="5.56" height="5.56"/>
  <rect class="st4" x="70.45" y="61.44" width="5.56" height="5.56"/>
  <rect class="st6" x="64.89" y="61.44" width="5.56" height="5.56"/>
  <rect class="st2" x="59.34" y="61.44" width="5.56" height="5.56"/>
  <rect x="53.78" y="61.44" width="5.56" height="5.56"/>
  <rect class="st2" x="48.23" y="61.44" width="5.56" height="5.56"/>
  <rect class="st2" x="42.67" y="61.44" width="5.56" height="5.56"/>
  <rect class="st2" x="37.11" y="61.44" width="5.56" height="5.56"/>
  <rect class="st2" x="31.56" y="61.44" width="5.56" height="5.56"/>
  <rect x="26" y="61.44" width="5.56" height="5.56"/>
  <rect class="st0" x="20.45" y="61.44" width="5.56" height="5.56"/>
  <rect class="st6" x="14.89" y="61.44" width="5.56" height="5.56"/>
  <rect class="st4" x="9.34" y="61.44" width="5.56" height="5.56"/>
  <rect class="st4" x="76" y="55.89" width="5.56" height="5.56"/>
  <rect class="st6" x="70.45" y="55.89" width="5.56" height="5.56"/>
  <rect class="st6" x="64.89" y="55.89" width="5.56" height="5.56"/>
  <rect class="st2" x="59.34" y="55.89" width="5.56" height="5.56"/>
  <rect class="st2" x="53.78" y="55.89" width="5.56" height="5.56"/>
  <rect x="48.23" y="55.89" width="5.56" height="5.56"/>
  <rect x="42.67" y="55.89" width="5.56" height="5.56"/>
  <rect x="37.11" y="55.89" width="5.56" height="5.56"/>
  <rect x="31.56" y="55.89" width="5.56" height="5.56"/>
  <rect class="st2" x="26" y="55.89" width="5.56" height="5.56"/>
  <rect class="st2" x="20.45" y="55.89" width="5.56" height="5.56"/>
  <rect class="st6" x="14.89" y="55.89" width="5.56" height="5.56"/>
  <rect class="st6" x="9.34" y="55.89" width="5.56" height="5.56"/>
  <rect class="st4" x="3.78" y="55.89" width="5.56" height="5.56"/>
  <rect class="st4" x="76" y="50.33" width="5.56" height="5.56"/>
  <rect class="st2" x="70.45" y="50.33" width="5.56" height="5.56"/>
  <rect class="st6" x="64.89" y="50.33" width="5.56" height="5.56"/>
  <rect class="st6" x="59.34" y="50.33" width="5.56" height="5.56"/>
  <rect class="st2" x="53.78" y="50.33" width="5.56" height="5.56"/>
  <rect class="st2" x="48.23" y="50.33" width="5.56" height="5.56"/>
  <rect class="st2" x="42.67" y="50.33" width="5.56" height="5.56"/>
  <rect class="st2" x="37.11" y="50.33" width="5.56" height="5.56"/>
  <rect class="st2" x="31.56" y="50.33" width="5.56" height="5.56"/>
  <rect class="st2" x="26" y="50.33" width="5.56" height="5.56"/>
  <rect class="st6" x="20.45" y="50.33" width="5.56" height="5.56"/>
  <rect class="st6" x="14.89" y="50.33" width="5.56" height="5.56"/>
  <rect class="st0" x="9.34" y="50.33" width="5.56" height="5.56"/>
  <rect class="st4" x="3.78" y="50.33" width="5.56" height="5.56"/>
  <rect class="st4" x="76" y="44.78" width="5.56" height="5.56"/>
  <rect class="st2" x="70.45" y="44.78" width="5.56" height="5.56"/>
  <rect class="st2" x="64.89" y="44.78" width="5.56" height="5.56"/>
  <rect class="st6" x="59.34" y="44.78" width="5.56" height="5.56"/>
  <rect class="st6" x="53.78" y="44.78" width="5.56" height="5.56"/>
  <rect class="st2" x="48.23" y="44.78" width="5.56" height="5.56"/>
  <rect class="st2" x="42.67" y="44.78" width="5.56" height="5.56"/>
  <rect class="st2" x="37.11" y="44.78" width="5.56" height="5.56"/>
  <rect class="st2" x="31.56" y="44.78" width="5.56" height="5.56"/>
  <rect class="st6" x="26" y="44.78" width="5.56" height="5.56"/>
  <rect class="st6" x="20.45" y="44.78" width="5.56" height="5.56"/>
  <rect class="st2" x="14.89" y="44.78" width="5.56" height="5.56"/>
  <rect class="st2" x="9.34" y="44.78" width="5.56" height="5.56"/>
  <rect class="st4" x="3.78" y="44.78" width="5.56" height="5.56"/>
  <rect class="st4" x="76" y="39.22" width="5.56" height="5.56"/>
  <rect class="st5" x="70.45" y="39.22" width="5.56" height="5.56"/>
  <rect class="st2" x="64.89" y="39.22" width="5.56" height="5.56"/>
  <rect class="st2" x="59.34" y="39.22" width="5.56" height="5.56"/>
  <rect x="53.78" y="39.22" width="5.56" height="5.56"/>
  <rect x="48.23" y="39.22" width="5.56" height="5.56"/>
  <rect class="st2" x="42.67" y="39.22" width="5.56" height="5.56"/>
  <rect class="st2" x="37.11" y="39.22" width="5.56" height="5.56"/>
  <rect x="31.56" y="39.22" width="5.56" height="5.56"/>
  <rect x="26" y="39.22" width="5.56" height="5.56"/>
  <rect class="st2" x="20.45" y="39.22" width="5.56" height="5.56"/>
  <rect class="st2" x="14.89" y="39.22" width="5.56" height="5.56"/>
  <rect class="st2" x="9.34" y="39.22" width="5.56" height="5.56"/>
  <rect class="st4" x="3.78" y="39.22" width="5.56" height="5.56"/>
  <rect class="st4" x="70.45" y="33.67" width="5.56" height="5.56"/>
  <rect class="st5" x="64.89" y="33.67" width="5.56" height="5.56"/>
  <rect class="st2" x="59.34" y="33.67" width="5.56" height="5.56"/>
  <rect class="st2" x="53.78" y="33.67" width="5.56" height="5.56"/>
  <rect class="st2" x="48.23" y="33.67" width="5.56" height="5.56"/>
  <rect class="st2" x="42.67" y="33.67" width="5.56" height="5.56"/>
  <rect class="st2" x="37.11" y="33.67" width="5.56" height="5.56"/>
  <rect class="st2" x="31.56" y="33.67" width="5.56" height="5.56"/>
  <rect class="st2" x="26" y="33.67" width="5.56" height="5.56"/>
  <rect class="st2" x="20.45" y="33.67" width="5.56" height="5.56"/>
  <rect class="st2" x="14.89" y="33.67" width="5.56" height="5.56"/>
  <rect class="st4" x="9.34" y="33.67" width="5.56" height="5.56"/>
  <rect class="st4" x="70.45" y="28.11" width="5.56" height="5.56"/>
  <rect class="st1" x="64.89" y="28.11" width="5.56" height="5.56"/>
  <rect class="st5" x="59.34" y="28.11" width="5.56" height="5.56"/>
  <rect class="st2" x="53.78" y="28.11" width="5.56" height="5.56"/>
  <rect class="st2" x="48.23" y="28.11" width="5.56" height="5.56"/>
  <rect class="st2" x="42.67" y="28.11" width="5.56" height="5.56"/>
  <rect class="st2" x="37.11" y="28.11" width="5.56" height="5.56"/>
  <rect class="st2" x="31.56" y="28.11" width="5.56" height="5.56"/>
  <rect class="st2" x="26" y="28.11" width="5.56" height="5.56"/>
  <rect class="st2" x="20.45" y="28.11" width="5.56" height="5.56"/>
  <rect class="st2" x="14.89" y="28.11" width="5.56" height="5.56"/>
  <rect class="st4" x="9.34" y="28.11" width="5.56" height="5.56"/>
  <rect class="st4" x="64.89" y="22.55" width="5.56" height="5.56"/>
  <rect class="st1" x="59.34" y="22.55" width="5.56" height="5.56"/>
  <rect class="st1" x="53.78" y="22.55" width="5.56" height="5.56"/>
  <rect class="st5" x="48.23" y="22.55" width="5.56" height="5.56"/>
  <rect class="st2" x="42.67" y="22.55" width="5.56" height="5.56"/>
  <rect class="st2" x="37.11" y="22.55" width="5.56" height="5.56"/>
  <rect class="st2" x="31.56" y="22.55" width="5.56" height="5.56"/>
  <rect class="st2" x="26" y="22.55" width="5.56" height="5.56"/>
  <rect class="st2" x="20.45" y="22.55" width="5.56" height="5.56"/>
  <rect class="st4" x="14.89" y="22.55" width="5.56" height="5.56"/>
  <rect class="st4" x="59.34" y="17" width="5.56" height="5.56"/>
  <rect class="st4" x="53.78" y="17" width="5.56" height="5.56"/>
  <rect class="st5" x="48.23" y="17" width="5.56" height="5.56"/>
  <rect class="st5" x="42.67" y="17" width="5.56" height="5.56"/>
  <rect class="st5" x="37.11" y="17" width="5.56" height="5.56"/>
  <rect class="st5" x="31.56" y="17" width="5.56" height="5.56"/>
  <rect class="st4" x="26" y="17" width="5.56" height="5.56"/>
  <rect class="st4" x="20.45" y="17" width="5.56" height="5.56"/>
  <rect class="st4" x="48.23" y="11.44" width="5.56" height="5.56"/>
  <rect class="st4" x="42.67" y="11.44" width="5.56" height="5.56"/>
  <rect class="st4" x="37.11" y="11.44" width="5.56" height="5.56"/>
  <rect class="st4" x="31.56" y="11.44" width="5.56" height="5.56"/>
</svg>