<?xml version="1.0" encoding="UTF-8"?>
<svg id="Camada_1" xmlns="http://www.w3.org/2000/svg" version="1.1" viewBox="0 0 268.53 118.06">
  <!-- Generator: Adobe Illustrator 30.0.0, SVG Export Plug-In . SVG Version: 2.1.1 Build 123)  -->
  <defs>
    <style>
      .st0 {
        fill: #111110;
      }

      .st1 {
        fill: #05a8e1;
      }
    </style>
  </defs>
  <path class="st1" d="M78.7,64.89c3.5.58,7.13,1.17,10.77-2.07.23-.21.28-.56.1-.81-.18-.26-.52-.34-.8-.2-3.13,1.6-6.31-.12-9.67-1.95-2.6-1.41-5.26-2.85-7.98-2.73,1.83-1.93,4.25-2.49,6.77-3.08,3.46-.81,7.04-1.64,9.16-6.03.14-.28.04-.62-.22-.79-.26-.17-.61-.12-.81.12-2.28,2.68-5.88,2.3-9.69,1.9-2.94-.31-5.95-.62-8.42.53.96-2.48,2.97-3.93,5.08-5.44,2.89-2.07,5.87-4.21,6.15-9.08.02-.31-.2-.59-.51-.65-.31-.06-.61.12-.7.42-1.08,3.34-4.55,4.37-8.22,5.46-2.83.84-5.74,1.7-7.57,3.71-.07-2.66,1.24-4.77,2.61-6.97,1.87-3.02,3.81-6.14,2.21-10.74-.1-.29-.41-.47-.71-.4-.31.06-.52.35-.49.66.28,3.5-2.53,5.78-5.51,8.19-2.3,1.86-4.65,3.77-5.58,6.32-1.08-2.43-.68-4.88-.26-7.44.58-3.5,1.17-7.13-2.07-10.77-.21-.23-.56-.28-.81-.1-.26.18-.34.52-.2.79,1.6,3.13-.12,6.31-1.95,9.68-1.41,2.6-2.85,5.26-2.73,7.98-1.93-1.83-2.49-4.25-3.08-6.77-.81-3.46-1.64-7.04-6.03-9.16-.28-.14-.62-.04-.79.22-.17.26-.12.61.12.81,2.68,2.28,2.3,5.88,1.9,9.69-.31,2.94-.62,5.95.53,8.42-2.48-.96-3.93-2.97-5.44-5.08-2.07-2.89-4.21-5.87-9.08-6.15-.31-.02-.59.2-.65.51-.06.31.12.61.42.7,3.34,1.08,4.37,4.55,5.46,8.22.84,2.83,1.7,5.74,3.71,7.57-2.66.07-4.77-1.24-6.97-2.61-3.02-1.87-6.14-3.81-10.74-2.21-.29.1-.47.41-.4.71.06.31.35.51.66.49,3.5-.28,5.78,2.53,8.19,5.51,1.86,2.3,3.77,4.65,6.32,5.58-2.43,1.08-4.88.68-7.43.26-3.5-.58-7.13-1.17-10.77,2.07-.23.21-.28.56-.1.81.18.26.52.34.79.2,3.13-1.6,6.31.12,9.68,1.95,2.49,1.35,5.05,2.74,7.65,2.74.11,0,.22,0,.32,0-1.83,1.93-4.25,2.49-6.77,3.08-3.46.81-7.04,1.64-9.16,6.03-.14.28-.04.62.22.79.1.07.22.1.34.1.18,0,.35-.08.47-.22,2.28-2.68,5.88-2.3,9.69-1.9,2.94.31,5.95.62,8.42-.53-.96,2.48-2.97,3.93-5.08,5.44-2.89,2.07-5.87,4.21-6.15,9.08-.02.31.2.59.51.65.04,0,.08.01.11.01.26,0,.51-.17.59-.43,1.08-3.34,4.55-4.37,8.22-5.46,2.83-.84,5.74-1.7,7.57-3.71.07,2.66-1.24,4.77-2.61,6.97-1.87,3.02-3.81,6.14-2.21,10.74.09.25.33.42.59.42.04,0,.09,0,.13-.01.31-.06.52-.35.49-.66-.28-3.5,2.53-5.78,5.51-8.19,2.3-1.86,4.65-3.77,5.58-6.32,1.08,2.43.68,4.88.26,7.44-.58,3.5-1.17,7.13,2.07,10.77.12.14.29.21.46.21.12,0,.24-.04.35-.11.26-.18.34-.52.2-.8-1.6-3.13.12-6.31,1.95-9.68,1.41-2.6,2.85-5.26,2.73-7.98,1.93,1.83,2.49,4.25,3.08,6.77.81,3.46,1.64,7.04,6.03,9.16.09.04.18.06.27.06.2,0,.4-.1.52-.28.17-.26.12-.61-.12-.81-2.68-2.28-2.3-5.88-1.9-9.69.31-2.94.62-5.95-.53-8.41,2.48.96,3.93,2.97,5.44,5.08,2.07,2.89,4.21,5.87,9.08,6.15.01,0,.02,0,.04,0,.3,0,.55-.21.61-.51.06-.31-.12-.61-.42-.7-3.34-1.08-4.37-4.55-5.46-8.22-.84-2.83-1.7-5.74-3.71-7.57,2.66-.07,4.77,1.24,6.97,2.61,2.23,1.39,4.52,2.81,7.41,2.81,1.02,0,2.12-.18,3.33-.6.3-.1.47-.41.4-.71-.06-.31-.35-.52-.66-.49-3.5.28-5.78-2.53-8.19-5.51-1.86-2.3-3.77-4.65-6.32-5.58,2.43-1.08,4.88-.68,7.44-.26Z"/>
  <g>
    <g>
      <path class="st0" d="M124.28,39.06c-8.61,0-16.73,6.32-16.73,16.84s7.8,16.88,17.83,16.88c4.31,0,9.08-1.4,12.75-3.76l-3.16-5.75c-2.85,1.44-5.37,2.23-8.28,2.23-5.27,0-8.67-2.09-9.61-6.74h21.95c.13-.8.4-2.52.4-4.27,0-8.74-5.22-15.44-15.14-15.44ZM124.59,46.31c3.7,0,5.88,2.08,6.37,6.06h-13.78c.96-4.04,3.67-6.06,7.42-6.06Z"/>
      <path class="st0" d="M165.83,39.06c-3.45,0-6.99,1.68-9.58,4.05h-.24l-.69-3.27h-7.78v44.09h9.54v-9.42l-.45-5.22h.22c2.29,2.22,5.08,3.48,7.9,3.48,7.21,0,13.95-6.34,13.95-17.36,0-9.93-4.86-16.36-12.89-16.36ZM162.6,64.96c-1.67,0-3.71-.55-5.51-2.13v-12.97c2.01-2.12,3.89-2.98,5.93-2.98,4.04,0,5.93,2.87,5.93,8.64,0,6.66-2.84,9.45-6.36,9.45Z"/>
      <path class="st0" d="M202.06,39.06c-8.61,0-16.73,6.32-16.73,16.84s7.8,16.88,17.83,16.88c4.31,0,9.08-1.4,12.75-3.76l-3.16-5.75c-2.85,1.44-5.37,2.23-8.28,2.23-5.27,0-8.67-2.09-9.61-6.74h21.95c.13-.8.4-2.52.4-4.27,0-8.74-5.22-15.44-15.14-15.44ZM202.38,46.31c3.7,0,5.88,2.08,6.37,6.06h-13.78c.96-4.04,3.67-6.06,7.42-6.06Z"/>
      <path class="st0" d="M252.26,62.01c-2.31,1.6-5.09,3.07-8.46,3.07-5.28,0-9.04-3.58-9.04-9.14s3.82-9.18,9.35-9.18c2.42,0,4.67.8,7.13,2.58l4.39-5.91c-2.69-2.57-6.96-4.37-12.04-4.37-9.9,0-18.6,6.17-18.6,16.88s7.76,16.84,17.9,16.84c4.39,0,9.34-1.49,13.21-4.74l-3.85-6.03Z"/>
    </g>
    <path class="st0" d="M264.12,45.75c0,1.45-1.17,2.68-2.67,2.68s-2.65-1.21-2.65-2.66,1.16-2.68,2.66-2.68,2.65,1.2,2.65,2.66ZM263.67,45.75c0-1.2-.96-2.19-2.21-2.19s-2.21,1.01-2.21,2.21.95,2.19,2.2,2.19,2.22-1.01,2.22-2.21ZM262.04,46.12l.61.89h-.52l-.49-.8h-.74v.8h-.45v-2.66h1.07c.69,0,1.08.33,1.08.91,0,.42-.2.71-.56.86ZM261.52,45.83c.41,0,.65-.2.65-.56s-.24-.54-.65-.54h-.62v1.1h.62Z"/>
  </g>
</svg>