<?xml version="1.0" encoding="UTF-8"?>
<svg id="Camada_1" xmlns="http://www.w3.org/2000/svg" version="1.1" viewBox="0 0 138.04 127.56">
  <!-- Generator: Adobe Illustrator 30.0.0, SVG Export Plug-In . SVG Version: 2.1.1 Build 123)  -->
  <defs>
    <style>
      .st0 {
        fill: #fff;
        fill-rule: evenodd;
      }

      .st1 {
        fill: #79ce4d;
      }
    </style>
  </defs>
  <circle class="st1" cx="70.14" cy="67.04" r="53.5"/>
  <g id="WA_Logo">
    <path class="st0" d="M88.64,48.43c-4.91-4.91-11.44-7.62-18.39-7.62-14.33,0-25.99,11.66-26,26,0,4.58,1.2,9.05,3.47,13l-3.69,13.47,13.78-3.62c3.8,2.07,8.07,3.16,12.42,3.17h.01c14.33,0,25.99-11.66,26-26,0-6.94-2.7-13.48-7.61-18.39ZM70.25,88.43h0c-3.88,0-7.68-1.04-11-3.01l-.79-.47-8.18,2.14,2.18-7.97-.51-.82c-2.16-3.44-3.31-7.42-3.3-11.5,0-11.91,9.7-21.61,21.62-21.61,5.77,0,11.2,2.25,15.28,6.34,4.08,4.09,6.32,9.51,6.32,15.29,0,11.92-9.7,21.61-21.61,21.61ZM82.1,72.25c-.65-.33-3.84-1.9-4.44-2.11-.59-.22-1.03-.33-1.46.32-.44.65-1.68,2.11-2.06,2.55-.38.43-.76.49-1.41.16-.65-.33-2.74-1.01-5.22-3.22-1.93-1.72-3.24-3.85-3.61-4.5s-.04-1,.28-1.32c.29-.29.65-.76.97-1.14.33-.38.44-.65.65-1.08.22-.43.11-.81-.05-1.14-.16-.32-1.46-3.52-2-4.82-.53-1.27-1.06-1.1-1.46-1.11-.38-.02-.81-.02-1.25-.02s-1.14.16-1.73.81c-.59.65-2.27,2.22-2.27,5.42s2.33,6.29,2.65,6.72,4.58,7,11.1,9.81c1.55.67,2.76,1.07,3.7,1.37,1.56.49,2.97.42,4.09.26,1.25-.19,3.84-1.57,4.39-3.09.54-1.52.54-2.82.38-3.09-.16-.27-.59-.44-1.24-.76Z"/>
  </g>
</svg>