<?xml version="1.0" encoding="UTF-8"?>
<svg xmlns="http://www.w3.org/2000/svg" xmlns:xlink="http://www.w3.org/1999/xlink" viewBox="0 0 117 40">
  <defs>
    <style>
      .cls-1 {
        clip-path: url(#clippath);
      }

      .cls-2 {
        fill: none;
      }

      .cls-2, .cls-3, .cls-4 {
        stroke-width: 0px;
      }

      .cls-5 {
        mix-blend-mode: multiply;
        opacity: .1;
      }

      .cls-6 {
        isolation: isolate;
      }

      .cls-3 {
        fill: #6ea2ff;
      }

      .cls-4 {
        fill: #3d4043;
      }
    </style>
    <clipPath id="clippath">
      <path class="cls-2" d="M-175.89,142.4l-349.78,24.84c-11.26.8-20.83-8.12-20.83-19.4V-108.23c0-10.53,8.53-19.06,19.06-19.06H-176.72c11.17,0,20.22,9.05,20.22,20.22V121.58c0,10.95-8.47,20.04-19.39,20.82Z"/>
    </clipPath>
  </defs>
  <g class="cls-6">
    <g id="Camada_1" data-name="Camada 1">
      <g class="cls-1">
        <g class="cls-5">
          <path class="cls-3" d="M20.5,65.58c29.4,4.84,59.8,9.85,90.33-17.35,1.96-1.74,2.31-4.67.83-6.83-1.48-2.16-4.34-2.88-6.67-1.69-26.23,13.44-52.91-1.05-81.16-16.39C2.04,11.5-20.3-.62-43.08.41-27.71-15.76-7.44-20.51,13.72-25.45c29.01-6.78,59.01-13.79,76.81-50.6,1.14-2.36.35-5.2-1.85-6.63-2.19-1.43-5.11-1.01-6.81.99C62.79-59.23,32.59-62.4.63-65.76c-24.66-2.59-49.94-5.24-70.59,4.43,8.02-20.82,24.93-32.96,42.59-45.63,24.21-17.36,49.25-35.32,51.6-76.14.15-2.62-1.67-4.94-4.24-5.42-2.57-.48-5.11,1.03-5.91,3.52-9.04,28.05-38.15,36.67-68.97,45.8-23.77,7.04-48.14,14.27-63.52,31.1-.56-22.3,10.41-39.99,21.88-58.45,15.72-25.31,31.98-51.48,18.54-90.09-.86-2.47-3.43-3.92-5.99-3.38-2.56.54-4.33,2.9-4.11,5.51,2.38,29.38-21.22,48.48-46.2,68.71-19.27,15.6-39.01,31.61-46.78,53.05-9.05-20.39-5.68-40.93-2.15-62.38,4.84-29.4,9.85-59.8-17.35-90.33-1.74-1.96-4.67-2.32-6.83-.83-2.16,1.48-2.88,4.34-1.69,6.67,13.44,26.23-1.05,52.91-16.39,81.16-11.83,21.79-23.95,44.13-22.92,66.91-16.17-15.38-20.91-35.64-25.86-56.81-6.78-29.01-13.79-59.01-50.6-76.81-2.36-1.14-5.2-.35-6.63,1.84-1.43,2.2-1.01,5.11.99,6.81,22.46,19.09,19.28,49.28,15.92,81.25-2.59,24.66-5.24,49.93,4.43,70.59-20.82-8.02-32.96-24.93-45.63-42.59-17.36-24.21-35.32-49.25-76.14-51.6-2.61-.15-4.94,1.67-5.42,4.24-.48,2.58,1.03,5.11,3.52,5.91,28.05,9.04,36.67,38.15,45.8,68.97,7.04,23.77,14.27,48.14,31.11,63.52-22.3.56-39.99-10.41-58.45-21.88-25.31-15.72-51.48-31.98-90.09-18.54-2.47.86-3.92,3.43-3.38,5.99.54,2.56,2.9,4.32,5.51,4.11,29.38-2.38,48.48,21.21,68.71,46.2,15.6,19.27,31.59,39.02,53.03,46.79-20.39,9.04-40.92,5.67-62.36,2.14-29.4-4.84-59.8-9.85-90.33,17.35-1.96,1.74-2.31,4.67-.83,6.83,1.48,2.16,4.34,2.88,6.67,1.69,26.23-13.44,52.91,1.05,81.16,16.39,20.92,11.36,42.35,23,64.19,23,.91,0,1.81-.03,2.72-.07-15.38,16.17-35.64,20.91-56.81,25.86-29.01,6.78-59.01,13.79-76.81,50.6-1.14,2.36-.35,5.2,1.84,6.63.87.57,1.86.84,2.84.84,1.48,0,2.95-.63,3.97-1.83,19.09-22.46,49.28-19.28,81.25-15.92,24.66,2.59,49.93,5.24,70.59-4.43-8.02,20.82-24.93,32.96-42.59,45.63-24.21,17.36-49.25,35.32-51.6,76.14-.15,2.62,1.67,4.94,4.24,5.42.32.06.64.09.96.09,2.22,0,4.25-1.43,4.95-3.61,9.04-28.05,38.15-36.67,68.97-45.8,23.77-7.04,48.14-14.27,63.52-31.11.56,22.3-10.41,39.99-21.88,58.45-15.72,25.31-31.98,51.48-18.54,90.09.74,2.13,2.74,3.49,4.91,3.49.36,0,.72-.04,1.08-.11,2.56-.54,4.33-2.9,4.11-5.52-2.38-29.38,21.21-48.48,46.2-68.71,19.27-15.6,39.01-31.6,46.78-53.05,9.05,20.39,5.68,40.93,2.15,62.38-4.84,29.4-9.85,59.8,17.35,90.33,1.02,1.15,2.45,1.74,3.89,1.74,1.02,0,2.04-.3,2.94-.91,2.16-1.48,2.89-4.34,1.69-6.67-13.44-26.23,1.05-52.91,16.39-81.16,11.83-21.79,23.95-44.13,22.92-66.91,16.17,15.37,20.91,35.64,25.86,56.81,6.78,29.01,13.79,59.02,50.6,76.81.73.35,1.5.52,2.26.52,1.71,0,3.38-.85,4.36-2.36,1.43-2.19,1.01-5.11-.99-6.81-22.46-19.09-19.28-49.28-15.92-81.25,2.59-24.66,5.24-49.93-4.43-70.59,20.82,8.02,32.96,24.93,45.63,42.59,17.36,24.21,35.32,49.25,76.14,51.6.1,0,.2,0,.3,0,2.49,0,4.65-1.78,5.11-4.25.48-2.58-1.03-5.11-3.52-5.91-28.05-9.04-36.67-38.15-45.8-68.97-7.04-23.77-14.27-48.14-31.11-63.52,22.3-.56,39.99,10.42,58.45,21.88,18.7,11.62,37.87,23.53,62.19,23.53,8.59,0,17.82-1.49,27.89-4.99,2.47-.86,3.92-3.43,3.38-5.99-.54-2.56-2.91-4.33-5.52-4.11-29.37,2.38-48.48-21.22-68.71-46.2-15.6-19.27-31.6-39.01-53.04-46.78,20.39-9.05,40.93-5.68,62.37-2.15Z"/>
          <g>
            <path class="cls-3" d="M-23.35-2.79c.16,0,.31-.02.46-.03.24.49.69.88,1.4.9C17.17-.67,41.34,46.97,82.56,38.51c.46-.09.47-.86,0-.94-9.4-1.67-18.67-2.22-27.78-5.39-10.41-3.62-19.58-9.6-28.49-15.96C11.81,5.9-3.04-4.79-21.49-5.25c-.9-.02-1.4.56-1.54,1.24-.15.03-.31.05-.46.09-.62.15-.49,1.13.15,1.12Z"/>
            <path class="cls-3" d="M99.74,36.08c-1.03.1-2.06.02-3.1.14-.99.12-1.2,1.37-.23,1.73,2.23.84,5.31-.21,6.97-1.82.37-.36,0-1.03-.51-.87-1.06.33-2.01.71-3.13.82Z"/>
            <path class="cls-3" d="M91.07,37.82c-.67.3-1.84.04-2.54-.08-.7-.13-1.4-.17-2.1-.26-.68-.08-1.05.92-.56,1.35.89.77,1.83,1.11,3,.97.47-.06.92-.16,1.36-.36.47-.22.84-.56,1.32-.79.56-.27.07-1.07-.48-.82Z"/>
            <path class="cls-3" d="M74.94,31.84c1.54.12,1.9-2.43.37-2.72-11.71-2.17-22.05-6.42-32.19-12.69C33.89,10.72,25.18,3.99,15.35-.7c-.6-.29-1.04.49-.52.88,17.44,13.04,37.47,29.93,60.1,31.65Z"/>
            <path class="cls-3" d="M92.89,29.72c-2.67-1.43-5.75-.76-8.45.13-.45.15-.52.88,0,.99,2.66.55,5.56,1.34,8.25.46.67-.22.89-1.21.21-1.57Z"/>
            <path class="cls-3" d="M101.67,28.36c-1.52.32-3.13.68-4.68.63-.53-.02-.7.72-.26.97,1.98,1.17,3.84,1.57,6.1.98.45-.12.87-.51.97-.97.31-1.43-.94-1.86-2.13-1.61Z"/>
            <path class="cls-3" d="M62.54,16.93C49.45,10.4,37.04,4.23,24.73-3.74c-.48-.31-1.02.4-.61.78,10.17,9.58,24.06,18.14,37.68,21.63,1.01.26,1.73-1.24.73-1.74Z"/>
            <path class="cls-3" d="M69.78,20.38c-.61-.05-.61.79-.13.98,10.03,4,21.89,4.17,32.48,3.04,1.64-.17,1.69-2.73,0-2.6-11.04.85-21.38-.57-32.35-1.42Z"/>
            <path class="cls-3" d="M84.75,15.21c1.31-.13,1.32-1.92,0-2.05-17.2-1.59-31.52-11.27-47.98-15.63-.56-.15-.9.64-.39.93,7.64,4.49,16.14,7.74,24.33,11.12,7.58,3.13,15.71,6.44,24.05,5.62Z"/>
            <path class="cls-3" d="M89.58,14.08c-.42.11-.52.74-.13.96,2.95,1.57,7.8,1.59,10.94.61,1.28-.4,1.03-2.27-.31-2.33-1.84-.07-3.72.3-5.58.35-1.66.04-3.31-.02-4.92.41Z"/>
            <path class="cls-3" d="M94.02,8.33c.58-.1.42-.99-.14-1-7.8-.16-15.73-3.63-23.09-6.01-7.39-2.38-14.67-5.4-22.15-7.41-.81-.22-1.39,1.01-.59,1.4,7.83,3.8,16.5,6.32,24.8,8.88,6.64,2.04,14.12,5.35,21.16,4.14Z"/>
            <path class="cls-3" d="M97.32,2.64c1.42-.29.95-2.26-.32-2.37-4.25-.37-8.63.32-12.81-1.03-.59-.19-.82.71-.25.92,4.27,1.54,8.72,3.43,13.38,2.48Z"/>
          </g>
        </g>
      </g>
      <g>
        <g>
          <path class="cls-4" d="M64.4,15.23s-.08-.01-.11-.03c-.05-.03-.08-.09-.08-.15V5.28c0-.08.05-.15.13-.17l5.68-1.87c.1-.03.2.02.23.12s-.02.2-.12.23l-5.56,1.83v9.39l6.47-2.14c.1-.03.2.02.23.12.03.1-.02.2-.12.23l-6.71,2.22s-.04,0-.06,0Z"/>
          <path class="cls-4" d="M56.3,17.9c-.05,0-.11-.02-.14-.07-.05-.06-.05-.14-.02-.21l6.71-11.64-8.25,2.72c-.1.03-.2-.02-.23-.12-.03-.1.02-.2.12-.23l8.7-2.87c.07-.02.15,0,.2.06s.05.14.02.21l-6.71,11.64,7.65-2.52c.1-.03.2.02.23.12s-.02.2-.12.23l-8.1,2.67s-.04,0-.06,0Z"/>
          <path class="cls-4" d="M47.03,15.77c-.1,0-.18-.08-.18-.18V6.09c0-.1.08-.18.18-.18s.18.08.18.18v9.5c0,.1-.08.18-.18.18Z"/>
          <path class="cls-4" d="M53.16,13.75c-.1,0-.18-.08-.18-.18V4.06c0-.1.08-.18.18-.18s.18.08.18.18v9.5c0,.1-.08.18-.18.18Z"/>
          <path class="cls-4" d="M38.3,18.65c-.1,0-.18-.08-.18-.18v-9.5c0-.1.08-.18.18-.18s.18.08.18.18v9.5c0,.1-.08.18-.18.18Z"/>
          <path class="cls-4" d="M45.96,16.13s-.09-.02-.13-.05l-3.47-3.38c-.07-.07-.07-.19,0-.26.07-.07.19-.07.26,0l3.47,3.38c.07.07.07.19,0,.26-.04.04-.08.06-.13.06Z"/>
          <path class="cls-4" d="M39.64,18.21c-.1,0-.18-.08-.18-.18v-4.57h0v-4.93c0-.08.05-.15.13-.17l4.7-1.55c.36-.12.66-.1.89.07.38.28.37.87.37.89v2.44s.04,1.48-1.22,1.9l-4.5,1.48v4.44c0,.1-.08.18-.18.18ZM39.82,8.66v4.54l4.38-1.45c1-.34.97-1.5.97-1.55v-2.45c0-.12-.03-.45-.23-.59-.13-.09-.31-.1-.56-.02l-4.57,1.51Z"/>
          <path class="cls-4" d="M54.55,13.29c-.1,0-.18-.08-.18-.18V3.61c0-.08.05-.15.13-.17l4.88-1.61c.34-.11.62-.09.83.08.41.32.39,1.01.39,1.09v7.6c0,.1-.08.18-.18.18s-.18-.08-.18-.18V2.97c0-.17-.02-.62-.24-.79-.11-.09-.28-.09-.49-.02l-4.76,1.57v9.37c0,.1-.08.18-.18.18Z"/>
          <path class="cls-4" d="M64.4,10.04c-.08,0-.15-.05-.17-.13-.03-.1.02-.2.12-.23l5.26-1.74c.1-.03.2.02.23.12.03.1-.02.2-.12.23l-5.26,1.74s-.04,0-.06,0Z"/>
          <path class="cls-4" d="M64.39,3.6c-.08,0-.15-.05-.17-.12-.03-.1.02-.2.11-.23l5.72-1.92c.1-.03.2.02.23.11.03.1-.02.2-.11.23l-5.72,1.92s-.04,0-.06,0Z"/>
          <path class="cls-4" d="M32.22,16.09c-.08,0-.15-.05-.17-.13-.03-.1.02-.2.12-.23l6.09-2.01c.1-.03.2.02.23.12.03.1-.02.2-.12.23l-6.09,2.01s-.04,0-.06,0Z"/>
          <path class="cls-4" d="M32.22,29.8c-.1,0-.18-.08-.18-.18V12.18c0-.06.04-1.32,1.09-1.69l5.12-1.69c.1-.03.2.02.23.12s-.02.2-.12.23l-5.12,1.69c-.81.28-.84,1.34-.84,1.35v17.44c0,.1-.08.18-.18.18Z"/>
          <path class="cls-4" d="M50.45,8.27s-.06,0-.09-.03l-3.42-2c-.09-.05-.12-.16-.07-.25.05-.09.16-.12.25-.07l3.27,1.92,2.61-3.89c.06-.08.17-.11.25-.05.08.06.11.17.05.25l-2.71,4.03c-.04.05-.09.08-.15.08Z"/>
          <path class="cls-4" d="M71.11,13.01c-.1,0-.18-.08-.18-.18V3.07c0-.1.08-.18.18-.18s.18.08.18.18v9.76c0,.1-.08.18-.18.18Z"/>
          <path class="cls-4" d="M77.34,9.01h0c-.1,0-.18-.08-.18-.18V1.01c0-.1.08-.18.18-.18h0c.1,0,.18.08.18.18v7.82c0,.1-.08.18-.18.18Z"/>
          <path class="cls-4" d="M74.36,5.39s-.07-.01-.11-.03c-.08-.06-.1-.17-.04-.25l2.99-4.2c.06-.08.17-.1.25-.04.08.06.1.17.04.25l-2.99,4.2s-.09.08-.15.08Z"/>
          <path class="cls-4" d="M54.68,37.38c-.1,0-.18-.08-.18-.18v-9.14c0-.1.08-.18.18-.18s.18.08.18.18v9.14c0,.1-.08.18-.18.18Z"/>
          <path class="cls-4" d="M38.3,18.65c-.08,0-.15-.05-.17-.13-.03-.1.02-.2.12-.23l1.34-.44c.1-.03.2.02.23.12.03.1-.02.2-.12.23l-1.34.44s-.04,0-.06,0Z"/>
          <path class="cls-4" d="M45.96,16.13c-.08,0-.15-.05-.17-.13-.03-.1.02-.2.12-.23l1.08-.36c.1-.03.2.02.23.12.03.1-.02.2-.12.23l-1.08.36s-.04,0-.06,0Z"/>
          <path class="cls-4" d="M53.16,13.75c-.08,0-.15-.05-.17-.13-.03-.1.02-.2.12-.23l1.39-.46c.1-.03.2.02.23.12.03.1-.02.2-.12.23l-1.39.46s-.04,0-.06,0Z"/>
          <g>
            <path class="cls-4" d="M74.56,15.83c-.1,0-.18-.08-.18-.18V7.3c0-.1.08-.18.18-.18s.18.08.18.18v8.35c0,.1-.08.18-.18.18Z"/>
            <g>
              <path class="cls-4" d="M78.91,18.14c-.21,0-.37-.09-.38-.1l-4.06-2.23c-.09-.05-.12-.16-.07-.25.05-.09.16-.12.25-.07l4.06,2.23s.19.1.33.02c.14-.08.21-.34.21-.73v-5.46c0-.7,0-1.5-.61-1.8l-4.17-2.29c-.09-.05-.12-.16-.07-.25.05-.09.16-.12.25-.07l4.16,2.29c.81.41.8,1.36.8,2.13v5.46c0,.54-.13.89-.39,1.04-.1.06-.21.08-.3.08Z"/>
              <path class="cls-4" d="M85.29,18.14c-.1,0-.18-.08-.18-.18v-3.22c0-.77-.04-1.48-.64-1.78-.04-.02-2.77-1.52-3.94-2.16-.09-.05-.12-.16-.07-.25.05-.09.16-.12.25-.07,1.32.73,3.84,2.11,3.92,2.16.85.43.85,1.48.84,2.1v3.22c0,.1-.08.18-.18.18Z"/>
              <path class="cls-4" d="M81.21,19.5s-.08-.01-.11-.04c-.75-.56-.66-1.59-.66-1.63v-3.06c0-.06.03-.12.09-.16.06-.03.12-.03.18,0l4.67,2.57c.09.05.12.16.07.25-.05.09-.16.12-.25.07l-4.4-2.42v2.77s-.07.89.52,1.32c.08.06.1.17.04.26-.04.05-.09.07-.15.07Z"/>
            </g>
          </g>
          <path class="cls-4" d="M44.61,36.62c-.1,0-.18-.08-.18-.18v-2.61c0-2.19,0-4.62,0-4.78v-.08c0-.78.01-1.6-.65-1.93l-3.77-2.07v8.83c0,.1-.08.18-.18.18s-.18-.08-.18-.18v-9.14c0-.06.03-.12.09-.16.06-.03.12-.03.18,0l4.03,2.22c.86.43.86,1.44.85,2.25v.08c0,.16,0,2.59,0,4.78v2.61c0,.1-.08.18-.18.18Z"/>
          <path class="cls-4" d="M71.57,31.8c-.1,0-.18-.08-.18-.18v-9.14c0-.08.05-.15.13-.17,0,0,3.38-1.1,4.51-1.48.34-.11.63-.09.85.07.38.28.37.88.37.9v8c0,.1-.08.18-.18.18s-.18-.08-.18-.18v-8c0-.12-.04-.47-.23-.61-.12-.09-.29-.09-.51-.02-1,.33-3.76,1.23-4.39,1.44v9c0,.1-.08.18-.18.18Z"/>
          <path class="cls-4" d="M64.79,34.04s-.08-.01-.11-.03c-.05-.03-.08-.09-.08-.15v-9.13c0-.08.05-.15.13-.17l4.36-1.44c.34-.11.62-.09.83.07.4.29.39.93.39.96v6.82c.02.42-.21,1.33-1.18,1.65,0,0,0,0,0,0l-4.29,1.41s-.04,0-.06,0ZM64.97,24.86v8.74l4.05-1.33c.95-.32.93-1.26.93-1.3v-6.83c0-.14-.04-.51-.24-.66-.12-.08-.28-.09-.5-.02l-4.24,1.4ZM69.08,32.44h0,0Z"/>
          <path class="cls-4" d="M78.45,29.53s-.08-.01-.11-.03c-.05-.03-.08-.09-.08-.15v-9.14c0-.08.05-.15.13-.17,0,0,3.12-1.02,4.25-1.39.34-.11.61-.09.82.07.38.29.36.9.36.97v6.73c.02.46-.21,1.42-1.18,1.74-.06.02-3.96,1.31-4.13,1.36-.02,0-.04,0-.06,0ZM78.63,20.34v8.76c.87-.29,3.84-1.27,3.89-1.28,0,0,0,0,0,0,.95-.32.94-1.35.94-1.39v-6.75c0-.14-.02-.52-.22-.67-.11-.08-.27-.09-.49-.02-.99.33-3.53,1.16-4.12,1.35Z"/>
          <path class="cls-4" d="M70.13,27.53c-.08,0-.15-.05-.17-.13-.03-.1.02-.2.12-.23l6.93-2.29c.1-.03.2.02.23.12.03.1-.02.2-.12.23l-6.93,2.29s-.04,0-.06,0Z"/>
          <path class="cls-4" d="M85.29,22.52c-.08,0-.15-.05-.17-.13-.03-.1.02-.2.12-.23l4.58-1.51c.1-.03.2.02.23.12.03.1-.02.2-.12.23l-4.58,1.51s-.04,0-.06,0Z"/>
          <path class="cls-4" d="M38.31,33.16c-.1,0-.18-.08-.18-.18v-9.14c0-.1.08-.18.18-.18s.18.08.18.18v9.14c0,.1-.08.18-.18.18Z"/>
          <path class="cls-4" d="M63.11,34.59c-.1,0-.18-.08-.18-.18v-9.13c0-.1.08-.18.18-.18s.18.08.18.18v9.13c0,.1-.08.18-.18.18Z"/>
          <path class="cls-4" d="M85.29,27.27s-.08-.01-.11-.03c-.05-.03-.08-.09-.08-.15v-9.13c0-.08.05-.15.13-.17l4.58-1.52c.1-.03.2.02.23.12.03.1-.02.2-.12.23l-4.46,1.47v8.75l4.34-1.43c.1-.03.2.02.23.12.03.1-.02.2-.12.23l-4.58,1.51s-.04,0-.06,0Z"/>
          <path class="cls-4" d="M49.25,39.17c-.1,0-.18-.08-.18-.18v-9.14c0-.1.08-.18.18-.18s.18.08.18.18v9.14c0,.1-.08.18-.18.18Z"/>
          <path class="cls-4" d="M44.61,31.86s-.06,0-.09-.02l-6.29-3.47c-.09-.05-.12-.16-.07-.25.05-.09.16-.12.25-.07l6.29,3.47c.09.05.12.16.07.25-.03.06-.1.09-.16.09Z"/>
          <path class="cls-4" d="M49.25,30.04c-.08,0-.15-.05-.17-.13-.03-.1.02-.2.12-.23l5.43-1.79c.1-.03.2.02.23.12s-.02.2-.12.23l-5.43,1.79s-.04,0-.06,0Z"/>
          <path class="cls-4" d="M49.25,39.17s-.06,0-.09-.02l-4.64-2.55c-.09-.05-.12-.16-.07-.25.05-.09.16-.12.25-.07l4.64,2.55c.09.05.12.16.07.25-.03.06-.1.09-.16.09Z"/>
          <path class="cls-4" d="M49.25,30.04s-.06,0-.09-.02l-3.69-2.03c-.09-.05-.12-.16-.07-.25.05-.09.16-.12.25-.07l3.69,2.03c.09.05.12.16.07.25-.03.06-.1.09-.16.09Z"/>
          <path class="cls-4" d="M85.29,21.73s-.06,0-.09-.02l-1.65-.91c-.09-.05-.12-.16-.07-.25.05-.09.16-.12.25-.07l1.65.91c.09.05.12.16.07.25-.03.06-.1.09-.16.09Z"/>
          <path class="cls-4" d="M36.29,27.18c-.14,0-.31-.04-.5-.14l-3.66-2.01c-.06-.03-.09-.09-.09-.16v-4.38c0-.06.03-.12.09-.16.06-.03.12-.03.18,0,1.35.75,3.93,2.17,4.02,2.21.86.43.85,1.44.85,2.26v1.17c0,.5-.2.93-.51,1.11-.09.05-.22.1-.38.1ZM32.4,24.76l3.56,1.96c.2.11.38.13.51.05.2-.12.33-.44.33-.8v-1.17c0-.75.01-1.61-.64-1.93-.05-.02-2.62-1.44-3.76-2.07v3.97Z"/>
          <path class="cls-4" d="M59.22,35.87c-.07,0-.14-.05-.17-.12l-3.19-8.07c-.04-.09,0-.2.1-.24.09-.04.2,0,.24.1l2.98,7.53,2.21-9.34c.02-.1.12-.16.22-.14.1.02.16.12.14.22l-2.34,9.9c-.02.08-.08.13-.16.14,0,0,0,0-.01,0Z"/>
          <path class="cls-4" d="M38.31,33.16c-.07,0-.13-.04-.16-.1l-3.55-6.71c-.05-.09-.01-.2.08-.25.09-.05.2-.01.25.08l3.55,6.71c.05.09.01.2-.08.25-.03.01-.06.02-.09.02Z"/>
          <path class="cls-4" d="M32.13,29.78s-3.25-1.79-4.33-2.38c-.62-.34-.86-1.03-.86-1.38v-6.79c0-.5.14-.85.41-1.04.39-.26.9-.08,1-.04,0,0,.02,0,.02.01l2.88,1.58c.09.05.12.16.07.25-.05.09-.16.12-.25.07l-2.87-1.58c-.07-.03-.42-.15-.65,0-.17.11-.25.36-.25.73v6.79c0,.15.11.76.67,1.06,1.07.59,4.33,2.38,4.33,2.38l-.18.32Z"/>
          <path class="cls-4" d="M61.56,25.97c-.08,0-.15-.05-.17-.13-.03-.1.02-.2.12-.23l1.55-.51c.1-.03.2.02.23.12.03.1-.02.2-.12.23l-1.55.51s-.04,0-.06,0Z"/>
          <path class="cls-4" d="M63.11,34.59c-.08,0-.15-.05-.17-.13-.03-.1.02-.2.12-.23l1.68-.55c.1-.03.2.02.23.12.03.1-.02.2-.12.23l-1.68.55s-.04,0-.06,0Z"/>
          <path class="cls-4" d="M77.06,29.99c-.08,0-.15-.05-.17-.13-.03-.1.02-.2.12-.23l1.39-.46c.1-.03.2.02.23.12.03.1-.02.2-.12.23l-1.39.46s-.04,0-.06,0Z"/>
          <path class="cls-4" d="M74.36,5.39s-.07,0-.1-.03l-3.25-2.14c-.08-.06-.11-.17-.05-.25.06-.08.17-.11.25-.05l3.25,2.14c.08.06.11.17.05.25-.04.05-.09.08-.15.08Z"/>
        </g>
        <g>
          <path class="cls-4" d="M39.6,22.6c-.12-.04-.21-.14-.27-.32-.06-.18-.09-.46-.09-.83,0-.36.03-.64.09-.86.06-.21.15-.38.28-.49.12-.11.29-.2.51-.27.09-.03.19-.05.33-.07.13-.02.25-.04.35-.04v.16c-.06,0-.16.02-.29.05-.13.03-.25.06-.37.09-.18.05-.32.13-.42.22-.1.09-.17.23-.22.41-.05.18-.07.43-.07.74,0,.33.02.57.06.73.04.15.11.25.21.28.1.03.23.02.42-.04.25-.08.48-.16.67-.25v.16c-.11.06-.22.11-.35.16-.13.05-.25.1-.35.13-.21.06-.38.08-.5.04Z"/>
          <path class="cls-4" d="M42.14,19.25l.25-.07.85,2.42-.2.06-.27-.75-1.03.31-.27.91-.2.06.86-2.94ZM42.71,20.73l-.45-1.33-.47,1.61.92-.28Z"/>
          <path class="cls-4" d="M43.83,18.74l.94-.28c.18-.05.33-.05.44.03.11.07.17.26.17.56,0,.27-.05.47-.14.61-.09.13-.21.23-.35.3l.51,1-.19.06-.5-.98c-.21.06-.44.13-.7.19v1.15s-.19.06-.19.06v-2.68ZM44.75,19.84c.14-.04.25-.12.33-.22.08-.11.12-.28.12-.52,0-.22-.04-.36-.12-.42-.08-.06-.19-.06-.32-.02l-.73.22v1.18s.73-.22.73-.22Z"/>
          <path class="cls-4" d="M46.2,20.54c-.15-.08-.22-.28-.22-.59v-1.86s.2-.06.2-.06v1.86c0,.24.05.4.17.46s.29.06.51-.01c.23-.07.4-.17.52-.3.11-.13.17-.31.17-.56v-1.86s.2-.06.2-.06v1.86c0,.31-.08.55-.23.72-.15.17-.37.3-.66.39-.29.09-.51.09-.66,0Z"/>
          <path class="cls-4" d="M49.06,17.18l.25-.07.85,2.42-.2.06-.27-.75-1.03.31-.27.91-.2.06.86-2.94ZM49.64,18.66l-.45-1.33-.47,1.61.92-.28Z"/>
          <path class="cls-4" d="M50.76,16.67l.94-.28c.18-.05.33-.05.44.03.11.07.17.26.17.56,0,.27-.05.47-.14.61-.09.13-.21.23-.35.3l.51,1-.19.06-.5-.98c-.21.06-.44.13-.7.19v1.15s-.19.06-.19.06v-2.68ZM51.68,17.76c.14-.04.25-.12.33-.22.08-.11.12-.28.12-.52,0-.22-.04-.36-.12-.42-.08-.06-.19-.06-.32-.02l-.73.22v1.18s.73-.22.73-.22Z"/>
          <path class="cls-4" d="M53.12,18.47c-.15-.08-.22-.28-.22-.59v-1.86s.2-.06.2-.06v1.86c0,.24.05.4.17.46.11.06.29.06.51-.01.23-.07.4-.17.52-.3.11-.13.17-.31.17-.56v-1.86s.2-.06.2-.06v1.86c0,.31-.08.55-.23.72-.15.17-.37.3-.66.39s-.51.09-.66,0Z"/>
        </g>
      </g>
    </g>
  </g>
</svg>