<?xml version="1.0" encoding="UTF-8"?>
<svg id="Camada_1" data-name="Camada 1" xmlns="http://www.w3.org/2000/svg" viewBox="0 0 117 40">
  <defs>
    <style>
      .cls-1 {
        fill: #164c82;
      }

      .cls-1, .cls-2 {
        fill-rule: evenodd;
        stroke-width: 0px;
      }

      .cls-2 {
        fill: #00a0e2;
      }
    </style>
  </defs>
  <path class="cls-1" d="M40.41,18.73V4.76h5.09c1.08,0,1.77.23,2.39.46,1.39.69,2.01,2.01,2.01,3.16,0,1.31-.54,2.24-1.62,2.93,1.62.39,2.55,1.47,2.55,3.16,0,1.93-1.16,3.32-3.09,3.93-.69.23-1.47.31-2.62.31h-4.71ZM46.66,7.15c-.39-.15-.77-.23-1.31-.23h-2.62v3.63h2.47c.69,0,1.16-.08,1.54-.31.53-.3.86-.86.85-1.47,0-.69-.39-1.31-.93-1.62ZM47.35,12.94c-.31-.15-.77-.23-1.54-.23h-3.09v3.86h2.85c.93,0,1.39-.15,1.77-.31.69-.31,1-.93,1-1.7s-.31-1.31-1-1.62h0ZM64.71,18.73V4.76h2.39v13.96h-2.39ZM82.07,18.73V4.76h2.39v13.96h-2.39ZM92.1,4.69c1.54,0,3.09.39,3.93.77l-.08,2.31c-1.23-.62-2.39-1-3.86-1-1.31,0-2.47.39-2.47,1.47,0,2.85,7.17,1.7,7.17,6.4,0,2.62-2.16,4.24-5.4,4.24-2.16,0-3.63-.62-4.71-1.23l1-1.93c.85.54,2.24,1.08,3.78,1.08s2.78-.54,2.78-1.77c0-3.01-7.1-1.7-7.1-6.4,0-2.55,2-3.93,4.94-3.93h0ZM108.07,18.73v-6.02h-6.71v6.02h-2.39V4.76h2.39v5.71h6.71v-5.71h2.39v13.96h-2.39ZM45.66,21.12c1.47,0,2.62.31,3.86.85l-.69,2.01c-.69-.31-1.62-.69-2.93-.69-2.62,0-4.24,2.24-4.24,4.94s1.54,5.01,4.24,5.01c1.31,0,2.24-.39,2.93-.69l.69,2.01c-1.23.54-2.39.85-3.86.85-4.17,0-6.56-2.93-6.56-7.1,0-3.93,2.39-7.17,6.56-7.17h0ZM97.81,21.12c1.54,0,2.7.31,3.86.85l-.69,2.01c-.69-.31-1.62-.69-2.93-.69-2.62,0-4.24,2.24-4.24,4.94s1.54,5.01,4.24,5.01c1.31,0,2.24-.39,2.93-.69l.69,2.01c-1.16.54-2.31.85-3.86.85-4.17,0-6.56-2.93-6.56-7.1,0-3.93,2.39-7.17,6.56-7.17h0ZM63.09,28.22c0,4.17-2.62,7.18-6.56,7.18s-6.56-2.93-6.56-7.1,2.62-7.17,6.56-7.17,6.56,2.93,6.56,7.1h0ZM60.62,28.22c0-3.01-1.77-4.94-4.09-4.94s-4.09,1.93-4.09,5.01,1.77,4.94,4.09,4.94,4.09-1.93,4.09-5.01ZM64.71,29.91v-8.64h2.39v8.72c0,2.39,1.23,3.24,3.24,3.24s3.24-.85,3.24-3.24v-8.72h2.39v8.64c0,3.78-2.16,5.48-5.63,5.48s-5.63-1.7-5.63-5.48h0ZM80.45,25.05h-.08c.08.46.08,1.23.08,1.85v8.25h-2.39v-13.89h2.62l6.4,9.49h.08c-.08-.46-.08-1.23-.08-1.85v-7.64h2.39v13.89h-2.08l-6.94-10.11ZM103.52,35.16v-13.89h2.39v13.89h-2.39ZM108.07,35.16v-13.89h2.39v11.73h5.48v2.16h-7.87ZM80.22,4.84h-11.26v2.16h4.47v11.73h2.39V7h4.4v-2.16ZM60.47,18.73c-2.01-4.24-2.55-5.4-3.39-5.4h-2.24v5.4h-2.39V4.84h4.71c3.63,0,4.94,1.85,4.94,3.93,0,1.93-1,3.16-2.55,3.63.62.39,1.31,1.7,3.63,6.33h-2.7,0ZM57.3,6.92h-2.47v4.24h2.39c1.7,0,2.47-.85,2.47-2.16,0-1.16-.69-2.08-2.39-2.08Z"/>
  <path class="cls-2" d="M17.03,11.48c0,4.4-3.63,7.95-8.02,7.95S1.06,15.87,1.06,11.48s3.63-7.95,7.95-7.95,8.02,3.55,8.02,7.95ZM34.01,11.48c0,4.38-3.54,7.94-7.92,7.95,0,0-.01,0-.02,0-4.4,0-7.95-3.55-7.95-7.95s3.55-7.95,7.95-7.95c4.38,0,7.94,3.54,7.95,7.92,0,0,0,.01,0,.02ZM17.03,28.52c0,4.4-3.63,7.95-8.02,7.95s-7.95-3.55-7.95-7.95,3.63-7.95,7.95-7.95,8.02,3.55,8.02,7.95ZM34.01,28.52c0,4.38-3.54,7.94-7.92,7.95,0,0-.01,0-.02,0-4.38,0-7.94-3.54-7.95-7.92,0,0,0-.01,0-.02,0-4.38,3.54-7.94,7.92-7.95,0,0,.01,0,.02,0,4.38,0,7.94,3.54,7.95,7.92,0,0,0,.02,0,.02Z"/>
</svg>