<?xml version="1.0" encoding="UTF-8"?>
<svg id="Camada_1" data-name="Camada 1" xmlns="http://www.w3.org/2000/svg" viewBox="0 0 117 40">
  <defs>
    <style>
      .cls-1 {
        fill: #2a55d9;
      }

      .cls-1, .cls-2, .cls-3 {
        stroke-width: 0px;
      }

      .cls-2 {
        fill: #3d4043;
      }

      .cls-3 {
        fill: #446eec;
      }
    </style>
  </defs>
  <path class="cls-1" d="M9.04,16.93H2.91v6.13h6.13v-6.13Z"/>
  <path class="cls-1" d="M15.17,23.07h-6.13v6.13h6.13v-6.13Z"/>
  <path class="cls-1" d="M15.17,16.93h-6.13v6.13h6.13v-6.13Z"/>
  <path class="cls-1" d="M9.04,29.2H2.91v6.13h6.13v-6.13Z"/>
  <path class="cls-2" d="M15.15,4.67h-6.13v6.13h6.13v-6.13Z"/>
  <path class="cls-3" d="M21.28,10.8h-6.13v6.13h6.13v-6.13Z"/>
  <path class="cls-3" d="M15.15,16.93h-6.13v6.13h6.13v-6.13Z"/>
  <path class="cls-2" d="M15.15,4.67h-6.13v6.13h6.13v-6.13Z"/>
  <path class="cls-3" d="M15.15,4.67h-6.13v6.13h6.13v-6.13Z"/>
  <path class="cls-2" d="M28.84,23.86c-.71.6-1.73.89-3.06.89h-2.54v4.39h-2.53v-12.2h5.24c1.21,0,2.17.31,2.89.94.72.63,1.08,1.6,1.08,2.92,0,1.44-.36,2.46-1.07,3.05ZM26.89,19.46c-.32-.27-.78-.41-1.36-.41h-2.3v3.59h2.3c.58,0,1.03-.15,1.36-.44.32-.29.48-.76.48-1.39s-.16-1.09-.48-1.36Z"/>
  <path class="cls-2" d="M39.28,28.04c-.76.94-1.92,1.41-3.47,1.41s-2.71-.47-3.47-1.41-1.14-2.07-1.14-3.4.38-2.43,1.14-3.38c.76-.95,1.92-1.43,3.47-1.43s2.71.48,3.47,1.43c.76.95,1.14,2.08,1.14,3.38,0,1.32-.38,2.46-1.14,3.4ZM37.39,26.73c.37-.49.55-1.19.55-2.09s-.18-1.6-.55-2.09c-.37-.49-.9-.73-1.59-.73s-1.22.24-1.59.73c-.37.49-.56,1.18-.56,2.09s.19,1.6.56,2.09c.37.49.9.74,1.59.74.69,0,1.22-.25,1.59-.74Z"/>
  <path class="cls-2" d="M47.12,19.91s.1,0,.2.01v2.42c-.15-.02-.28-.03-.4-.03-.12,0-.21,0-.28,0-.95,0-1.59.31-1.91.93-.18.35-.27.88-.27,1.61v4.31h-2.37v-9.02h2.25v1.57c.36-.6.68-1.01.95-1.23.44-.37,1.01-.55,1.72-.55.04,0,.08,0,.11,0Z"/>
  <path class="cls-2" d="M47.78,21.88v-1.68h1.26v-2.52h2.33v2.52h1.46v1.68h-1.46v4.77c0,.37.05.6.14.69.09.09.38.14.86.14.07,0,.15,0,.23,0,.08,0,.16,0,.24-.01v1.76l-1.12.04c-1.11.04-1.88-.15-2.28-.58-.26-.27-.4-.69-.4-1.25v-5.56h-1.26Z"/>
  <path class="cls-2" d="M61.87,28.04c-.76.94-1.92,1.41-3.47,1.41s-2.71-.47-3.47-1.41c-.76-.94-1.14-2.07-1.14-3.4s.38-2.43,1.14-3.38c.76-.95,1.92-1.43,3.47-1.43s2.71.48,3.47,1.43c.76.95,1.14,2.08,1.14,3.38,0,1.32-.38,2.46-1.14,3.4ZM59.98,26.73c.37-.49.55-1.19.55-2.09s-.18-1.6-.55-2.09c-.37-.49-.9-.73-1.59-.73s-1.22.24-1.59.73c-.37.49-.56,1.18-.56,2.09s.19,1.6.56,2.09c.37.49.9.74,1.59.74.69,0,1.22-.25,1.59-.74Z"/>
  <path class="cls-2" d="M72.04,17.2c.86.28,1.55.8,2.08,1.55.43.61.71,1.26.87,1.97.15.71.23,1.38.23,2.02,0,1.62-.33,3-.98,4.12-.88,1.52-2.25,2.28-4.09,2.28h-5.26v-12.21h5.26c.76.01,1.38.1,1.89.26ZM67.36,19.06v7.96h2.35c1.2,0,2.04-.59,2.52-1.78.26-.65.39-1.43.39-2.33,0-1.24-.19-2.2-.58-2.86-.39-.67-1.16-1-2.32-1h-2.35Z"/>
  <path class="cls-2" d="M79.36,19.04h-2.39v-2.18h2.39v2.18ZM76.97,20.12h2.39v9.02h-2.39v-9.02Z"/>
  <path class="cls-2" d="M86.11,20.11c.57.24,1.04.67,1.39,1.31v-1.3h2.3v8.56c0,1.16-.2,2.04-.59,2.63-.67,1.02-1.96,1.52-3.87,1.52-1.15,0-2.09-.23-2.82-.68-.73-.45-1.13-1.13-1.21-2.03h2.57c.07.28.17.47.32.6.25.21.68.32,1.28.32.85,0,1.42-.28,1.7-.85.19-.36.28-.98.28-1.84v-.58c-.23.39-.47.68-.73.87-.47.36-1.08.54-1.83.54-1.16,0-2.08-.41-2.78-1.22-.69-.81-1.04-1.92-1.04-3.31s.33-2.47,1-3.38c.67-.91,1.61-1.37,2.83-1.37.45,0,.84.07,1.18.21ZM86.91,26.58c.38-.42.57-1.08.57-1.99,0-.86-.18-1.51-.54-1.95-.36-.45-.84-.67-1.45-.67-.82,0-1.39.39-1.71,1.17-.16.41-.25.92-.25,1.53,0,.52.09.99.26,1.4.32.76.89,1.14,1.71,1.14.55,0,1.01-.21,1.39-.62Z"/>
  <path class="cls-2" d="M94.42,19.04h-2.39v-2.18h2.39v2.18ZM92.03,20.12h2.39v9.02h-2.39v-9.02Z"/>
  <path class="cls-2" d="M95.78,21.88v-1.68h1.26v-2.52h2.33v2.52h1.46v1.68h-1.46v4.77c0,.37.05.6.14.69.09.09.38.14.86.14.07,0,.15,0,.23,0,.08,0,.16,0,.24-.01v1.76l-1.12.04c-1.11.04-1.88-.15-2.28-.58-.26-.27-.4-.69-.4-1.25v-5.56h-1.26Z"/>
  <path class="cls-2" d="M105.92,23.65c.44-.06.75-.12.94-.21.34-.14.51-.37.51-.67,0-.37-.13-.63-.39-.77-.26-.14-.64-.21-1.15-.21-.56,0-.96.14-1.2.41-.17.2-.28.48-.34.83h-2.28c.05-.79.27-1.44.66-1.95.63-.79,1.7-1.19,3.22-1.19.99,0,1.87.2,2.64.59.77.39,1.16,1.13,1.16,2.22v4.14c0,.29,0,.63.02,1.04.02.31.06.52.14.63.08.11.19.2.35.27v.35h-2.57c-.07-.18-.12-.35-.15-.51-.03-.16-.05-.34-.07-.55-.33.35-.7.65-1.13.9-.51.29-1.09.44-1.73.44-.82,0-1.5-.23-2.04-.7s-.8-1.13-.8-1.98c0-1.11.43-1.91,1.29-2.41.47-.27,1.17-.46,2.08-.58l.81-.1ZM107.36,24.75c-.15.09-.3.17-.46.23-.15.06-.36.11-.63.16l-.54.1c-.5.09-.87.2-1.08.32-.37.21-.56.55-.56,1,0,.4.11.69.34.87.23.18.5.27.83.27.52,0,.99-.15,1.42-.45.43-.3.66-.84.68-1.63v-.88h0Z"/>
  <path class="cls-2" d="M114.18,29.14h-2.36v-12.2h2.36v12.2Z"/>
</svg>