<?xml version="1.0" encoding="UTF-8"?>
<svg id="Camada_1" data-name="Camada 1" xmlns="http://www.w3.org/2000/svg" xmlns:xlink="http://www.w3.org/1999/xlink" viewBox="0 0 117 40">
  <defs>
    <style>
      .cls-1 {
        clip-path: url(#clippath);
      }

      .cls-2 {
        fill: none;
      }

      .cls-2, .cls-3, .cls-4, .cls-5, .cls-6, .cls-7, .cls-8, .cls-9 {
        stroke-width: 0px;
      }

      .cls-3 {
        fill: url(#Gradiente_sem_nome_5);
      }

      .cls-4 {
        fill: #d20f3e;
        fill-rule: evenodd;
      }

      .cls-5 {
        fill: #fad500;
      }

      .cls-6 {
        fill: #243165;
      }

      .cls-7 {
        fill: #da0941;
      }

      .cls-8 {
        fill: #fff;
      }

      .cls-9 {
        fill: #f2940a;
      }
    </style>
    <clipPath id="clippath">
      <path class="cls-2" d="M40.44,19.01c-.48,2.16-1.75,3.86-3.53,5.14-2.36,1.7-.55,1.18-.53,1.17.19-.09.38-.19.56-.32-.9,1-2.5,2.04-4.4,2.78-3.19,1.23-7.2,1.57-10.02-.72.62.62,1.3,1.18,2.03,1.66-.42-.07-.72-.4-1.13-.53.01.02.97,1.27,3.86,1.61l.58.06c2.63.24,3.57-.1,4.43-.34.81-.22,1.63-.43,2.44-.64.12.05-.89.57-2.27.96-.83.24-1.69.39-2.56.43-.36.02-.71,0-1.06-.04h-.03c-.48-.06-.94-.09-1.41-.18-1.19-.24-1.52-.19-1.52-.19,0,0,.18.1,1.81.68-.1.04-.59.1-2.6-.76.02.01,2.41,1.15,3.78,1.29,1.03.1,2.07.07,3.08-.11,2.2-.38,4.1-1.37,5.89-2.5.63-.39,1.25-.81,1.86-1.22v.05s.12.02.12.02q-.02.07-.36.47c.73-.59,1.1-1.52,1.89-2.07l-.22.41-.07.11c-.4.58-.86,1.12-1.36,1.61l-.05.05-.15.13c-1.71,1.58-3.8,2.68-6.06,3.19.21-.02.42-.07.62-.13-.37.11-.38.12-.54.17l.6-.11c-.29.14-.63.21-1.46.38,2.96-.51,5.43-1.77,7.23-3.65.08-.08.57-.61.73-.8.75-.86,1.34-1.84,1.75-2.91.08-.23.15-.46.21-.7l.05-.2c.08-.44.08-.44.11-.7v-.02c.02-.16.03-.33.03-.49v-.24s0,0,0,0v-.06s-.02-.17-.02-.17v-.05l-.03-.17v-.04s-.04-.19-.04-.19l-.02-.1-.03-.09-.05-.18-.05-.12-.07-.17v-.03s-.07-.13-.07-.13c-.14-.28-.32-.54-.53-.77-.28,1.09-.68,2.06-1.81,3.8-.44.66-1.22.69-1.7,1.3-.12-.06-.08-.14-.23.02.61-.66-.09-.32.2-.63,1.06-1.17,2.03-2.23,2.44-3.8-.17.22-.27.28-.45.5.2-.67.35-1.25.5-1.94l-.19-.07-.16.3Z"/>
    </clipPath>
    <linearGradient id="Gradiente_sem_nome_5" data-name="Gradiente sem nome 5" x1="-2866.72" y1="558.81" x2="-2865.05" y2="558.81" gradientTransform="translate(32023.75 -3921.18) scale(11.16 7.06)" gradientUnits="userSpaceOnUse">
      <stop offset="0" stop-color="#1d84c6"/>
      <stop offset=".13" stop-color="#1c7fc1"/>
      <stop offset=".33" stop-color="#1772ae"/>
      <stop offset=".56" stop-color="#1c578d"/>
      <stop offset=".82" stop-color="#1f3460"/>
      <stop offset="1" stop-color="#23193d"/>
      <stop offset="1" stop-color="#23193d"/>
    </linearGradient>
  </defs>
  <path class="cls-9" d="M25.94,13.73l-.15.07c-.52.37-.65.84-.6.88l.97-.55c1.38-.58,3.37-1.27,4.03-1.36-.03,0-2.68.14-4.25.96M34.49,13.49c-1.15-.23-2.32-.29-3.49-.16-2.7.28-4,.68-4.66.93l-1.45.51-.35.37,1.06-.1,1.14-.44c.42-.14.89-.28,1.45-.41,2.66-.63,6.85-.55,6.28-.71M43.21,18.93c-.08-.9-.25-1.78-.51-2.64l-.17-.49c-.35-.89-.8-1.74-1.34-2.53-.7-.93-1.46-1.97-4.52-2.86,2.91.71,3.13,1.07,3.51,1.32l-.45-.43c-2.21-1.64-5.69-2.41-9.13-1.76,2.15-.7,5.67-.61,7.88.76-2.33-1.46-4.03-1.65-5.68-1.78-.25-.01-.55-.03-.88-.03-2.97,0-6.56,1.49-8.41,3.17-.16.15-.3.28-.42.4-.57.67-.19,1.13.08,1.28l.07,1.09c.3.2,1.35-1.03,1.82-1.24,3.22-1.41,6.8-1.8,10.25-1.14,3.77,1.06,5.39,2.84,5.49,2.98.11.13.73.77.72,1.03h-.14s-.3-.27-.3-.27l-.05-.04c-.64-.56-1.36-1.03-2.13-1.4-1.15-.49-2.48-.62-3.61-.93,1.3.51,2.67.67,3.88,1.37,1.45.82,2.5,2.28,2.51,2.29.98,1.28,1.44,2.9,1.28,4.5v.12s.01.03.01.03h0c-.04.34-.09.67-.16.99-.04.18-.11.38-.17.62l.02-.02c.49-1.41.69-2.91.58-4.41M37.39,13.23h.13c.05-.08-.61-.33-.85-.39-.33-.1-.67-.18-1.01-.25.01,0-.11.04.6.27.18.06.05.24,1.13.36"/>
  <path class="cls-6" d="M40.88,18.83l-.24-.1.24.1Z"/>
  <path class="cls-5" d="M42.94,21.6c.16-1.61-.3-3.22-1.28-4.5-.02-.01-1.06-1.47-2.51-2.29-1.22-.69-2.58-.85-3.88-1.37,1.14.31,2.46.44,3.61.93.78.36,1.5.83,2.14,1.4l.05.03.3.29.14-.02c.02-.26-.61-.89-.71-1.03-.11-.14-1.5-2.26-5.27-3.32-4.73-.92-8.76.72-10.47,1.48-.48.25-.72,1.15-.59,1.27.11.1.6-.16,1.32-.67l.15-.07c1.58-.82,4.23-.96,4.26-.96-.66.1-2.65.78-4.03,1.36l-.58.24-.32.32,1.08-.41c.66-.26,1.95-.66,4.66-.93,1.16-.13,2.34-.07,3.49.16.57.16-3.63.07-6.28.71-.56.13-1.03.27-1.45.41l-1.67.48c.17.18,1.08,1.33,1.34,1.65l.45.26.47.25.53-.25-.41.48c.12.13.46-.48,1.04-.85,3.38-1.73,6.03-1.78,7.29-1.75.22.01.44.05.66.11.19.1-1.38.17-1,.28.34.1,1.21-.13,1.3-.14l.1-.02.11-.02c.34,0,.67.01,1,.05.9.22.06.33-.25.26-.16-.01-.31-.01-.47.01l-.46.08c-.17.04-.49.08-.66.11-.1.01-1.15-.02-.99.13l.94.11h.38s.27,0,.27,0l.14-.04.2-.04.13.07c-.17.4-.46.36-.98.32-.3-.03-.61-.03-.91-.02-.61.05-1.26.32-1.37.23-.08-.06.71-.37.5-.41-.36-.06-3.13.93-3.28,1.31h.01l.06.09.87-.19c.17,0,.23-.08.39-.08l.72-.23c.24,0,.34.12.58.07.2-.05.45-.02.64-.09.19-.05.38-.13.57-.18l.14-.04.19-.04.35.17c.43.25.55.45.91.47h.15l.26-.05.33-.06c.16-.02.32-.02.48,0l.42.07c.17.03-.03.14-.09.17-.2.12-.41.23-.63.31l-.43.1-.24.03-.15.04h-.15s-.21,0-.21,0l-.08.02h-.07s-.14.01-.14.01l-.11.04h-.06l-.15.02-.41.06-1,.08-.24.09c-.17.08-.35.15-.52.22h-.11s-.34.11-.34.11l-.15.12-.22.1-.18.04-.13.08-.14.04-1.38.5-.12.05-.16.11-.03.19h0,0v.03h.32s.12-.02.12-.02l.16-.02.34-.13c1.29-.29,3.44-1.18,5.58-1.33.02,0,2.25-.1,3.75.6.44.21,2.52,1.37,1.68,4.68v.03h0l.06-.17v-.02s0,.01,0,.01c.07-.23.13-.44.17-.63.07-.32.13-.65.16-.98v-.15M35.66,12.59c.34.06.67.15,1,.25.24.06.9.31.85.39h-.13c-1.07-.12-.95-.31-1.12-.36-.71-.23-.59-.28-.6-.28M34.93,17.24l.1-.05c-.41.01-.82.09-1.2.22-.22.08-.42.18-.61.31l.08.14c.32.06.34-.04,1.63-.62"/>
  <g class="cls-1">
    <rect class="cls-3" x="22.52" y="18.71" width="20.24" height="12.8"/>
  </g>
  <path class="cls-8" d="M32.08,24.68c-.28-.17-.52-.42-.67-.72l-.17-.31-.07-.12c-.1-.19-.23-.37-.37-.54l-.14-.14-.12-.13-.07-.11c-.6-1.53-.74-2.39-.95-3.9-.11-.79-.59-1.42-1.36-2.36l-.32-.4-.24-.32c-.19-.25-.4-.49-.63-.71l-.75-.63-.83-.7c-.4-.33-.81-.63-1.23-.92-.54-.38-1.17-.58-1.83-.59-.45-.01-.9.1-1.3.32-.44.32-.92.59-1.42.8-.34.14-.69.26-1.13.4l-.46.15c-.42.14-.8.38-1.11.7l-.17.17-.18.17-.26.19-.38.06-.28.02h-.2c-.58.04-1.04.36-1.34.61-.16.13-.3.26-.44.39l-.06.06-.42.35c-.41.27-.79.3-1.22.35-.23.02-.46.05-.68.1-.29.06-.57.15-.84.28-.35.17-.68.37-1,.6l-.49.36-.42.31c-.64.45-1.19.75-1.78.75s-1.01-.34-1.06-.88c-.05-.47.19-.94.68-1.33l.26-.22c.2-.16.38-.31.55-.45.23-.19.44-.4.62-.62.36-.45.47-1.05.3-1.6-.14-.57-.58-.95-1.33-1.17-.26-.07-.52-.13-.79-.17l-.09-.02-.21-.03-.17-.04c-.51-.27-1-.56-1.47-.89l-.07-.05-.05.07c-.16.23-.29.41-.38,1.22-.11.89.62,1.98,1.89,2.18l.15.13-.06.18c-1.34,1.05-1.62,1.51-1.69,2.68-.05.73.21,1.44.7,1.97.59.59,1.41.91,2.25.87.27,0,.54-.02.81-.07l.18.16c.07.82.21,1.49.4,1.78l-.03.23-.26.15c-.37.13-.76.19-1.14.18-.27,0-.47.19-.63.58l-.14.4-.02.04-.06.19-.06.14-.24.29-.12.04h-.03l-.13-.1c-.13-.23-.35-.39-.61-.44h-.03c-.61.06-1.14.44-1.38,1l-.14.11h-.03c-.29.01-.55.21-.65.48l-.1.39-.02.09-.06.3-.09.23-.06.11-.05.07c-.08.15-.1.34-.05.5l.25.27.4.15c.2.05.41.08.62.09l.12-.03.08-.06.14-.04.14.02.38.08h.02l.36.07.14.03h.1c.56-.03.8-.24.96-.45l.13-.19.06-.11.05-.08.14-.22.15-.07h.05s.18.05.18.05l.3.03h.11c.53,0,.93-.29,1.26-.58l.11-.09.14-.13.25-.18c.13-.1.27-.15.43-.16h.03c.51.03,1.03.09,1.54.18.24-.02.48-.08.7-.19.23-.11.45-.23.66-.36l.18-.1h.02s.21-.11.21-.11c.19-.09.36-.22.49-.39.13-.19.24-.4.34-.61l.13-.27.23-.47.16-.1h.05c.28-.01.55-.04.82-.08l.34-.05c.25-.04.46-.08.62-.08l.28.02.32.02c.48.03.97.04,1.45.02.27-.02.54-.07.79-.16l.13.05.28.26.05.19-.15.12h-.11c-.16.02-.31.09-.43.21l-.14.07h-.07s-.23-.06-.23-.06h-.23c-.29,0-.58.01-.87.06-.17.02-.34.07-.48.15-.14.06-.23.2-.22.36.02.34.5,1.25.82,1.57.15.1.33.15.51.13h.09l.16.1c.33.65.9,1.09,1.43,1.09h.03c.5-.02,1.85-.51,2.79-.96h.04s.1-.03.1-.03l.19-.03h.1c.21-.02.41-.07.62-.15.16-.08.39-.37.59-.76l.16-.1h.02l.16.13.08.21c.16.3.45.46.86.45h.07c.29-.02.58-.09.85-.19l.15-.05c.21-.08.43-.14.65-.18l.39-.02.25.02h.17s.26.02.26.02c.21,0,.42-.03.61-.12.21-.09.4-.2.58-.34l.05-.04.11-.03.12.05c.62.54,1.41.84,2.24.84h.12c.22.01.44-.08.59-.25l.07-.34.12-.22h.02c.16-.03.31-.1.44-.2l.16-.33-.08-.19c-.16-.14-.35-.26-.55-.35M24.12,23.3c-.12.15-.3.2-.47.5-.34-.14-.39-.58-.46-.77.27-.05.9-.17,1.23-.22-.13.15-.23.31-.3.49"/>
  <path class="cls-7" d="M31.64,24.89c-.61-.36-.86-1.04-1.24-1.57-.14-.19-.37-.32-.5-.52-.44-1.2-.82-2.4-.94-3.78-.07-.35-.19-.69-.35-1.01-.56-.9-1.28-1.72-1.97-2.55l-.2-.2-2.44-2.02c-.3-.21-.63-.38-.98-.52-.56-.18-1.17-.16-1.71.06-.52.28-1,.68-1.55.87-.8.36-1.7.43-2.39,1.05-.4.35-.74.89-1.34.8-.65-.02-1.28.2-1.77.63-.45.41-.88.89-1.47,1.01-.51.22-1.14.11-1.66.31-.83.21-1.49.87-2.19,1.37-.71.41-1.39.85-2.27.83-.6-.05-1.11-.43-1.32-1-.18-.63.02-1.3.52-1.73.52-.63,1.36-1,1.77-1.72.22-.43.18-.96-.1-1.36-.55-.56-1.33-.58-2.04-.76-.45-.13-.8-.47-1.2-.69-.14.23-.21.5-.19.78.11.67.56,1.22,1.19,1.46.36.15.77.04,1.14.12l.22.26-.12.28c-.58.48-1.18.94-1.67,1.54-.51.55-.57,1.53-.3,2.23.34.79,1.08,1.33,1.93,1.43.59.1,1.11-.06,1.64-.18l.13.12c.05.47-.02.89.09,1.32.1.36.22.72.37,1.07l-.1.38c-.29.21-.6.38-.93.52l-.8.05-.15.07c-.3.35-.31.71-.49,1.11-.25.4-.7.6-1.08.84-.12.21-.26.39-.43.56-.14.11-.3.17-.47.17-.27.32-.34.76-.41,1.19.45.04.92.29,1.37.04.38-.18.46-.64.75-.92.23-.25.57-.06.84-.01.4.02.69-.27,1.02-.4.24-.15.43-.42.67-.58.48-.23,1.13-.1,1.63-.01.39.1.79.05,1.14-.11.32-.2.61-.45.97-.53.32-.16.48-.52.61-.82.11-.28.37-.49.35-.82l-.3-.21c-.15.21-.27.44-.44.65-.74,1.01-1.33,1.11-2.83,1.11-1.1-.08-2.17.35-2.9,1.18l-.16-.03.13-.42c.68-.98,1.76-1.2,2.89-1.23.6-.02,1.18-.16,1.72-.41.56-.28.99-.76,1.23-1.34.13-.65.18-1.35.35-1.96l.22-.09.19.14c-.12.63-.32,1.39-.07,2,.49.65,1.41.3,2.07.27.65-.04,1.29-.03,1.92.03.33-.01.58.07.83-.14l.08-.39c-.02-.19-.17-.3,0-.45l.25.04c.1.25.13.53.3.76.35.41.78.75,1.26.99.43.3.79.72.82,1.24,0,.27-.24.45-.45.58-.35.2-.74.29-1.14.27-.54-.26-.69-.84-1.05-1.26-.18-.21-.46-.24-.74-.23-.29.01-.58.06-.87.13l-.08.25c.19.34.39.66.6,1,.24.14.57-.08.77.17.18.28.29.59.56.79.27.24.65.31.99.19.77-.22,1.52-.51,2.23-.87h.24c.28-.03.6-.01.8-.23.22-.31.42-.65.59-.99.17-.24.1-.59.02-.85-.32-.43-.57-.9-.73-1.41-.17-.05-.33-.15-.52-.15l-.27.13.81,1.6c.07.14.1.31.08.47-.11.35-.3.66-.56.91h-.15c.09-.36.25-.74.24-1.14l-.79-1.43c-.1-.19-.26-.37-.25-.6l.17-.22c.35-.11.77-.1,1.03-.37.35-.54.42-1.08.51-1.73l.16-.12.16.1c.12.7-.05,1.41-.45,1.98l.03.22c.39.12.8,0,1.13-.18.4-.02.8-.06,1.19-.15l.09.1c-.25.27-.41.61-.48.98-.31.32-.75.6-.78,1.06.05.23.25.02.39.04l.1.12-.3.45c-.16.26.03.58.03.83.1.2.31.33.53.31.47-.02.88-.2,1.28-.34.49-.18,1.01-.21,1.52-.11.48-.03.84-.35,1.2-.67.19.02.38.12.5.28.54.57,1.3.88,2.09.83l.07-.04v-.17s-.03-.01-.03-.01l-.48-.25c-.34-.22-.76-.5-.88-.88-.12-.37-.28-.71-.49-1.04-.07-.16-.24-.3-.31-.46l.07-.04c.53.18.85.71,1.1,1.18.39.54.96,1.01,1.69.89l.06-.05v-.13l-.37-.18h0ZM23.58,17.66h-.03s0,0,0,0h0s-.14.02-.14.02h-.01s0-.02,0-.02c-.07-.42-.18-.84-.34-1.25l-.1-.16-.04-.05-.08-.12-.04-.41h.01s.3-.06.3-.06h.01c.15.14.28.29.37.48.11.27.16.56.16.86,0,.24-.03.48-.1.71h.03ZM27.5,24.43h0c-.21.07-.42.09-.64.08h-.02l-.04-.02-.05-.03-.03-.12c.11-.32.38-.56.71-.65h.05l.08.02.11.13v.16c.02.16-.04.32-.16.43h0ZM28.75,21.63l-.03.09-.03.09-.14.14-.12-.02-.05-.11v-.09s-.04-.32-.04-.32l-.13-.36-.3-.34-.34-.18-.26.18-.11.13-.1.13-.12.02h-.02s-.04-.2-.04-.2l.06-.26.09-.17.1-.2v-.02s.1-.16.1-.16l.03-.07.05-.14.33-.18.07.03.3.31.05.08.06.1.12.15c.34.37.49.72.49,1.08l-.03.27Z"/>
  <path class="cls-7" d="M4.37,26.06c.3-.21.54-.5.69-.84l-.24-.27h-.22c-.23.2-.46.37-.71.51l-.09.34.19.24.38.02M3.3,26.09c-.18.08-.32.24-.38.42-.05.33.02.63-.24.88v.19c.22.09.46.15.71.19.12-.4.21-.84.36-1.19v-.11c-.12-.15-.24-.35-.45-.39M18.88,24.98c.21.23.19.58.43.75.3.03.6-.06.82-.25l-.08-.4c-.14-.19-.04-.59-.37-.59-.33.04-.66.06-.99.06l-.09.06c-.06.19.23.19.28.37"/>
  <path class="cls-4" d="M100.3,23.68c0,.87.74,1.57,1.65,1.57s1.65-.7,1.65-1.57v-5.21h2.85v5.76c0,1.95-2.02,3.53-4.5,3.53s-4.51-1.58-4.51-3.53v-5.76h2.87v5.21ZM112.91,27.44h2.89v-15.16h-2.89v15.16ZM108.03,27.44h2.89v-15.16h-2.89v15.16ZM55.22,15.46h-1.57v11.98h-3.07v-14.46h5.28c2.41,0,4.35,1.91,4.35,4.27-.01,1.98-1.38,3.7-3.32,4.15l4.24,6.04h-3.62l-3.07-4.74v-3.46h.71c1.14,0,2.06-.85,2.06-1.89-.02-1.06-.89-1.91-1.96-1.89h-.04"/>
  <path class="cls-4" d="M63.84,21.88c-.05-.97.7-1.8,1.67-1.85.97-.05,1.8.7,1.86,1.67v.18h-3.53ZM70.21,23.55c.02-.2.03-.4.03-.61.05-3.13-2.02-4.84-4.66-4.84-2.65.02-4.78,2.18-4.77,4.83-.01,2.65,2.12,4.81,4.77,4.83,2.01,0,3.58-.91,4.39-2.33l-2.34-1.08c-.34.69-1.04,1.11-1.81,1.1-1.12,0-1.95-.83-1.96-1.8v-.1h6.36ZM76.74,25.23c-1.17,0-2.12-1.04-2.12-2.32s.95-2.32,2.12-2.32,2.12,1.04,2.12,2.32-.94,2.32-2.12,2.32M81.7,27.44v-15.16h-2.88v7.17c-.77-.78-1.81-1.21-2.9-1.22-2.38,0-4.32,2.12-4.32,4.73s1.94,4.72,4.32,4.72c1.13,0,2.15-.48,2.92-1.25v1.01h2.87ZM91.49,24.93h-2.76v-9.46h1.92c.85,0,1.53.77,1.53,1.62s-.69,1.53-1.53,1.53h-1v2.6h1.84c1,0,1.8.81,1.8,1.81v.04c-.04,1.06-.69,1.79-1.8,1.86M93.9,19.57c.8-.72,1.26-1.74,1.27-2.81,0-.98-.38-1.88-1.04-2.6-.69-.76-1.9-1.18-3.55-1.18h-4.94v14.46h6.37c2.44-.04,4.41-1.89,4.41-4.15,0-1.65-.58-2.82-2.53-3.72"/>
</svg>