<?xml version="1.0" encoding="UTF-8"?>
<svg id="Camada_1" data-name="Camada 1" xmlns="http://www.w3.org/2000/svg" viewBox="0 0 117 40">
  <defs>
    <style>
      .cls-1 {
        fill: #1d66c3;
        stroke-width: 0px;
      }
    </style>
  </defs>
  <path class="cls-1" d="M73.04.38c-.27,1.34-.53,2.67-.8,4.01-.04.18-.15.19-.29.19-3.55,0-7.1,0-10.64,0-3.89,0-7.78,0-11.67,0h-.33c.29-1.42.57-2.81.85-4.21,7.63,0,15.26,0,22.88,0Z"/>
  <path class="cls-1" d="M53.79,19.7c.1.03.15.05.21.07.37.14.76.24,1.12.42.91.45,1.17,1.24,1.1,2.13-.17,2.17-2.01,3.55-3.83,3.72-1.12.1-2.25.1-3.37.11-1.34.02-2.68,0-4.02,0-.07,0-.13,0-.24-.01.04-.21.07-.41.11-.6.69-3.23,1.38-6.47,2.07-9.7.14-.64.28-1.28.41-1.92.03-.15.09-.18.23-.18,2.25,0,4.51-.01,6.76.01.73,0,1.42.24,2,.71.86.69.97,1.61.69,2.61-.31,1.1-1.08,1.79-2.1,2.22-.35.15-.72.27-1.13.42ZM48.58,23.88c.07.01.1.02.13.02.73,0,1.45.02,2.18,0,.97-.03,1.6-.59,1.8-1.54.12-.54-.04-.97-.46-1.2-.16-.09-.33-.17-.51-.18-.79-.04-1.58-.06-2.38-.07-.06,0-.15.09-.17.16-.1.39-.18.79-.26,1.19-.11.54-.22,1.07-.34,1.63ZM50.9,18.72h0c.27,0,.54,0,.82,0,1.03,0,1.66-.52,1.84-1.53.12-.66-.27-1.22-.94-1.26-.72-.04-1.45-.03-2.17-.03-.07,0-.19.1-.21.17-.18.81-.34,1.62-.52,2.43-.04.2.04.22.19.22.33,0,.66,0,1,0Z"/>
  <path class="cls-1" d="M65.46,20.05c.35.05.62.08.9.14.2.04.4.09.58.17.49.21.74.6.76,1.12.03.53.01,1.05,0,1.58-.02.94-.07,1.89-.08,2.83,0,.23-.07.28-.28.28-1.06,0-2.12,0-3.18,0-.21,0-.3-.05-.29-.28.06-.8.12-1.61.17-2.41.03-.38.07-.75.09-1.13.02-.62-.33-.98-.97-1.01-.59-.02-1.18,0-1.77,0-.15,0-.21.06-.24.21-.31,1.46-.63,2.92-.94,4.37-.03.13-.05.25-.23.24-1.06-.01-2.12-.01-3.18-.02-.02,0-.04,0-.09-.02,0-.06-.01-.13,0-.19.62-2.88,1.24-5.76,1.86-8.64.24-1.1.48-2.19.7-3.29.03-.17.1-.22.27-.22,2.38,0,4.77,0,7.15.02.67,0,1.34.15,1.88.61.45.38.68.88.71,1.46.03.85-.1,1.66-.56,2.39-.57.9-1.45,1.34-2.45,1.58-.22.05-.44.09-.66.14-.04,0-.07.03-.17.08ZM61.69,19.13c.93-.04,1.82,0,2.69-.13.95-.14,1.54-1.09,1.41-2.05-.07-.5-.5-.85-1.14-.88-.7-.03-1.41-.03-2.11-.05-.15,0-.21.05-.24.2-.13.64-.27,1.28-.4,1.92-.06.31-.13.61-.2.99Z"/>
  <path class="cls-1" d="M47.9,11.16c.12-.62.24-1.2.36-1.79.15-.74.3-1.48.44-2.22.03-.14.08-.2.22-.18.05,0,.11,0,.16,0,7.39,0,14.79,0,22.18,0,.06,0,.12,0,.18,0,.15-.01.18.06.15.2-.2.99-.4,1.98-.6,2.97-.05.24-.12.48-.15.73-.02.22-.12.27-.32.27-2.35,0-4.71.02-7.06.02-5.09,0-10.19,0-15.28,0-.08,0-.16,0-.29,0Z"/>
  <path class="cls-1" d="M43.31,32.99c.18-.9.35-1.76.52-2.61.09-.47.2-.93.28-1.4.03-.15.09-.19.23-.18.06,0,.12,0,.18,0,7.38,0,14.76,0,22.13,0,.07,0,.14,0,.2,0,.13,0,.18.04.15.18-.19.91-.37,1.82-.55,2.73-.07.33-.15.66-.2,1-.03.2-.11.26-.31.26-1.96,0-3.92,0-5.88,0-5.48,0-10.96.02-16.44.02-.1,0-.19,0-.33,0Z"/>
  <path class="cls-1" d="M41.92,39.54c.09-.46.17-.88.26-1.3.18-.89.36-1.79.53-2.68.03-.16.1-.2.24-.19.06,0,.12,0,.18,0,7.37,0,14.74,0,22.11,0,.39,0,.4,0,.32.38-.24,1.2-.48,2.41-.72,3.61-.03.14-.1.19-.23.19-.07,0-.14,0-.2,0-7.38,0-14.76,0-22.13,0h-.36Z"/>
  <path class="cls-1" d="M81.84,26.15c-.65,0-1.26,0-1.87,0-.58,0-1.17-.02-1.75,0-.21,0-.29-.07-.31-.27-.08-.67-.19-1.33-.27-1.99-.02-.17-.09-.19-.23-.19-1.56,0-3.12,0-4.68,0-.16,0-.24.06-.32.19-.38.69-.77,1.37-1.15,2.06-.08.15-.18.21-.35.21-.98,0-1.97,0-2.95,0-.07,0-.15,0-.26,0,.06-.1.09-.16.13-.23,2.45-3.96,4.9-7.92,7.35-11.88.1-.16.21-.22.4-.22,1.25,0,2.5,0,3.74,0,.2,0,.27.05.3.26.38,2.11.77,4.22,1.17,6.33.34,1.82.68,3.64,1.02,5.46.01.08.02.16.03.28ZM76.79,16.23s-.05,0-.08-.01c-.95,1.72-1.9,3.44-2.87,5.19.09.02.13.04.18.04,1.04,0,2.07,0,3.11,0,.15,0,.17-.06.16-.2-.07-.65-.13-1.3-.19-1.96-.08-.87-.16-1.74-.24-2.61-.01-.15-.04-.3-.07-.46Z"/>
  <path class="cls-1" d="M30.47,17.49c0-.29.02-.55,0-.81-.03-.34-.24-.58-.55-.69-.83-.31-1.61-.16-2.29.39-.3.24-.43.58-.45.96-.02.35.14.63.45.77.31.15.65.24.98.33.96.28,1.92.53,2.87.82.35.11.7.27,1,.48.71.5.94,1.21.84,2.06-.11.94-.44,1.78-1.08,2.49-.58.63-1.31,1.03-2.11,1.33-1.1.41-2.24.53-3.4.51-.83-.02-1.65-.07-2.43-.34-.9-.3-1.62-.82-1.92-1.77-.19-.59-.13-1.19-.02-1.79,0-.05.09-.11.13-.11,1.09,0,2.18,0,3.29,0-.02.14-.04.27-.05.39-.08.73.32,1.25,1.11,1.41.62.12,1.23.08,1.83-.13.61-.21,1.03-.8,1.04-1.43.01-.37-.15-.65-.48-.77-.44-.16-.91-.28-1.36-.41-.93-.27-1.89-.49-2.79-.83-.88-.33-1.48-.98-1.54-1.97-.05-.75.16-1.45.54-2.1.57-.98,1.45-1.58,2.47-2.01.8-.34,1.64-.46,2.49-.5.92-.05,1.84-.03,2.75.19.63.15,1.21.39,1.66.87.49.52.63,1.15.58,1.84-.02.22-.05.45-.11.67-.02.07-.12.16-.19.16-1.05,0-2.1,0-3.15,0-.03,0-.06-.01-.08-.02Z"/>
  <path class="cls-1" d="M38.77,18.73h.33c1.68,0,3.36,0,5.04,0,.28,0,.28,0,.23.27-.13.6-.26,1.19-.38,1.79-.04.21-.12.28-.34.28-1.04-.01-2.09,0-3.13,0-.69,0-1.38.02-2.06.02-.11,0-.2,0-.23.15-.17.81-.35,1.62-.52,2.43,0,.02,0,.04.02.11h6.12c-.08.36-.14.67-.21.98-.09.39-.18.78-.26,1.17-.03.14-.08.2-.24.2-3.08,0-6.16,0-9.24,0-.04,0-.07,0-.14-.01.07-.34.14-.67.21-1,.8-3.71,1.6-7.42,2.4-11.14.03-.16.09-.21.25-.21,3,0,6.01,0,9.01,0,.18,0,.22.05.18.23-.14.62-.26,1.24-.38,1.86-.03.18-.1.25-.29.25-1.82,0-3.65,0-5.47-.01-.24,0-.34.06-.38.31-.14.76-.32,1.52-.49,2.33Z"/>
  <path class="cls-1" d="M87.74,18.74h5.63c-.08.42-.16.8-.24,1.18-.06.3-.15.6-.2.9-.03.19-.11.24-.3.24-1.69,0-3.37,0-5.06,0-.41,0-.36-.01-.44.35-.15.72-.29,1.45-.45,2.17-.04.17.01.22.17.22.07,0,.14,0,.2,0,1.8,0,3.6,0,5.4,0,.1,0,.19,0,.32,0-.05.27-.1.5-.15.73-.1.46-.21.93-.31,1.39-.03.12-.06.22-.23.22-3.09,0-6.17,0-9.26,0-.04,0-.07,0-.14-.02.09-.44.18-.86.27-1.29.77-3.58,1.54-7.16,2.31-10.74.07-.32.07-.32.39-.32,2.94,0,5.87,0,8.81,0,.32,0,.33,0,.26.33-.12.59-.25,1.18-.37,1.77-.04.18-.11.24-.3.24-1.84,0-3.68,0-5.52,0-.21,0-.28.06-.32.27-.14.73-.31,1.46-.46,2.19,0,.04,0,.09-.02.18Z"/>
</svg>