<?xml version="1.0" encoding="UTF-8"?>
<svg id="Camada_1" data-name="Camada 1" xmlns="http://www.w3.org/2000/svg" viewBox="0 0 117 40">
  <defs>
    <style>
      .cls-1 {
        fill: #0065f2;
      }

      .cls-1, .cls-2 {
        fill-rule: evenodd;
        stroke-width: 0px;
      }
    </style>
  </defs>
  <path class="cls-1" d="M77.77,34.07s-.01,0-.02.02l-.17-.21c-3.56,2.93-8.07,4.51-12.74,4.51-5.33,0-10.33-2.01-14.08-5.71-3.75-3.64-5.82-8.54-5.82-13.71,0-3.98,1.2-7.86,3.56-11.12,2.31-3.21,5.48-5.61,9.23-7l-.14-.38c-3.8,1.44-7.06,3.88-9.37,7.14-2.4,3.36-3.7,7.29-3.7,11.36,0,5.27,2.11,10.26,5.96,14,.36.35.74.68,1.12,1.01l-.5.58c3.8,3.21,8.7,4.99,13.75,4.99s9.71-1.73,13.5-4.79l-.58-.67Z"/>
  <g>
    <g>
      <path class="cls-2" d="M47.11,23c1.73,0,2.69,1.29,2.69,2.69,0,1.25-.77,2.35-1.97,2.64.19.34.38.62.58.96,1.49-.53,2.6-1.87,2.6-3.6,0-2.06-1.78-3.74-3.89-3.74-.53,0-1.06.1-1.49.29.05.34.1.72.19,1.05.38-.19.82-.29,1.3-.29Z"/>
      <path class="cls-2" d="M44.42,25.68c0-.72.24-1.39.72-1.92-.1-.38-.19-.77-.24-1.15-1.01.67-1.68,1.82-1.68,3.07,0,2.16,1.73,3.79,3.89,3.79.14,0,.34,0,.48-.05-.19-.34-.43-.67-.63-1.01-1.54-.1-2.55-1.25-2.55-2.73Z"/>
      <path class="cls-2" d="M66,22.09v4.36c0,1.01-.34,1.97-1.63,1.97s-1.63-.96-1.63-1.97v-4.36h-1.2v4.6c0,1.58,1.01,2.78,2.84,2.78s2.84-1.2,2.84-2.78v-4.6h-1.2Z"/>
      <path class="cls-2" d="M38.46,23.14v1.73h2.59v1.01h-2.59v3.45h-1.2v-7.24h3.89v1.05h-2.69Z"/>
      <path class="cls-2" d="M71.67,24.82l-1.15,4.51h-1.2l2.02-7.53,2.6,5.42,2.55-5.42,2.02,7.53h-1.2l-1.15-4.51-2.21,4.65-2.26-4.65Z"/>
      <path class="cls-2" d="M55.52,22.09c.67,0,1.44,0,2.02.34.62.34,1.01,1.05,1.01,1.73,0,1.05-.72,1.92-1.78,2.01l2.31,3.16h-1.35l-2.16-3.07h-.82v3.07h-1.2v-7.24h1.97ZM54.75,25.3h.53c.96,0,2.11.05,2.11-1.1s-1.2-1.1-2.16-1.1h-.48v2.21Z"/>
    </g>
    <g>
      <path class="cls-2" d="M48.7,6.98c-.1-.34-.14-.62-.14-.96,0-1.44.96-2.73,2.69-2.73.38,0,.72.05,1.01.14.29-.24.62-.48.96-.67-.58-.34-1.25-.53-1.97-.53-2.11,0-3.89,1.68-3.89,3.79,0,.72.24,1.44.58,2.01.1-.14.19-.29.29-.38.14-.24.34-.48.48-.67Z"/>
      <path class="cls-2" d="M53.89,3.24c-.34.19-.62.38-.91.62.62.48.96,1.29.96,2.16,0,1.44-1.06,2.69-2.69,2.69-.91,0-1.63-.38-2.11-1.01-.1.14-.19.24-.29.38-.14.19-.29.38-.38.58.72.67,1.68,1.1,2.79,1.1,2.16,0,3.89-1.63,3.89-3.74,0-1.1-.48-2.11-1.25-2.78Z"/>
      <path class="cls-2" d="M66.96,8.61h3.27v1.01h-4.47V2.38h1.2v6.23Z"/>
      <path class="cls-2" d="M43.27,6.89h.05l1.15-4.51h1.15l-2.02,7.53-2.55-5.42-2.55,5.42-2.07-7.53h1.2l1.15,4.51,2.26-4.65,2.21,4.65Z"/>
      <path class="cls-2" d="M59.61,2.38c.67,0,1.44,0,2.02.34.62.34.96,1.05.96,1.73,0,1.06-.67,1.92-1.78,2.01l2.35,3.16h-1.35l-2.21-3.07h-.77v3.07h-1.2V2.38h1.97ZM58.84,5.59h.53c.96,0,2.07.05,2.07-1.1s-1.2-1.1-2.11-1.1h-.48v2.21Z"/>
      <path class="cls-2" d="M73.54,8.61h.67c1.59,0,3.08-.58,3.08-2.64s-1.49-2.59-3.08-2.59h-.67v5.23ZM72.34,2.38h1.97c2.31,0,4.18,1.1,4.18,3.6s-1.83,3.64-4.18,3.64h-1.97V2.38Z"/>
    </g>
    <g>
      <path class="cls-2" d="M47.01,15.8c0,1.15-.67,2.16-1.68,2.54v1.15c1.63-.43,2.88-1.87,2.88-3.69,0-1.29-.72-2.45-1.78-3.16-.14.38-.24.72-.38,1.05.62.53.96,1.29.96,2.11Z"/>
      <path class="cls-2" d="M44.56,18.54h-.24c-1.63,0-2.74-1.25-2.74-2.73,0-1.39.96-2.69,2.74-2.69.38,0,.77.05,1.06.19.1-.34.19-.67.34-1.01-.43-.14-.91-.24-1.39-.24-2.16,0-3.89,1.68-3.89,3.74s1.73,3.79,3.89,3.79h.24c0-.19-.05-.43-.05-.62,0-.14.05-.29.05-.43Z"/>
      <path class="cls-2" d="M26.78,12.21h4.23v1.05h-3.03v1.73h2.98v1.05h-2.98v2.35h3.03v1.05h-4.23v-7.24Z"/>
      <path class="cls-2" d="M50.67,11.82l5,5.13v-4.75h1.2v7.53l-5-5.03v4.75h-1.2v-7.62Z"/>
      <path class="cls-2" d="M80.46,12.21h1.2v7.24h-1.2v-7.24Z"/>
      <path class="cls-2" d="M71.04,14.94h-.05l-1.15,4.51h-1.15l2.02-7.53,2.55,5.47,2.55-5.47,2.07,7.53h-1.2l-1.15-4.51h-.05l-2.21,4.7-2.21-4.7Z"/>
      <path class="cls-2" d="M89.59,18.2c-.38.24-.82.34-1.35.34-1.59,0-2.69-1.2-2.69-2.69s.96-2.73,2.69-2.73c.53,0,.96.1,1.35.29l.58-.86c-.53-.29-1.2-.48-1.92-.48-2.11,0-3.89,1.68-3.89,3.79s1.78,3.74,3.89,3.74c.72,0,1.39-.14,1.97-.48l-.62-.91Z"/>
      <path class="cls-2" d="M38.51,18.2c-.38.24-.82.34-1.3.34-1.63,0-2.74-1.2-2.74-2.69s.96-2.73,2.74-2.73c.48,0,.91.1,1.3.29l.62-.86c-.58-.29-1.25-.48-1.92-.48-2.16,0-3.89,1.68-3.89,3.79s1.73,3.74,3.89,3.74c.67,0,1.35-.14,1.92-.48l-.62-.91Z"/>
      <path class="cls-2" d="M65.95,15.85c0-1.44-.96-2.73-2.69-2.73s-2.74,1.29-2.74,2.73,1.11,2.69,2.74,2.69,2.69-1.2,2.69-2.69ZM67.15,15.85c0,2.11-1.78,3.74-3.89,3.74s-3.89-1.63-3.89-3.74,1.73-3.79,3.89-3.79,3.89,1.68,3.89,3.79Z"/>
    </g>
  </g>
</svg>