<?xml version="1.0" encoding="UTF-8"?>
<svg id="Conteeúdo" xmlns="http://www.w3.org/2000/svg" version="1.1" viewBox="0 0 95.83 94.94">
  <!-- Generator: Adobe Illustrator 30.0.0, SVG Export Plug-In . SVG Version: 2.1.1 Build 123)  -->
  <defs>
    <style>
      .st0 {
        fill: #8998aa;
      }

      .st1 {
        fill: #e2ecf8;
      }

      .st2 {
        fill: #2f2232;
      }

      .st3 {
        fill: #f2c524;
      }

      .st4 {
        fill: #b9c7d2;
      }
    </style>
  </defs>
  <g>
    <path class="st2" d="M54.81,24.23c-.15.02-.29.05-.44.05-3.45,0-6.91,0-10.36,0-.15,0-.29-.03-.44-.05,0-.48.03-.96,0-1.43-.02-.31.09-.37.38-.37,1.95.01,3.91,0,5.86,0,1.54,0,3.07,0,4.61,0,.28,0,.4.06.38.37-.02.48,0,.95,0,1.43Z"/>
    <g>
      <path class="st0" d="M28.62,50.51h-.04s-.03-.04-.03-.04c.07-.14.06-.29.06-.44,0-3.42.01-6.84,0-10.26,0-.8.08-1.61-.05-2.41.02-.01.05-.03.07-.04.52,0,1.04.01,1.57.03.21,0,.29-.07.29-.28-.01-1.15-.02-2.3-.02-3.45-.02-.04,0-.06.04-.07.53.11,1.06.02,1.59.05.22.01.27-.11.27-.31,0-1.14-.01-2.28-.02-3.42,0,0,0,0,0,0,.52,0,1.05,0,1.57,0,.25,0,.34-.08.33-.33-.02-.52,0-1.04-.01-1.57,0,0,0,0,0,0,1.13,0,2.26,0,3.39.02.3,0,.39-.1.38-.39-.02-.5,0-1.01,0-1.52,0,0,0,0,0,0,1.76,0,3.51.01,5.27.02.22,0,.33-.06.32-.3-.02-.52-.02-1.04-.02-1.56v-.04s.03-.02.03-.02c.15.02.29.05.44.05,3.45,0,6.91,0,10.36,0,.15,0,.29-.03.44-.05l.03.02s0,.04,0,.04c0,.52,0,1.04-.02,1.56,0,.24.1.3.32.3,1.76-.01,3.51-.02,5.27-.02,0,0,0,0,0,0,0,.51.02,1.01,0,1.52,0,.29.08.39.38.39,1.13-.02,2.26-.01,3.39-.02,0,0,0,0,0,0,0,.52,0,1.05-.01,1.57,0,.25.08.34.33.33.52-.02,1.04,0,1.57,0,0,0,0,0,0,0,0,1.14-.01,2.27-.02,3.4,0,.18.02.33.26.32.54-.03,1.07.06,1.61-.05.05,0,.06.03.04.07,0,1.15-.02,2.3-.03,3.45,0,.22.09.29.3.28.52-.01,1.04-.02,1.56-.03.04-.02.06,0,.05.04-.01.13-.04.27-.04.4,0,4.09,0,8.18,0,12.27,0,.15-.02.3.06.44l-.03.04s-.04,0-.04,0c-.49-.01-.98,0-1.47-.04-.32-.02-.4.11-.4.41,0,1.1,0,2.2-.01,3.3,0,0,0,0,0,0-.51,0-1.01.01-1.52,0-.24,0-.35.06-.35.32.02,1.15.02,2.3.02,3.45,0,0,0,0,0,0-.52,0-1.04,0-1.56-.01-.25,0-.34.09-.34.34.01.52,0,1.04,0,1.56,0,0,0,0,0,0-.51,0-1.01,0-1.52-.02-.3-.01-.38.12-.38.4.01.51,0,1.01,0,1.52,0,0,0,0,0,0-.49,0-.99,0-1.48-.03-.35-.03-.42.12-.42.44.01,1.07,0,2.15,0,3.22,0,1.73,0,3.46,0,5.19,0,.23.03.43-.33.43-2.25-.01-4.51-.01-6.76,0-.29,0-.35-.12-.34-.37.01-.48,0-.96,0-1.43.49,0,.98-.02,1.47-.01.24,0,.35-.06.34-.33-.02-.4-.02-.8,0-1.2.01-.29-.11-.35-.37-.35-.5.01-1.01,0-1.51,0,.07-.63.09-1.26.08-1.9,0,0,0,0,0,0,.46,0,.92,0,1.38.03.32.02.45-.11.45-.44,0-.49-.05-.98.03-1.47.63,0,1.27,0,1.9,0,.46,0,.93-.01,1.39.02.35.02.43-.12.42-.44-.02-.96,0-1.91-.01-2.87,0-.29.08-.41.38-.39.37.02.75,0,1.12,0,.28.01.41-.07.39-.38-.02-.33.02-.66-.01-.98-.03-.39.07-.58.51-.53.31.04.63-.02.94.01.37.04.47-.12.44-.46-.02-.36,0-.72,0-1.07-.01-.28.1-.37.37-.35.36.02.72-.02,1.07.01.36.03.46-.1.45-.45-.02-.97,0-1.94-.01-2.91,0-.32.1-.42.41-.41.36.02.72-.01,1.07.01.31.02.41-.09.41-.41-.02-.94.01-1.88-.01-2.82-.01-.39.12-.5.49-.47.34.03.69,0,1.03,0,.17,0,.29-.03.3-.24,0-1.01.01-2.03.06-3.04.03-.6-.02-1.21-.05-1.81-.05-.98,0-1.97-.02-2.96,0-.43.18-.97-.08-1.26-.27-.29-.82-.1-1.25-.09-.36,0-.5-.09-.49-.47.03-.96,0-1.91.01-2.87,0-.27-.09-.37-.36-.36-.36.02-.72-.02-1.07.01-.35.03-.47-.09-.46-.45.02-.99,0-1.97.01-2.96,0-.27-.08-.38-.36-.36-.39.02-.78,0-1.16,0-.27.01-.38-.07-.37-.35.02-.34-.02-.69.01-1.03.03-.38-.08-.53-.49-.51-.76.03-1.52,0-2.28,0q-.99,0-.99-.97c0-.13-.02-.27,0-.4.07-.43-.12-.52-.52-.52-1.55.02-3.11,0-4.66.01-.29,0-.41-.07-.39-.38.02-.37,0-.75,0-1.12,0-.25-.07-.39-.36-.39-2.27,0-4.54,0-6.81,0-.28,0-.37.13-.36.38,0,.34-.02.69,0,1.03.03.38-.1.48-.47.48-1.52-.02-3.05,0-4.57-.02-.39,0-.58.07-.53.51.04.32-.01.66.01.98.02.32-.11.4-.41.4-.99-.02-1.97,0-2.96-.01-.32,0-.42.1-.4.41.02.39,0,.78,0,1.16,0,.23-.09.32-.32.31-.37-.01-.75.02-1.12,0-.35-.03-.46.09-.46.45.02.99,0,1.97.01,2.96,0,.27-.08.38-.36.36-.39-.02-.78,0-1.16,0-.27-.01-.37.08-.36.36.02.64.01,1.28,0,1.93,0,.44.19,1.01-.08,1.3-.27.3-.85.1-1.29.09-.37,0-.45.13-.44.47.02,1.37,0,2.75,0,4.12,0,1.48,0,2.96,0,4.44,0,.28.07.41.38.39.34-.02.69.01,1.03,0,.31-.02.41.09.41.41-.02.94.01,1.88-.01,2.82-.01.39.12.5.49.47.33-.03.66.02.98-.01.35-.03.43.11.42.44-.02.97,0,1.94-.01,2.91,0,.34.11.45.44.42.37-.03.75,0,1.12,0,.25,0,.34.09.34.34-.01.4,0,.81,0,1.21,0,.25.08.35.34.34.4-.01.81,0,1.21,0,.25,0,.35.08.34.33-.01.4,0,.81,0,1.21,0,.25.07.36.33.34.34-.01.69.02,1.03,0,.4-.03.55.08.53.51-.03.94,0,1.88-.02,2.82,0,.27.09.37.36.36.51-.02,1.02,0,1.52,0,.61,0,1.21,0,1.82,0,.09.52.02,1.04.03,1.55,0,.23.05.37.32.35.5-.02,1.01-.02,1.51-.03h0c0,.62,0,1.25,0,1.88-.49,0-.98.02-1.47.01-.25,0-.35.07-.34.33.02.4.01.8,0,1.2,0,.25.09.34.34.34.49,0,.98,0,1.47.01,0,.49-.03.99,0,1.48.01.3-.09.38-.38.38-.88-.02-1.76,0-2.64,0-1.48,0-2.95.02-4.43.03h0c0-2.48,0-4.97,0-7.46,0-.51,0-1.01-.01-1.52,0-.24-.07-.39-.36-.38-.51.02-1.01.02-1.52.03,0,0,0,0,0,0,0-.52,0-1.04,0-1.56,0-.24-.07-.36-.33-.35-.52.02-1.04.02-1.56.02,0,0,0,0,0,0,0-.52,0-1.04,0-1.56,0-.25-.09-.35-.34-.34-.52.01-1.04.01-1.56.01,0,0,0,0,0,0,0-1.15,0-2.3.02-3.45,0-.27-.11-.33-.35-.32-.51.01-1.01,0-1.52,0,0,0,0,0,0,0,0-1.1-.01-2.2-.01-3.31,0-.25-.02-.43-.35-.41-.5.03-1.01.03-1.52.04ZM56.64,66.31q0-.92-.77-.92-1.03,0-1.03,1.02,0,.85.84.85t.96-.95ZM43.55,66.31q0-.92-.77-.92-1.03,0-1.03,1.02,0,.85.84.85.96,0,.96-.95Z"/>
      <path class="st2" d="M52.95,69.16c0,.48.02.96,0,1.43,0,.25.05.38.34.37,2.25-.01,4.51-.01,6.76,0,.36,0,.33-.2.33-.43,0-1.73,0-3.46,0-5.19,0-1.07.02-2.15,0-3.22,0-.32.06-.47.42-.44.49.04.98.03,1.48.03,0,1.49,0,2.99,0,4.48-.06.09-.06.18,0,.26,0,1.39,0,2.78,0,4.17,0,.31-.08.42-.4.4-.37-.03-.75.01-1.12-.01-.3-.02-.37.09-.37.37.01,1.93,0,3.85,0,5.78,0,2.18,0,4.36,0,6.54,0,.31-.08.42-.39.4-.39-.02-.78,0-1.16-.01-.25-.01-.34.06-.33.32.02.42,0,.84.01,1.25.01.24-.08.3-.31.3-1.02,0-2.03,0-3.05,0-.28,0-.4.06-.38.37.03.34-.04.69.01,1.03.06.44-.13.5-.5.47-.36-.03-.72,0-1.07-.01-.24-.01-.31.07-.31.31.02.42,0,.84,0,1.25,0,.21-.02.32-.28.32-2.32,0-4.63,0-6.95,0-.23,0-.27-.09-.27-.29.01-.42,0-.84,0-1.25,0-.25-.06-.35-.32-.33-.4.02-.81-.01-1.21.01-.29.02-.36-.09-.34-.36.02-.39-.01-.78.01-1.16.02-.29-.09-.35-.36-.35-1,.01-2,0-3,.01-.28,0-.39-.06-.38-.36.02-.49,0-.99,0-1.48,0,0,.03,0,.03,0,.16-.01.32-.03.49-.03,2.85,0,5.71,0,8.56,0,3.08,0,6.15,0,9.23,0,.28,0,.41-.05.39-.36-.03-.33-.04-.66,0-.98.06-.45-.13-.53-.55-.53-4.08.01-8.17,0-12.25,0-1.81,0-3.62.02-5.42,0-.38,0-.48.12-.46.48.02.46-.01.92-.02,1.39-.05,0-.1,0-.15.01-.45,0-.9-.02-1.34,0-.31.02-.37-.1-.37-.38,0-2.73,0-5.45,0-8.18,0-1.5,0-3.01,0-4.51,1.48,0,2.95-.02,4.43-.03.88,0,1.76-.01,2.64,0,.29,0,.39-.08.38-.38-.02-.49,0-.98,0-1.48.63-.01,1.25-.02,1.88-.03,1.26.03,2.53.04,3.79,0,.61.01,1.23.03,1.84.04ZM49.2,80.35c2.96,0,5.92,0,8.87,0,.38,0,.47-.11.46-.48-.02-.97-.02-1.94,0-2.91,0-.27-.07-.37-.35-.36-.73.02-1.46,0-2.2,0-5.2,0-10.4.01-15.59,0-.44,0-.55.12-.53.55.03.91.03,1.82,0,2.73-.01.37.09.48.47.47,2.96-.02,5.91,0,8.87,0ZM49.24,72.9c-2.69,0-5.38,0-8.07,0-.42,0-.96-.18-1.21.07-.28.27-.04.82-.1,1.24-.06.46.14.53.55.53,5.59-.01,11.17,0,16.76-.01.43,0,.99.18,1.26-.07.29-.28.04-.85.1-1.29.06-.43-.14-.48-.51-.48-2.93.01-5.86,0-8.78,0ZM49.17,87.81c.77,0,1.55.02,2.32,0,.48-.02,1.13.24,1.38-.13.23-.34.05-.95.06-1.44,0-.23-.09-.27-.29-.27-2.3,0-4.59,0-6.89,0-.24,0-.31.08-.3.31.01.39.03.78,0,1.16-.02.33.11.39.41.39,1.1-.02,2.21,0,3.31,0Z"/>
      <path class="st2" d="M28.55,37.37c.13.8.05,1.61.05,2.41.02,3.42,0,6.84,0,10.26,0,.15.02.3-.06.44-.46,0-.93-.03-1.39,0-.31.02-.4-.07-.4-.39.01-2.91,0-5.82,0-8.74,0-1.19.01-2.39,0-3.58,0-.32.1-.41.4-.39.46.02.93,0,1.39,0Z"/>
      <path class="st2" d="M69.83,50.47c-.07-.14-.06-.29-.06-.44,0-4.09,0-8.18,0-12.27,0-.13.02-.27.04-.4.48,0,.96.02,1.43,0,.29-.01.38.07.38.37-.02,1.43,0,2.87,0,4.3,0,2.76,0,5.53-.01,8.29-.07.01-.1.07-.11.14-.55,0-1.11,0-1.66,0Z"/>
      <path class="st2" d="M36.1,61.72c.51,0,1.01,0,1.52-.03.29-.01.36.13.36.38,0,.51.01,1.01.01,1.52,0,2.49,0,4.98,0,7.47-.49,0-.98-.04-1.47-.01-.35.02-.41-.1-.41-.43.01-2.89,0-5.78,0-8.67,0-.07,0-.15-.01-.22Z"/>
      <path class="st2" d="M43.55,24.28c0,.52,0,1.04.02,1.56,0,.24-.09.31-.32.3-1.76-.01-3.51-.02-5.27-.02,0-.45.02-.9,0-1.34-.03-.38.06-.51.48-.5,1.56.03,3.13.02,4.69.02.13,0,.27-.01.4-.02Z"/>
      <path class="st2" d="M60.41,26.13c-1.76,0-3.51.01-5.27.02-.22,0-.33-.06-.32-.3.02-.52.02-1.04.02-1.56,1.7,0,3.4.03,5.09,0,.41,0,.5.12.48.5-.03.44,0,.89,0,1.34Z"/>
      <path class="st2" d="M37.99,26.12c0,.51-.02,1.01,0,1.52,0,.29-.08.39-.38.39-1.13-.02-2.26-.01-3.39-.02,0-.46.04-.92.01-1.38-.02-.36.07-.49.46-.48.94.03,1.88.01,2.82,0,.16,0,.32-.02.49-.04Z"/>
      <path class="st2" d="M64.17,28.01c-1.13,0-2.26,0-3.39.02-.3,0-.39-.1-.38-.39.02-.5,0-1.01,0-1.52,1.08.09,2.17.04,3.26.03.43,0,.53.13.5.53-.03.44,0,.89.01,1.34Z"/>
      <path class="st2" d="M30.5,54.19c.51,0,1.01.01,1.52,0,.24,0,.35.06.35.32-.02,1.15-.02,2.3-.02,3.45-.49,0-.98-.03-1.47,0-.3.01-.38-.08-.37-.38.01-1.13,0-2.26,0-3.39Z"/>
      <path class="st2" d="M66.05,57.96c0-1.15,0-2.3-.02-3.45,0-.27.11-.33.35-.32.51.01,1.01,0,1.52,0,0,1.13-.02,2.26,0,3.39,0,.29-.08.39-.37.38-.49-.02-.98,0-1.47,0Z"/>
      <path class="st2" d="M69.76,37.33c-.52,0-1.04.01-1.56.03-.2,0-.3-.07-.3-.28.01-1.15.02-2.3.03-3.45.48,0,.95.03,1.43,0,.31-.02.4.07.4.39-.02,1.1,0,2.2,0,3.3Z"/>
      <path class="st2" d="M30.46,33.63c0,1.15.01,2.3.02,3.45,0,.21-.08.29-.29.28-.52-.02-1.04-.02-1.57-.03,0-1.1.02-2.2,0-3.3,0-.32.09-.41.4-.39.47.02.95,0,1.43,0Z"/>
      <path class="st2" d="M67.89,33.57c-.53.11-1.07.02-1.61.05-.24.01-.26-.14-.26-.32,0-1.13.01-2.27.02-3.4.49,0,.98.03,1.47,0,.3-.01.38.08.37.38-.01,1.1,0,2.2,0,3.3Z"/>
      <path class="st2" d="M28.62,50.51c.51-.01,1.01,0,1.52-.04.33-.02.35.16.35.41,0,1.1,0,2.2.01,3.31-.48,0-.95-.02-1.43.02-.4.03-.45-.14-.44-.49.02-1.07,0-2.14,0-3.21Z"/>
      <path class="st2" d="M67.88,54.19c0-1.1.02-2.2.01-3.3,0-.3.07-.43.4-.41.49.03.98.03,1.47.04,0,1.1-.02,2.2,0,3.31,0,.32-.09.41-.4.39-.49-.03-.98-.01-1.47-.01Z"/>
      <path class="st2" d="M32.34,29.88c0,1.14.01,2.28.02,3.42,0,.19-.05.32-.27.31-.53-.03-1.06.06-1.59-.05,0-1.1.01-2.2,0-3.3,0-.29.07-.39.37-.38.49.02.98,0,1.47,0Z"/>
      <path class="st2" d="M66.05,29.89c-.52,0-1.05,0-1.57,0-.25,0-.34-.08-.33-.33.02-.52,0-1.04.01-1.57.51,0,1.01.03,1.52.02.29,0,.35.09.35.36,0,.5-.05,1.01.03,1.51Z"/>
      <path class="st2" d="M34.22,28c0,.52,0,1.05.01,1.57,0,.25-.08.34-.33.33-.52-.02-1.04,0-1.57,0,.08-.5.03-1.01.03-1.51,0-.27.06-.37.35-.36.5.02,1.01,0,1.52-.02Z"/>
      <path class="st2" d="M34.22,59.83c.52,0,1.04,0,1.56-.02.26,0,.33.11.33.35,0,.52,0,1.04,0,1.56-.5-.1-1.01-.04-1.51-.04-.3,0-.38-.1-.37-.38.02-.49,0-.98-.01-1.47Z"/>
      <path class="st2" d="M32.33,57.95c.52,0,1.04,0,1.56-.01.25,0,.34.09.34.34-.01.52,0,1.04,0,1.56-.5,0-1.01-.04-1.51-.02-.28,0-.35-.09-.35-.36.01-.5-.02-1.01-.03-1.51Z"/>
      <path class="st2" d="M64.16,59.84c0-.52,0-1.04,0-1.56,0-.25.09-.35.34-.34.52.01,1.04.01,1.56.01-.01.5-.04,1.01-.03,1.51,0,.27-.07.36-.35.36-.5-.01-1.01.01-1.51.02Z"/>
      <path class="st2" d="M62.28,61.72c0-.51.01-1.01,0-1.52,0-.28.07-.41.38-.4.51.02,1.01.02,1.52.02,0,.49-.03.98-.01,1.47.01.29-.07.39-.37.38-.5,0-1.01-.06-1.51.04Z"/>
      <path class="st0" d="M62.28,66.46c-.05-.09-.05-.18,0-.26.06.09.07.18,0,.26Z"/>
      <path class="st0" d="M71.49,50.47c.01-.07.04-.12.11-.14,0,.04.04.08.03.11-.03.06-.08.07-.14.03Z"/>
      <path class="st0" d="M39.68,84.11s.1,0,.15-.01c0,.01.02.03.03.04,0,0-.03,0-.03,0-.05-.01-.1-.02-.16-.03Z"/>
      <path class="st1" d="M51.11,69.12c-1.26.05-2.53.04-3.79,0,0-.62,0-1.24-.01-1.86,0,0,0,0,0,0,.01,0,.04,0,.04-.01,0-.02,0-.05-.01-.07,0-.44-.02-.89,0-1.33.02-.34-.06-.48-.43-.45-.49.03-.98,0-1.47,0,0,0,0,0,0,0,0-1.85,0-3.7,0-5.56h0c.51,0,1.01-.03,1.52-.02.27,0,.39-.05.39-.36-.01-2.86-.02-5.72,0-8.58,0-.36-.12-.41-.43-.41-.49,0-.98.06-1.47-.04h0c0-.48,0-.97.02-1.46.02-.31-.11-.38-.38-.36-.37.02-.74.02-1.11,0-.28-.02-.4.07-.38.37.02.47,0,.95,0,1.42-.06,3.16-.02,6.32,0,9.48,0,1.21,0,2.43,0,3.64-.61,0-1.21,0-1.82,0,0-2.35,0-4.69.01-7.04,0-.34-.1-.45-.44-.42-.34.03-.69-.02-1.03.01-.35.03-.43-.11-.42-.44.02-.97,0-1.94.01-2.91,0-.34-.11-.45-.44-.43-.34.02-.69-.02-1.03.01-.34.03-.44-.1-.43-.43.02-.96,0-1.91.01-2.87,0-.29-.08-.41-.38-.39-.34.02-.69-.02-1.03.01-.36.03-.5-.08-.49-.47.03-.94,0-1.88.02-2.82,0-.36-.08-.52-.47-.49-.33.03-.66-.01-.99.01-.32.02-.45-.06-.44-.42.02-.99.02-1.97,0-2.96,0-.28.07-.41.38-.39.28.02.57,0,.85,0,.72,0,.66.08.66-.64,0-.9,0-1.79,0-2.69,0-.33.12-.48.46-.39.34.08.69,0,1.03.04.32.03.41-.11.4-.41-.02-.97.01-1.94-.01-2.91,0-.36.11-.45.46-.45,1.57.02,3.14,0,4.71.01.31,0,.43-.08.41-.41-.02-.33.02-.66-.01-.99-.03-.41.14-.52.52-.5.76.02,1.52,0,2.29,0,2.66,0,5.32,0,7.98,0,.37,0,.56.07.51.49-.04.32.01.66-.01.98-.03.34.11.43.44.43,1.55-.01,3.11,0,4.66-.02.37,0,.49.1.48.48-.02.96-.01,1.91,0,2.87,0,.17-.04.44.23.38.41-.09.79.13,1.2.05.39-.08.47.12.46.48-.02.93,0,1.85-.01,2.78,0,.34.1.45.44.43.37-.03.75,0,1.12,0,.25,0,.34.09.34.34-.01.66,0,1.31,0,1.97,0,.46.19,1.05-.08,1.35-.28.31-.88.1-1.33.09-.38,0-.49.11-.48.48.02.97,0,1.94.01,2.91,0,.29-.09.4-.38.38-.36-.02-.72.01-1.07-.01-.33-.02-.44.09-.44.43.02.91-.01,1.82.01,2.73.01.39-.07.58-.51.53-.31-.04-.63.02-.94-.01-.37-.04-.45.12-.45.46.02.96-.01,1.91.01,2.87,0,.37-.12.47-.46.44-.28-.02-.57.02-.85-.01-.4-.05-.5.1-.5.5.02,2.32,0,4.63,0,6.95-.63,0-1.27,0-1.9,0,0-1.12-.02-2.23-.01-3.35,0-.26-.05-.39-.34-.37-.5.03-1.01.03-1.51.05,0-3.14,0-6.28,0-9.42.53.1,1.07.02,1.6.05.21.01.25-.1.25-.28,0-.43,0-.87,0-1.3,0-.2-.05-.3-.28-.29-.45.01-.9.01-1.34,0-.2,0-.26.08-.25.27.02.52.02,1.04.03,1.56-.5.08-1.01.03-1.52.03-.27,0-.39.05-.39.36.01,2.88.01,5.75,0,8.63,0,.31.11.37.39.37.51-.01,1.01.01,1.52.02,0,1.85,0,3.71-.01,5.56,0,0,0,0,0,0-.47,0-.95.04-1.42.01-.36-.02-.51.07-.48.45.04.44,0,.89,0,1.34,0,.04,0,.07,0,.11.02.61.03,1.22.05,1.83Z"/>
      <path class="st4" d="M56.72,63.5c0-2.32,0-4.63,0-6.95,0-.39.1-.54.5-.5.28.03.57-.01.85.01.34.03.47-.08.46-.44-.03-.96,0-1.91-.01-2.87,0-.34.07-.5.45-.46.31.03.63-.02.94.01.44.05.52-.14.51-.53-.02-.91,0-1.82-.01-2.73,0-.34.1-.45.44-.43.36.02.72-.01,1.07.01.29.02.39-.09.38-.38-.01-.97.01-1.94-.01-2.91,0-.37.1-.49.48-.48.45,0,1.05.21,1.33-.09.27-.3.07-.89.08-1.35.01-.66,0-1.31,0-1.97,0-.25-.08-.35-.34-.34-.37.01-.75-.02-1.12,0-.33.02-.44-.09-.44-.43.02-.93,0-1.85.01-2.78,0-.36-.08-.55-.46-.48-.4.08-.78-.14-1.2-.05-.26.06-.23-.22-.23-.38,0-.96-.02-1.91,0-2.87,0-.37-.1-.48-.48-.48-1.55.02-3.11,0-4.66.02-.33,0-.47-.08-.44-.43.03-.33-.02-.66.01-.98.05-.42-.14-.49-.51-.49-2.66.01-5.32,0-7.98,0-.76,0-1.52.02-2.29,0-.38-.01-.56.1-.52.5.03.33-.01.66.01.99.02.32-.1.41-.41.41-1.57-.01-3.14,0-4.71-.01-.35,0-.46.09-.46.45.02.97,0,1.94.01,2.91,0,.31-.08.44-.4.41-.34-.03-.69.04-1.03-.04-.34-.09-.46.06-.46.39,0,.9,0,1.79,0,2.69,0,.72.06.63-.66.64-.28,0-.57.02-.85,0-.3-.02-.38.11-.38.39.01.99.02,1.97,0,2.96,0,.35.12.44.44.42.33-.02.66.02.99-.01.39-.04.48.13.47.49-.02.94.01,1.88-.02,2.82-.01.39.12.5.49.47.34-.03.69,0,1.03-.01.3-.02.38.1.38.39-.01.96,0,1.91-.01,2.87,0,.33.09.46.43.43.34-.03.69.01,1.03-.01.33-.02.45.08.44.43-.02.97,0,1.94-.01,2.91,0,.33.08.46.42.44.34-.03.69.01,1.03-.01.33-.03.44.08.44.42-.02,2.35-.01,4.69-.01,7.04-.51,0-1.02-.01-1.52,0-.27,0-.36-.09-.36-.36.01-.94-.02-1.88.02-2.82.02-.43-.14-.55-.53-.51-.34.03-.69,0-1.03,0-.26.01-.34-.1-.33-.34.01-.4,0-.81,0-1.21,0-.26-.09-.34-.34-.33-.4.01-.81,0-1.21,0-.25,0-.35-.09-.34-.34.01-.4,0-.81,0-1.21,0-.25-.08-.35-.34-.34-.37.01-.75-.02-1.12,0-.33.02-.44-.08-.44-.42.02-.97,0-1.94.01-2.91,0-.33-.08-.47-.42-.44-.33.03-.66-.02-.98.01-.36.03-.5-.08-.49-.47.03-.94,0-1.88.01-2.82,0-.31-.09-.43-.41-.41-.34.02-.69-.01-1.03,0-.3.02-.38-.11-.38-.39.01-1.48,0-2.96,0-4.44,0-1.37,0-2.75,0-4.12,0-.34.07-.48.44-.47.44,0,1.02.21,1.29-.09.26-.29.07-.86.08-1.3.01-.64.01-1.28,0-1.93,0-.28.09-.37.36-.36.39.02.78,0,1.16,0,.28.01.36-.09.36-.36-.01-.99.01-1.97-.01-2.96,0-.36.1-.48.46-.45.37.03.75,0,1.12,0,.23,0,.32-.08.32-.31-.01-.39.01-.78,0-1.16-.02-.31.08-.42.4-.41.99.02,1.97,0,2.96.01.3,0,.44-.08.41-.4-.02-.33.03-.66-.01-.98-.05-.44.14-.51.53-.51,1.52.02,3.05,0,4.57.02.37,0,.51-.1.47-.48-.03-.34,0-.69,0-1.03,0-.26.08-.38.36-.38,2.27,0,4.54,0,6.81,0,.28,0,.36.14.36.39,0,.37.01.75,0,1.12-.02.3.1.38.39.38,1.55-.01,3.11,0,4.66-.01.4,0,.59.09.52.52-.02.13,0,.27,0,.4q0,.97.99.97c.76,0,1.52.03,2.28,0,.41-.02.52.13.49.51-.03.34,0,.69-.01,1.03-.02.28.1.37.37.35.39-.02.78,0,1.16,0,.28-.01.36.09.36.36-.01.99,0,1.97-.01,2.96,0,.36.1.48.46.45.36-.03.72,0,1.07-.01.27-.01.36.09.36.36-.01.96.01,1.91-.01,2.87-.01.38.12.48.49.47.43,0,.98-.2,1.25.09.26.28.07.83.08,1.26.01.99-.03,1.97.02,2.96.03.6.08,1.21.05,1.81-.05,1.01-.06,2.03-.06,3.04,0,.21-.13.24-.3.24-.34,0-.69.02-1.03,0-.36-.03-.5.08-.49.47.03.94,0,1.88.01,2.82,0,.31-.09.43-.41.41-.36-.02-.72.01-1.07-.01-.31-.02-.41.09-.41.41.02.97,0,1.94.01,2.91,0,.35-.09.48-.45.45-.36-.03-.72,0-1.07-.01-.27-.01-.38.07-.37.35.02.36-.01.72,0,1.07.02.34-.07.5-.44.46-.31-.03-.63.02-.94-.01-.44-.05-.54.14-.51.53.03.33-.01.66.01.98.02.3-.11.39-.39.38-.37-.02-.75.01-1.12,0-.3-.02-.38.1-.38.39.01.96,0,1.91.01,2.87,0,.32-.07.46-.42.44-.46-.03-.92-.01-1.39-.02Z"/>
      <path class="st2" d="M43.57,63.51c0-1.21,0-2.43,0-3.64.62-.11,1.24-.04,1.86-.04,0,1.85,0,3.7,0,5.56-.51,0-1.01,0-1.51.03-.27.01-.31-.12-.32-.35,0-.52.05-1.04-.03-1.55Z"/>
      <path class="st2" d="M52.95,59.84c.5-.01,1.01-.02,1.51-.05.29-.02.34.11.34.37,0,1.12,0,2.23.01,3.35-.09.49-.03.98-.03,1.47,0,.33-.13.46-.45.44-.46-.02-.92-.02-1.38-.03,0-1.85,0-3.71.01-5.56,0,0,0,0,0,0Z"/>
      <path class="st4" d="M47.31,67.27c0,.62,0,1.24.01,1.86-.63.01-1.25.02-1.88.03-.49,0-.98-.02-1.47-.01-.25,0-.35-.08-.34-.34.01-.4.01-.8,0-1.2-.01-.26.09-.33.34-.33.49,0,.98,0,1.47-.01.62,0,1.25,0,1.87,0Z"/>
      <path class="st4" d="M51.11,69.12c-.02-.61-.03-1.22-.05-1.83.03,0,.06,0,.09-.01.58,0,1.15,0,1.73,0,.5,0,1.01.01,1.51,0,.26,0,.38.06.37.35-.02.4-.02.8,0,1.2.01.26-.1.33-.34.33-.49,0-.98,0-1.47.01-.61-.01-1.23-.03-1.84-.04Z"/>
      <path class="st2" d="M47.31,67.27c-.62,0-1.25,0-1.87,0,0-.63,0-1.25,0-1.88.49,0,.98.04,1.47,0,.37-.02.45.12.43.45-.03.44,0,.89,0,1.33-.02.02-.03.05-.02.08h0Z"/>
      <path class="st2" d="M52.88,67.28c-.58,0-1.15,0-1.73,0-.03-.03-.06-.06-.09-.1,0-.45.03-.89,0-1.34-.03-.39.12-.48.48-.45.47.03.95,0,1.42-.01.02.63-.01,1.27-.08,1.9Z"/>
      <path class="st4" d="M56.64,66.31q0,.95-.96.95t-.84-.85q0-1.02,1.03-1.02.77,0,.77.92Z"/>
      <path class="st4" d="M43.55,66.31q0,.95-.96.95t-.84-.85q0-1.02,1.03-1.02.77,0,.77.92Z"/>
      <path class="st3" d="M49.2,80.35c-2.96,0-5.91,0-8.87,0-.38,0-.48-.1-.47-.47.03-.91.03-1.82,0-2.73-.02-.43.09-.55.53-.55,5.2.01,10.4,0,15.59,0,.73,0,1.46.02,2.2,0,.28,0,.36.09.35.36-.01.97-.02,1.94,0,2.91,0,.36-.08.48-.46.48-2.96-.02-5.92,0-8.87,0Z"/>
      <path class="st3" d="M39.87,84.13s-.03-.02-.03-.04c.01-.46.05-.93.02-1.39-.02-.36.08-.48.46-.48,1.81.02,3.61,0,5.42,0,4.08,0,8.17,0,12.25,0,.42,0,.6.07.55.53-.04.32-.03.66,0,.98.03.31-.11.36-.39.36-3.08,0-6.15,0-9.23,0-2.85,0-5.71,0-8.56,0-.16,0-.32.02-.49.03Z"/>
      <path class="st3" d="M49.24,72.9c2.93,0,5.86,0,8.78,0,.37,0,.56.05.51.48-.06.44.19,1.01-.1,1.29-.27.25-.83.07-1.26.07-5.59,0-11.17,0-16.76.01-.41,0-.61-.07-.55-.53.06-.42-.18-.98.1-1.24.26-.24.8-.07,1.21-.07,2.69,0,5.38,0,8.07,0Z"/>
      <path class="st3" d="M49.17,87.81c-1.1,0-2.21-.01-3.31,0-.3,0-.43-.06-.41-.39.03-.39.02-.77,0-1.16,0-.23.07-.31.3-.31,2.3,0,4.59,0,6.89,0,.2,0,.3.05.29.27-.02.49.17,1.1-.06,1.44-.25.37-.9.11-1.38.13-.77.03-1.55,0-2.32,0Z"/>
      <path class="st4" d="M45.43,59.83c-.62,0-1.24-.07-1.86.04-.01-3.16-.06-6.32,0-9.48.62.11,1.24.05,1.86.04,0,0,0,0,0,0,0,.14.02.28.03.43,0,.08,0,.16,0,.24,0,1.92,0,3.85,0,5.77,0,1-.02,2-.03,2.99h0Z"/>
      <path class="st2" d="M52.96,50.41c0,3.14,0,6.28,0,9.42,0,0,0,0,0,0-.51,0-1.01-.03-1.52-.02-.28,0-.39-.05-.39-.37.01-2.88.01-5.75,0-8.63,0-.32.12-.36.39-.36.51,0,1.01.05,1.52-.03h0Z"/>
      <path class="st2" d="M45.43,59.84c.01-1,.03-2,.03-2.99,0-1.92,0-3.85,0-5.77.15-.08.15-.16,0-.24,0-.14-.02-.28-.03-.43.49.1.98.04,1.47.04.31,0,.44.06.43.41-.02,2.86-.01,5.72,0,8.58,0,.32-.11.37-.39.36-.5,0-1.01.02-1.52.03Z"/>
      <path class="st2" d="M45.43,50.42c-.62.02-1.24.08-1.86-.04,0-.47.03-.95,0-1.42-.01-.3.1-.39.38-.37.37.02.74.02,1.11,0,.28-.01.4.05.38.36-.03.49-.02.98-.02,1.47Z"/>
      <path class="st2" d="M52.96,50.42c0-.52-.01-1.04-.03-1.56,0-.19.05-.27.25-.27.45.01.9.01,1.34,0,.22,0,.28.09.28.29-.01.43,0,.87,0,1.3,0,.18-.04.29-.25.28-.53-.03-1.07.05-1.6-.05,0,0,0,0,0,0Z"/>
      <path class="st0" d="M51.07,67.18s.06.06.09.1c-.03,0-.06,0-.09.01,0-.04,0-.07,0-.11Z"/>
      <path class="st0" d="M47.3,67.26s0-.06.02-.08c0,.02.01.05.01.07,0,0-.02,0-.04.01Z"/>
      <path class="st0" d="M45.45,50.84c.16.08.15.16,0,.24,0-.08,0-.16,0-.24Z"/>
    </g>
  </g>
  <g>
    <g>
      <rect class="st3" x="47.65" y="5.23" width="2.92" height="9.22"/>
      <polygon class="st3" points="62.76 11.27 62.76 17.37 65.73 17.37 65.73 14.32 68.85 14.32 68.85 8.35 65.81 8.35 65.81 11.17 62.76 11.27"/>
      <polygon class="st3" points="74.95 26.38 74.95 29.35 80.94 29.35 80.94 26.48 84.22 26.48 84.22 23.41 78.12 23.41 78.12 26.38 74.95 26.38"/>
      <polygon class="st3" points="29.38 8.35 29.38 14.29 32.36 14.29 32.36 17.37 35.38 17.37 35.38 11.42 32.38 11.42 32.38 8.35 29.38 8.35"/>
      <polygon class="st3" points="14.15 23.45 14.15 26.36 17.31 26.36 17.31 29.12 23.31 29.12 23.31 26.5 20.33 26.5 20.33 23.45 14.15 23.45"/>
    </g>
    <rect class="st3" x="77.99" y="41.67" width="9.05" height="3.19"/>
    <g>
      <rect class="st3" x="11.35" y="41.67" width="9.05" height="3.19"/>
      <g>
        <polygon class="st3" points="14.15 59.85 14.15 62.69 20.33 62.69 20.33 59.85 23.37 59.85 23.37 56.74 17.29 56.74 17.29 59.85 14.15 59.85"/>
        <polygon class="st3" points="74.89 56.81 74.89 59.76 77.87 59.76 77.87 62.74 84.08 62.74 84.08 59.78 80.96 59.78 80.96 56.81 74.89 56.81"/>
      </g>
    </g>
  </g>
</svg>