<?xml version="1.0" encoding="UTF-8"?>
<svg id="Camada_1" xmlns="http://www.w3.org/2000/svg" version="1.1" viewBox="0 0 658.64 650.17">
  <!-- Generator: Adobe Illustrator 30.0.0, SVG Export Plug-In . SVG Version: 2.1.1 Build 123)  -->
  <defs>
    <style>
      .st0 {
        fill: #b0eded;
      }

      .st1 {
        fill: #1d1d1b;
      }

      .st2 {
        fill: #cbf4f4;
      }

      .st3 {
        fill: #dcf9f8;
      }

      .st4, .st5, .st6 {
        fill-rule: evenodd;
      }

      .st7 {
        fill: #fff;
      }

      .st5 {
        fill: #59af31;
      }

      .st6 {
        fill: #4dbcc3;
      }
    </style>
  </defs>
  <circle class="st3" cx="329.32" cy="325.09" r="316.83"/>
  <circle class="st2" cx="329.32" cy="325.09" r="301.64"/>
  <circle class="st0" cx="329.32" cy="325.09" r="263.73"/>
  <g>
    <g>
      <g>
        <g>
          <path class="st6" d="M448.82,393.35c-4.27-2.56-8.79-3.74-13.8-2.15-5.22,1.65-10.32,3.58-15.3,5.85-1.17.53-2.42,1.11-3.67,1.2-8.92.6-17.09-1.35-24.08-7.26-1.32-1.12-2.37-2.39-3.08-3.98-2.12-4.78-1.92-9.67-.55-14.53.99-3.51,2.31-6.91,3.48-10.37.12-.37.28-.76.27-1.13-.03-3.91.45-7.92-.28-11.69-.88-4.59,0-8.79,1.12-13.07.16-.62.51-1.2.89-1.73,2.72-3.84,4.87-8.01,6.79-12.29,1.05-2.33,2.58-4.24,4.59-5.75,2.39-1.8,4.76-3.67,7.34-5.18,3.62-2.13,6.06-5.28,8.29-8.67,1.08-1.64,1.76-3.49,1.79-5.51.02-1.42,0-2.83,0-4.45-.81-.08-1.57-.1-2.31-.23-1.83-.35-2.44-1.02-2.67-2.84-.05-.39-.1-.78-.06-1.17.3-3.46-.83-6.4-3.09-9-1.35-1.55-2.03-3.42-1.71-5.44.26-1.65.85-3.27,1.47-4.83.2-.49.95-.95,1.52-1.05.87-.16,1.86-.19,2.68.09,2.56.87,5.13.72,7.75.5.39-.41.81-.74,1.09-1.16,1.68-2.52,1.25-3.95-1.39-5.21-1.64-.79-3.22-1.7-4.8-2.61-1.12-.64-1.59-1.67-1.55-2.95.08-2.58,1.71-4.74,4.19-5.46,1.25-.37,2.5-.71,3.77-1.01,1.42-.34,2.74-.82,3.73-2.2-.32-1.49.93-3.12-.19-4.86-.64,1.09-.99,2.29-1.78,2.91-1.68,1.29-3.63,2.01-5.86,1.41-1.24-.33-2.54-.49-3.81-.72-2-.34-3.01-1.31-3.22-3.34-.1-1.03.09-2.08.04-3.12-.02-.42-.23-1.03-.93-.59.12,1.31.32,2.58.32,3.85,0,1.26-.64,1.96-1.94,1.99-2.61.06-5.22.1-7.82-.07-1.8-.12-2.82-1.29-2.89-3.11-.09-2.21-.14-4.45.03-6.65.15-1.96.85-3.79,2.63-5.17.61.25,1.17.53,1.76.72.94.31,1.83.21,2.43-.67.59-.86.47-1.77-.11-2.56-.69-.95-1.45-1.84-2.24-2.71-1.08-1.19-1.84-2.54-2.18-4.09-.29-1.31.13-2.32,1.33-2.97,2.05-1.11,4.15-1.41,6.31-.16.88.51,1.84,1.08,2.81,1.18,1.7.19,2.5,1.15,3.07,2.59.92,2.3,1.94,4.56,2.87,6.86,1.34,3.33,3.24,6.18,6.26,8.3,1.2.84,2,2.26,3.15,3.62,1.32.21,3.11-.28,4.29,1.52.44.67,1.83.27,2.42-.43.66-.78,1.23-1.67,1.97-2.36,1.84-1.68,3.65-3.36,4.8-5.62.66-1.3,1.73-1.88,3.17-1.88,1.04,0,2.09-.03,3.13-.03,1.83-.02,3.66.01,5.48-.06,1.69-.07,2.64-1.02,2.73-2.69.03-.63-.11-1.29-.25-1.92-.64-2.92-2.17-5.27-4.65-6.99-.57,1.04-1.02,2.12-1.69,3.05-2.99,4.11-8.1,4.21-11.24.24-.72-.92-1.27-1.98-1.97-2.92-.84-1.14-1.57-2.44-3.21-2.71-.34.14-.74.22-1.06.43-3.29,2.21-6.35,1.61-9.4-.58-2.65-1.91-2.91-4.79-3.33-7.61-.24-1.61.17-3.12,1.31-4.35,1.41-1.52,2.84-3.03,4.49-4.77-.13-1.59.18-3.6-.52-5.15-1.26-2.79-1.74-5.41-.54-8.28.19-.46.05-1.04.14-1.55.49-2.88,1.79-5.13,4.77-6.06.56-.18,1.07-.46,1.89-.81-.65-.59-1-.97-1.4-1.26-2.35-1.7-4.93-2.91-7.68-3.8-4.26-1.37-8.18-3.42-11.85-5.96-.74-.51-1.63-1.01-2.06-1.75-1.44-2.46-3.8-3.42-6.29-4.31-5.53-1.96-11.07-3.91-16.25-6.73-.46-.25-.91-.56-1.4-.68-3.65-.86-7.35-1.53-10.88-2.87-.82-.31-1.8-.23-2.71-.25-2.35-.04-4.7-.02-7.05-.04-.91-.01-1.92.16-2.72-.16-2.79-1.1-5.68-.6-8.52-.69-.56-.02-1.32-.27-1.69.66,1.61,2.6,2.17,5.74,4.01,8.3.76,1.06,1.38,2.21,2.06,3.32.61,1.02,1.16,2.08.87,3.32-.24,1.02.2,1.72.8,2.47,2.84,3.5,4.69,7.48,5.79,11.84.97,3.85.29,5.5-3.42,7.13-1.66.72-3.49,1.07-5.17,1.75-1.19.48-2.54.99-3.33,1.91-2.21,2.57-5.16,3.92-8.04,5.43-1.8.94-3.65,1.27-5.66,1.19-5.88-.23-5.31-.36-8.7,4.78-.36.54-.61,1.15-.88,1.74-.93,2.01-1.78,4.06-2.8,6.03-1.33,2.56-2.78,4.98-5.81,6.01-5.63,1.93-10.8,1.01-15.6-2.26-2.14-1.46-3.88-3.4-5.69-5.27-1.53-1.59-2.54-3.27-3.1-5.31-1.44-5.21-.58-10.12,2.38-14.57,1.13-1.7,1.91-3.36,1.85-5.42-.09-3.29-2.92-9.7-5.36-11.91-.48-.44-1.01-.83-1.55-1.19-1.73-1.14-3.47-2.26-5.41-3.52-3.62.31-7.35.13-10.5-2.6-2.22,1.5-4.26,2.9-6.31,4.28q-4.29,2.88-3.86,7.91c.01.13.01.26.02.39.05,1.12.58,2.01,1.45,2.66.62.47,1.31.86,2,1.22,1.27.66,2.59,1.24,3.85,1.93,4.15,2.28,4.66,6.27,1.23,9.59-.36.35-.79.64-1.32,1.07.85.29,1.62.46,2.29.82.79.42,1.61.9,2.2,1.55,1.6,1.8,1.36,3.46-.44,5.07-1.73,1.55-3.79,2.32-5.99,2.68-2.11.34-4,1.11-5.82,2.17-2.47,1.45-5.02,2.77-7.48,4.23-1.36.81-2.77,1-4.08.22-1.85-1.1-3.27-2.6-3.31-4.97-.04-2.48-.08-4.96-.13-7.44-.04-1.99.31-3.81,1.47-5.56,1.33-1.98,1.96-4.25,1.16-6.74-1.05-.88-2.29-1.67-3.19-2.74-.99-1.19-1.64-2.66-2.48-3.97-.56-.88-1.1-1.83-1.87-2.49-.5-.43-1.42-.56-2.13-.52-.88.04-1.35.83-1.42,1.63-.19,2.07-.36,4.05,1.23,5.88,2.45,2.82,1.99,6.99-.75,9.43-1.64,1.46-3.36,2.64-5.59,3.16-3.69.86-7.04,2.66-10.51,4.16-3.9,1.68-6.88,4.2-9.11,7.68-1.9,2.97-4.65,4.89-7.6,6.6-1.01.59-2.14.96-3.18,1.5-1.37.71-2.19,1.8-2.11,3.56.33.27.68.71,1.13.9,3.98,1.72,6.66,4.88,9.41,8.06,2.32,2.7,3.49,5.73,3.87,9.19.12,1.15.43,2.32.9,3.37.69,1.54,2.35,1.77,3.52.57.63-.65,1.22-1.37,1.68-2.15,2.55-4.31,4.11-9,5.02-13.91.16-.86.16-1.9-.17-2.68-.8-1.9-.71-3.84-.65-5.78.1-3.35,1.96-5.51,4.82-7,2.91-1.5,6.02-1.46,9.17-1.47,3.09,0,5.15,1.28,6.51,4.08.96,1.98,2.23,3.82,3.46,5.66,1.06,1.58,2.57,2.71,4.5,2.79,2.2.09,4.49.18,6.62-.28,2.21-.48,4.4-.43,6.6-.6,2.79-.22,4.79.96,6.32,3.13.75,1.06,1.46,2.15,2.1,3.28,2.5,4.41,4.96,8.83,8.22,12.77,3.8,4.6,5.81,9.83,5.13,15.93-.18,1.58-.74,2.88-2.16,3.45-3.17,1.28-6.5,2.26-9.9,1.15-2.83-.93-5.63-1.96-8.15-3.73-3.31-2.32-7.13-3.09-11.17-2.65-1.42.15-2.37.79-2.75,2.31-.57,2.26-1.2,4.54-2.05,6.7-1.04,2.63-2.15,5.08-4.76,6.9-3.89,2.71-8.4,3.39-12.64,4.97-.44.16-1.04.05-1.53-.07-1.36-.34-2.14.26-2.94,1.32-2.58,3.37-3.74,7.44-5.72,11.1-.29.53-.23,1.27-.29,1.91-.45,5.42-2.84,9.71-7.45,12.64-2.42,1.54-4.84,3.11-7.38,4.41-2.48,1.27-3.76,2.91-3.61,5.85.2,4.04.11,8.1.04,12.14-.06,3.32-1.64,5.04-4.92,5.48-1.29.17-2.61,0-3.91.12-2.91.28-5.47-1.29-6.12-4.26-.49-2.18-2.01-3.56-3.85-4.71-2.8-1.75-5.81-2.99-9.04-3.47-1.76-.26-3.61.09-5.42.16-3.95,2.61-7.13,5.77-7.41,10.85-.12,2.21-.02,4.44-.08,6.65-.13,5.07,2.02,9.32,4.83,13.31.93,1.31,2.98,1.9,4.19,1.08,2.14-1.46,4.61-2.51,6.14-4.75,2.72-4.01,6.71-4.03,10.86-3.39,1.16.18,1.83,1.04,1.99,2.15.3,2.1.41,4.16-1.48,5.76-1.23,1.04-1.86,2.46-2.2,3.94,1.93,1.97,2.75,2.6,4.85,3.31,1.6.54,3.27.89,4.89,1.38,2.53.76,3.62,2.17,3.68,4.83.05,2.22-.07,4.44.04,6.66.16,3.19,1.44,4.73,4.49,5.6.37.11.77.22,1.15.18,1.82-.16,2.93.75,3.71,2.29.28.55.74,1.02,1.1,1.52,1.88-.53,3.61-1.02,5.06-1.43.98-1.73,1.79-3.21,2.66-4.66.7-1.17,1.78-2.03,3.08-2.24,2.83-.44,5.73-.91,8.43.53,1.56.83,3.16,1.07,4.89,1.04,3.92-.06,7.83,0,11.75-.02,2.18-.01,4.1.6,5.73,2.09,1.45,1.32,2.97,2.55,4.37,3.91,2.03,1.95,4.48,3.08,7.1,3.91,1.12.35,2.32.47,3.4.9,4.72,1.86,9.4,3.8,14.11,5.7,2.51,1.01,4.5,2.6,5.78,5.03.87,1.65,2.13,2.94,3.66,4,2.14,1.48,4.22,3.08,6.43,4.46,3.32,2.06,6.72,4.06,10.84,3.98,3.54-.07,6.99.53,10.49.91,4.88.53,8.11,3.35,11.12,6.58,1.27,1.37,1.92,3.37,2.69,5.16,1.39,3.26,1.48,6.61.17,9.91-1.45,3.63-2.79,7.33-4.57,10.8-2.43,4.74-5.74,8.71-11.19,10.28-1.62.47-3.21,1.08-4.76,1.6-1,1.58-1.15,3.25-1.14,4.97.02,2.13-.26,4.34-1.67,5.92-2.41,2.7-4.63,5.69-8.12,7.21-.84.37-1.66.76-2.46,1.2-5.44,3-8.88,7.18-8.19,13.82.09.9.01,1.83.07,2.74.03.51.07,1.09.32,1.5,1.2,2.01,2.46,3.99,3.72,5.96.63.99,1.4,1.89,1.96,2.91,2.07,3.76,4.08,7.57,6.12,11.34,1.55,2.87,1.88,5.96,1.48,9.12-.08.67-.66,1.64-1.22,1.82-1.88.59-4.13.96-5.71-.06-2.92-1.9-6.15-3.3-8.66-5.95-2.66-2.82-5.28-5.76-8.5-8.03-.62-.44-1.05-1.15-1.5-1.79-1.65-2.35-3.21-4.75-4.91-7.06-3.28-4.44-7.55-7.88-11.69-11.44-2.57-2.21-5.06-4.5-7.11-7.22-1.57-2.09-3.1-4.2-4.72-6.24-1.46-1.86-2.7-3.81-3.66-5.99-2.39-5.35-4.95-10.63-7.33-15.99-1.44-3.23-3.8-5.6-6.58-7.6-2.85-2.06-5.67-4.23-8.76-5.86-3.1-1.64-5.43-4.02-7.85-6.38-1.21-1.19-2.5-2.29-3.7-3.49-1.85-1.84-3.66-3.7-4.72-6.17-.57-1.32-1.11-2.71-1.99-3.8-1.23-1.52-1.36-3.18-1.62-4.98-.36-2.49.07-4.7,1.41-6.72,1.3-1.95,2.69-3.85,4.18-5.65.91-1.1,1.35-2.25,1.12-3.6-.88-5.31-3.22-9.6-8.54-11.66-1.45-.56-2.94-1.1-4.47-1.4-2.53-.49-4.83-2.06-7.57-1.59-.33.06-.71-.28-1.08-.42-2.3-.85-3.92-2.54-5.42-4.37-1.9-2.3-3.46-4.98-5.7-6.85-2-1.68-3.25-5.04-6.9-4.11-.2.05-.48-.14-.71-.26-3.76-2.06-7.55-4.07-11.24-6.24-2.13-1.24-4.07-2.76-5.96-4.39-2.62-2.26-4.27-5.24-6.5-7.78-1.03-1.17-2.15-2.36-2.81-3.74-2.18-4.61-3.93-9.4-3.82-14.58.12-5.66-.92-11.15-1.97-16.66-.11-.59-.1-1.33-1.13-1.64-.1,2.23-.12,4.41-.3,6.57-.2,2.33-.58,4.65-.8,6.98-.11,1.16-.02,2.35-.02,3.53,0,4.7,0,9.4.02,14.1,0,3.26-.2,6.53.82,9.71.23.72.08,1.56.16,2.33.14,1.29.28,2.59.53,3.86,1.41,7.14,2.84,14.29,4.31,21.43.82,3.95,1.84,7.87,2.58,11.84.96,5.12,2.82,10.03,3.53,15.22.22,1.64,1.05,3.2,1.62,4.79,1.23,3.41,3.38,6.46,4.08,10.1.1.5.36.98.59,1.45,4.38,8.6,8.16,17.52,13.61,25.54,2.78,4.08,5.38,8.32,9.22,11.57,1.39,1.18,2.63,2.54,3.89,3.86,3.87,4.05,8.1,7.7,12.41,11.27.9.74,1.91,1.35,2.89,1.99,1.85,1.22,3.73,2.4,5.55,3.65,3.31,2.29,6.18,5.24,10.14,6.56.71.24,1.32.83,1.94,1.3,2.81,2.15,5.77,4.03,9.09,5.31.84.32,1.6.86,2.35,1.38,4.54,3.17,9.74,4.92,14.86,6.83,2.1.78,4.32,1.49,5.77,3.12,3.1,3.49,7.17,5.17,11.35,6.56,4.81,1.6,9.68,3.07,14.24,5.26,2.75,1.32,5.49,2.25,8.53,2.55,1.37.14,2.73.83,3.99,1.47,2.61,1.31,2.59,1.38,3.88,1.38,12.67.02,25.33.03,38,.03,1.03,0,2.07-.17,3.1-.3,1.54-.19,3.08-.42,4.63-.62,1.03-.14,2.06-.23,3.09-.38,3.72-.53,7.44-1.1,11.17-1.63,2.31-.33,4.62-.69,6.94-.85,1.57-.11,3.08-.22,4.6-.75,1.96-.68,4.03-1.08,6.05-1.59,2.65-.67,5.37-1.15,7.95-2.04,2.71-.94,5.27-2.27,8.25-2.16.49.02,1-.26,1.49-.45,5.46-2.14,11-4.07,16.13-7.01,6.53-3.73,13.16-7.29,19.74-10.93.76-.42,1.73-.68,1.85-1.94-1.06-.6-2-1.52-3.41-1.41-1.02.08-1.73-.49-2.36-1.17-.78-.85-1.53-1.73-2.3-2.61.34-1.18.41-2.31.95-3.14,2.55-3.93,4.96-8,7.95-11.57,2.63-3.14,4.69-6.56,6.72-10.05,1.27-2.18,1.97-4.51,1.75-7.09-.13-1.56.1-3.14-.04-4.7-.37-4.09,1.46-7.07,4.61-9.35,2.26-1.63,4.03-3.67,5.66-5.9.97-1.33,1.48-2.65,1.45-4.31-.08-3.66,0-7.31-.03-10.97,0-1.71.07-3.38.88-4.96.86-1.66,1.1-3.47,1.07-5.32-.03-1.56,0-3.13.01-4.7.02-6.31-.15-6.74-5.56-9.99Z"/>
          <path class="st6" d="M499.93,295.13c-2.8,0-4.75-1.41-5.86-3.83-.75-1.64-1.09-3.45-1.62-5.19-.15-.5-.28-1.01-.43-1.52-.46,2.15-.4,4.23-.48,6.31-.06,1.64-.79,2.29-2.48,2.37-3.34.17-6.11-1.09-8.35-3.53-.75-.82-1.41-1.74-2.12-2.63-3.34,3.3-3.82,3.47-7.25,3.26-2.63-.16-4.52-1.59-4.18-4.46.09-.77-.02-1.62.26-2.31,1.79-4.37.45-7.77-2.89-10.57-.59,0-1.02-.11-1.36.02-3.34,1.22-6.47,1.21-9.75-.58-1.79-.98-3.88-.72-5.85.69-2.56,1.83-3.67,4.52-4.28,7.19-.51,2.23-1.63,4.08-2.34,6.16-.6,1.78-2.1,2.59-3.9,2.78-.89.09-1.8.02-2.83.02-1.03,2.14-2.71,3.47-4.77,4.33,1.49,2.37,2.36,2.91,4.43,2.21,1.52-.51,2.99-.92,4.57-.77,3.65.34,6.98-.67,10.1-2.44,3.16-1.79,6.55-1.7,9.91-1.19,3.56.55,5.46,2.45,5.82,5.84.26,2.38,1.97,3.55,3.3,5.11,1.06,1.24,2.43,1.42,3.89,1.39,1.32-.03,2.67,0,3.66,1.02,1.6,1.64,3.56,1.99,5.73,1.89,1.68-.08,3.37-.01,5.24-.01.67-1.22,1.25-2.37,1.91-3.47.5-.85,1.33-1.45,2.28-1.17,2.73.81,5.58,1.33,7.8,3.38,1.23,1.13,2.6,2.12,3.73,3.02,2.29-.3,2.98-1.76,3.08-3.35.21-3.37.62-6.83-2.1-9.84-.81-.04-1.84-.13-2.87-.13Z"/>
          <path class="st6" d="M511.95,332.12c-.37-1.11-.83-2.19-1.33-3.26-1.02-2.19-2.56-3.87-5.26-4.98-.09,3.86.29,5.84,2.18,10.14,2.57,5.85,5.04,11.73,6.38,18.02.07.34.54.6.97,1.04,1.33-7.56-.73-14.27-2.95-20.96Z"/>
          <path class="st6" d="M311.19,147.87c1-.5,2.07-.43,2.94.3,1.95,1.66,4.08,1.15,6.29.78,3.82-.65,7.6-1.7,11.53-1.43.78.05,1.56.03,2.35.01.8-.01,1.63.09,2.75-.29-5.45-2.02-10.59-2.73-16.01-2.72-5.58.01-10.63,1.41-15.6,3.7,1.92-.04,3.84.59,5.74-.35Z"/>
          <path class="st6" d="M450.19,213.61c-.72-3.03-1.4-6.01-2.15-8.98-.11-.46-.47-.88-.79-1.25-.11-.12-.47-.02-.72-.02-1.16,5.03.26,9.07,3.66,10.25Z"/>
          <path class="st6" d="M493.82,272.48c1.02-.66,1.62-.88,1.98-1.31,2.26-2.7,2.24-2.72,5.31-3.41.79-2.76-.03-5.31-1.26-7.78-.21-.42-.65-.92-1.08-1.03-1.97-.51-3.97-1.09-6.06-.45,3.1,9.51,2.36,7.74,1.11,13.98Z"/>
        </g>
        <path class="st5" d="M178.13,314.58c-1.92,1.74-3.8,3.48-5.34,5.62-1.52,2.1-2.4,4.35-2.53,6.87-.27,5.08-.49,10.18,1,15.14.33,1.11.87,2.17,1.43,3.18.69,1.25,1.52,2.42,2.26,3.65,2.24,3.72,6.53,4.73,10.05,2.28,2.45-1.71,5-3.25,6.82-5.79,1.5-2.08,3.82-1.76,6.35-1.25-.31.89-.44,1.62-.79,2.22-.71,1.24-1.67,2.34-2.29,3.62-1.33,2.76-.86,4.82,1.65,6.43,1.85,1.18,3.9,2.07,5.93,2.92,1.54.65,3.2,1.04,4.77,1.53.8,1.73.39,3.46.47,5.12.06,1.17-.1,2.36.05,3.52.43,3.42,1.66,6.32,5.31,7.47,1.23.39,2.46.77,3.82,1.2.05.07.26.24.36.46,1.45,2.98,1.94,3.39,5.06,3,1.78-.22,3.56-.72,5.25-1.36,1.33-.51,2.33-1.47,2.86-2.99,1.71-4.92,2.82-4.34,7.04-4.24.62.01,1.31.24,1.84.58,1.87,1.22,3.93,1.22,6.04,1.2,3.65-.03,7.31.03,10.97-.03,2.07-.03,3.82.5,5.31,2.01,1.18,1.21,2.56,2.22,3.79,3.39,2.32,2.2,5.08,3.77,8.14,4.4,3.76.77,7.07,2.62,10.66,3.77,2.22.71,4.29,1.85,6.47,2.72,1.9.76,3.36,1.93,4.3,3.77,1.09,2.14,2.79,3.72,4.79,5.03,1.96,1.29,3.86,2.67,5.78,4.03,3,2.12,6.19,3.89,9.84,4.54,1.91.34,3.89.55,5.82.43,3.32-.21,6.44.96,9.69,1.13.13,0,.25.05.38.1,4.5,1.46,9.19,7.61,9.45,12.44.09,1.57-.03,3.11-.67,4.6-1.51,3.47-2.75,7.06-4.45,10.43-2.05,4.04-4.92,7.38-9.6,8.61-1.13.3-2.22.87-3.36,1.01-1.98.24-2.96,1.35-3.51,3.16-.5,1.64-.85,3.27-.8,4.99.06,2.32-.84,4.11-2.47,5.9-2.34,2.58-4.98,4.46-8.09,5.97-3.3,1.61-5.78,4.16-7.97,7.26-2.38,3.37-2.86,6.8-2.8,10.67.05,3.34,1.08,6.4,1.93,9.53.1.37.28.75.51,1.05,3.22,4.25,5.57,9.14,9.69,12.73,2.28,1.98,2.68,4.6,2.11,7.74-.79-.1-1.45-.03-1.95-.27-3.42-1.66-6.47-3.76-9.17-6.53-2.12-2.17-3.91-4.43-5.33-7.12-3.88-7.35-8.9-13.77-15.74-18.7-4.34-3.13-8.39-6.66-12.07-10.56-3.99-4.23-7.19-8.94-8.28-14.8-.46-2.47-1.44-4.73-2.76-6.86-.82-1.33-1.61-2.68-2.32-4.08-1.28-2.5-3.03-4.56-5.39-6.08-2.52-1.62-5.13-3.12-7.58-4.85-3.92-2.77-8.33-4.88-11.51-8.65-.92-1.09-1.93-2.16-3.06-3.02-3.13-2.38-4.94-5.68-6.57-9.1-.43-.91-.64-1.98-.74-2.99-.13-1.3.01-2.61-.05-3.92-.09-1.8.49-3.31,1.75-4.6.82-.84,1.53-1.78,2.33-2.64,2.95-3.17,2.96-6.77,1.56-10.58-.18-.49-.38-.99-.69-1.39-1.76-2.25-3.43-4.58-5.38-6.64-1.13-1.19-2.65-2.16-4.48-2.16-1.49,0-2.74-.67-4.08-1.19-2.16-.84-4.39-1.63-6.67-2.06-2.59-.49-4.62-1.63-6.21-3.69-1.91-2.47-3.62-5.14-5.82-7.31-2.29-2.26-5.07-4.01-8.17-6.4-.55-.74.7-2.96-1.3-3.84-1.68.6-.95,2.35-1.83,3.47-1.46.04-2.43-1.22-3.68-1.77-1.39-.62-2.42-1.84-4.08-2.1-.93-.15-1.75-1.05-2.37-1.45-.91-1.49,1.12-3.03-.57-4.13-1.34.21-.7,1.53-1.29,2.15-.22.02-.51.12-.65.03-3.07-2.12-4.87-5.38-7.21-8.15-4.52-5.33-6.15-11.67-6.1-18.47.03-3.18-.74-6.21-1.09-9.31-.1-.9-.37-1.85-.17-2.7.71-3.1-.08-5.98-1.31-8.71-3.62-8.06-3.39-16.18-.78-24.41.8-2.53,2.21-4.73,3.65-6.9,1.26-1.89,2.17-3.87,2.47-6.1.52-3.75,2.33-6.79,4.67-9.73,4.57-5.73,8.22-12.03,10.96-18.87,1.31-3.26,2.89-6.41,4.3-9.63,1.15-2.63,2.37-5.24,3.29-7.94,1.99-5.85,5.56-10.7,9.99-14.77,3.33-3.06,7.33-5.4,11.05-8.04,2.33-1.66,4.69-3.28,7.04-4.92.32-.22.73-.42.91-.73,1.63-2.86,4.69-3.99,7.03-5.97,3.84-3.23,8.13-5.65,12.36-8.23,1.45-.88,2.76-1.98,4.2-2.87,2.31-1.43,4.5-2.98,7.25-3.7,2.09-.55,4-1.87,5.93-2.95,1.14-.64,2.18-1.35,3.54-1.56,1-.15,2-.62,2.88-1.14,3.37-2,6.8-3.81,10.67-4.68,1.13-.25,2.18-.86,3.24-1.37,2.24-1.08,4.48-1.98,7.04-2.15,1.35-.09,2.72-.86,3.95-1.55.6-.34,1.06-1.13,1.34-1.82.77-1.91,2.07-3.38,3.84-4.26,2.02-1.01,3.73-2.35,5.38-3.85,1.71-1.54,2.26-1.47,4.51-.26,2.29,1.23,4.61,2.43,6.91,3.65,1.41.75,2.9,1.14,4.51,1.06,2.73-.12,5.46-.22,8.19-.29.49-.01,1.09.02,1.45.28,2.01,1.45,4.29,1.03,6.44.79,2.69-.3,5.34-.99,8.01-1.51.26-.05.51-.12.77-.13,5.48-.05,10.97-.09,16.45-.13,1.39-.01,2.4.9,3.57,1.45,2.5,1.19,4.37,2.8,4.61,5.76.02.26.06.57.22.74,2.17,2.31,2.48,5.39,3.51,8.18.4,1.08.92,2.18,1.64,3.07,2.77,3.42,4.54,7.27,5.5,11.54.46,2.04.1,2.85-1.9,3.62-1.34.51-2.73.86-4.1,1.3-2.27.72-4.11,1.96-5.88,3.67-3.43,3.32-7.49,5.82-12.54,5.37-3.76-.34-6.11,1.25-8.07,4.28-1.79,2.76-3.03,5.76-4.58,8.63-.43.8-.82,1.62-1.25,2.43-1.34,2.58-3.65,3.67-6.38,3.84-3.9.25-7.38-.74-10.56-3.27-2.07-1.64-3.84-3.57-5.45-5.53-2.25-2.75-2.41-6.27-1.38-9.69.37-1.24,1.02-2.39,1.61-3.56.41-.81.85-1.63,1.41-2.35,2.69-3.44,2.95-7.43,2.61-11.53-.18-2.13-.9-4.06-2.36-5.69-1.13-1.27-2.16-2.62-3.27-3.9-2.59-3-5.77-4.78-9.85-4.88-2.33-.06-4.72.2-6.94-.84-.46-.22-.91-.46-1.28-.65-.5-1.02.51-2.29-.74-2.95-1.27-.67-2.57-.48-3.71.28-2.05,1.37-4.04,2.85-6.08,4.24-1.37.93-2.79,1.79-4.52,2.89-.56,1.14-1.52,2.59-1.99,4.19-1,3.41-1.16,8.54,2.93,11.32,1.51,1.02,3.08,1.96,4.63,2.92.89.55,1.84,1,2.69,1.59.94.65.91,1.97-.07,2.65-.74.52-1.61.86-2.36,1.37-1.88,1.27-1.99,3.6-.14,4.87.83.57,1.9.78,2.86,1.16.69.27,1.37.55,2.43.97-.99.79-1.61,1.67-2.38,1.83-5.84,1.24-11.41,3.6-17.28,4.34-1.6-1.26-2.19-2.57-1.77-4.53.31-1.47-.26-3.11,0-4.59.25-1.36,1.07-2.63,1.7-3.91.87-1.73.55-3.58.6-5.39.04-1.28-.44-2.37-1.58-2.93-2.25-1.11-3.55-2.99-4.55-5.17-.11-.23-.25-.46-.4-.67-3.31-4.58-3.33-4.41-9.16-4.21-1.44.05-2.48.87-3.01,2.16-1.17,2.83-1.29,5.59.88,8.06.77.88,1.6,1.71,2.51,2.67-.79,3.52-2.86,5.91-6.33,7.18-3.78,1.39-7.58,2.75-11.26,4.36-2.66,1.16-4.51,3.47-6.48,5.54-.99,1.04-1.96,2.14-2.67,3.37-1.74,3-4.59,4.53-7.48,6.07-1.03.55-2.14.99-3.1,1.65-2.57,1.75-3.53,4.15-2.77,7.13.21.82.75,1.74,1.42,2.23,1.46,1.07,3.08,1.93,4.67,2.82,4.84,2.72,7.94,6.61,8.49,12.31.12,1.28.46,2.58.96,3.77,1.64,3.85,6.03,4.69,8.91,1.71.98-1.02,1.81-2.23,2.53-3.46,2.59-4.44,4.03-9.32,5.1-14.31.33-1.55.32-3.15-.36-4.62-.64-1.38-.56-2.8-.5-4.23.07-1.86,1.08-3.21,2.65-4.06,3.01-1.64,6.28-1.55,9.54-1.16,1.13.14,1.63,1.18,2.16,2.1,1.11,1.91,2.21,3.84,3.43,5.69,2.09,3.18,5.01,4.83,8.91,4.64,2.47-.12,4.95.16,7.36-.7.83-.29,1.82-.07,2.72-.23,3.43-.64,5.41,1.2,6.84,3.96,1.92,3.7,4.13,7.21,6.26,10.78,2.27,3.79,3.92,7.95,5.81,11.96.22.46.36,1,.38,1.5.06,1.03.02,2.07.02,3.13-2.83,2.13-5.68,2.69-8.87,1.26-1.9-.85-3.77-1.68-5.57-2.78-3-1.83-6.22-3.32-9.93-3.03-.78.06-1.57.08-2.35,0-3.13-.33-5.26,1.22-6.8,3.71-1.1,1.77-2.01,3.65-3,5.49-.62,1.15-1.17,2.33-1.84,3.44-.9,1.52-2.26,2.42-3.94,3.02-3.43,1.23-6.86,2.52-10.19,3.99-1.26.55-2.59,1.48-3.32,2.6-1.84,2.83-3.37,5.87-4.98,8.84-.5.91-.78,1.95-1.33,2.82-.81,1.26-1.1,2.59-1.16,4.07-.17,4.33-2.09,7.76-5.69,10.16-2.27,1.52-4.66,2.87-7,4.29-.33.2-.69.36-1.04.53-3.08,1.56-4.69,3.97-4.6,7.53.09,3.52.03,7.05.02,10.58-.02,4.37-.52,4.85-5,4.77-.52,0-1.05-.01-1.56-.06-.85-.09-1.55-.55-1.73-1.36-1.02-4.43-4.36-6.56-8.05-8.48-3.92-2.04-8.06-2.97-12.43-2.64-1.38.11-2.72.76-4.08,1.16.33-1.23.74-2.44.96-3.68.12-.71-.04-1.48-.14-2.21-.02-.14-.37-.32-.57-.31-.21,0-.56.17-.59.32-.31,1.35-.6,2.7-.81,4.07-.14.92.58,1.32,1.25,1.71ZM272.84,465.53c-.79,1.93-.6,3.51,1.53,3.97.77.17,1.01.54,1.25,1.2.2.55.6,1.13,1.07,1.47,1.22.88,2.53,1.64,3.8,2.45.43-1.17.02-2.43-.93-3.01-1.46-.89-2.14-2.44-3.22-3.49-.83.19-1.44.33-2.19.5-.45-1.04-.88-2.07-1.33-3.09ZM184.19,307.43c-.83.56-.9,1.52-.21,2.06.4.31,1.38.42,1.75.15,1.62-1.17,3.39-.78,5.13-.71.23.01.44.2.67.31.17.72.34,1.44.5,2.14,1.56.73,3.06.44,4.65.51-.69-1.27-1.76-1.2-2.79-1.35-.57-.09-1.47-.37-1.6-.76-.56-1.74-2.05-2.16-3.38-2.9-.54.27-1,.49-1.45.72-.45.23-.89.48-1.3.7-.75-.35-1.69-1.07-1.98-.87ZM346.97,165.46c-1.33,1.96-1.46,4.05-.31,4.49.47-.3.97-.62,1.68-1.08.42.7.8,1.35,1.19,1.99.42.7.02,1.84,1.44,2.37.09-.88.42-1.69.17-2.24-.98-2.12-2.26-4.05-4.17-5.53ZM157.46,307.36c1.53-3.74,1.62-5.65.35-8.36-.35.67-.84,1.2-.89,1.76-.2,2.01-.27,4.03-.35,6.05,0,.12.39.25.89.55ZM232.02,414.33c-1.85.8-2.54,1.92-2.61,3.44,0,.18.26.46.45.52.17.05.45-.11.61-.24.27-.22.5-.51.77-.8,1.55,1.27.32,3.33,1.7,4.85.6-2.77.09-5.15-.92-7.77ZM156.96,290.96c-2.16,1.62-2.94,3.81-2.73,6.97,2.03-2.22,2.26-4.63,2.73-6.97ZM237.11,427.82c-.82-1.64.24-3.44-1.32-4.86-1.29,1.18-1.02,2.59-.72,3.95.14.65.55,1.16,2.04.91ZM164.38,333.17c-1.61,1.45-1.85,3.04-2.41,4.42-.22.54.22.93,1.11.83.49-1.5,2.28-2.67,1.29-5.25ZM316.26,191.44c-1.19,1.16-1.79,2.54-2.17,4.01-.14.54.1.99.93.91.73-1.51,1.66-3.01,1.24-4.92ZM234.8,241.93c-2.11,1.35-1.99,2.83-1.73,4.33.05.27.46.64.72.65.26,0,.74-.35.76-.59.13-1.23.15-2.47.25-4.39ZM268.94,461.26c-.26-.8-.48-1.66-.81-2.49-.26-.66-1.23-1.1-1.5-.71-.25.36-.46.98-.33,1.35.3.81.81,1.55,1.3,2.29.09.14.48.18.69.12.21-.06.37-.3.65-.55ZM333.25,420.83c0-1.62-.82-2.35-2.18-2.92q.36,1.95,2.18,2.92ZM326.45,414.2c.03,2.97.17,3.11,2.12,2.66-.58-.72-1.09-1.37-2.12-2.66ZM245,231.84c-.64-.5-1.09-.86-1.54-1.21-.27.39-.7.75-.78,1.18-.13.68.58,1.34,1.14,1.11.4-.16.68-.6,1.18-1.09ZM319.61,193.79q-1.03,1.31-.63,2.64c1-.69,1.26-1.55.63-2.64ZM238.78,241.35c.18-.03.33-.02.43-.09.61-.4.87-.99.58-1.65-.12-.29-.56-.45-.85-.67-.15.43-.38.86-.42,1.31-.03.36.17.74.26,1.11ZM227.15,251.57c.19-.15.45-.26.54-.45.08-.17-.04-.43-.07-.64-.25.17-.54.31-.72.53-.06.07.16.37.26.56ZM332.24,188.76c-.06-.09-.1-.24-.18-.27-.11-.03-.24.02-.37.04.08.14.15.28.25.4.02.02.19-.11.3-.17ZM332.26,430.12c-.04-.11-.06-.28-.14-.31-.09-.04-.24.03-.36.06.07.15.15.3.22.45.09-.06.18-.13.27-.2ZM325.39,192.4c-.09-.19-.19-.39-.28-.59-.08.07-.24.14-.24.22-.02.19.04.39.07.58.15-.07.3-.14.45-.21Z"/>
        <path class="st5" d="M515.89,335.79c-1.93-2.49-3.02-5.05-3.43-7.69-.57-3.76-3.13-5.52-6.02-7.13-.55-.31-1.23-.44-1.87-.52-1.16-.16-2.14.56-2.09,1.75.1,2.47.11,4.98.66,7.37.58,2.52,1.7,4.92,2.63,7.35,1.3,3.41,2.73,6.77,3.94,10.22.69,1.96,1.12,4.02,1.51,6.07.3,1.53.71,2.87,1.62,4.26,1.7,2.62,2.65,5.66,2.98,8.82.22,2.12-.03,4.13-1.25,6-1.14,1.76-1.91,3.71-2.26,5.8-.11.64-.3,1.28-.55,1.88-1.41,3.36-2.84,6.72-4.29,10.06-.93,2.15-1.91,4.28-2.87,6.43-.21.48-.47.94-.64,1.43-1.81,5.17-3.6,10.35-5.39,15.52-.62,1.79-.09,3.79-1.27,5.55-1.08,1.6-1.7,3.5-2.55,5.27-.79,1.64-1.58,3.29-2.42,4.91-.91,1.73-1.88,3.43-2.84,5.14-.51.91-1.14,1.76-1.6,2.69-2.79,5.57-6.84,10.16-11.33,14.36-4.78,4.47-9.07,9.37-13.38,14.27-1.03,1.18-2.14,2.29-3.17,3.47-.85.98-1.8,1.93-2.42,3.05-1.32,2.38-3.23,4.06-5.53,5.36-2.85,1.61-5.35,3.59-7.77,5.85-2.33,2.18-5.33,3.46-8.86,3.05-2.33-.27-4.6-.57-7-1.25.09-2.25.59-4.16,1.97-5.86.98-1.2,1.81-2.54,2.7-3.83.52-.75.98-1.55,1.55-2.26,1.97-2.4,3.98-4.77,5.97-7.16.08-.1.19-.2.23-.32,1.08-3.72,3.68-6.94,3.45-11.09-.11-1.95.09-3.92-.04-5.87-.19-2.75.86-4.88,3.06-6.37,2.87-1.96,4.94-4.6,6.99-7.32,1.09-1.45,1.55-2.96,1.54-4.72-.04-3.66.01-7.31-.04-10.97-.03-1.85.18-3.62.97-5.33.83-1.8,1.13-3.72,1.09-5.72-.07-3-.1-6.01,0-9.01.06-1.99-.54-3.63-2.09-4.82-2.66-2.04-4.96-4.7-8.6-5.13-.47-.06-1.05-.34-1.32-.71-1-1.36-2.41-1.33-3.86-1.41-4.79-.26-9.23.8-13.66,2.64-3.72,1.55-7.47,3.05-11.17,4.64-2.59,1.11-5.39.57-8.11.32-.77-.07-1.52-.44-2.29-.5-5.09-.41-9.05-3.17-12.88-6.15-2.08-1.62-2.93-4.01-3.09-6.54-.21-3.25-.13-6.48,1.19-9.62,1.2-2.88,2.02-5.91,2.97-8.89.24-.74.45-1.52.48-2.29.21-4.43.6-8.86-.53-13.25-.52-2.03-.41-4.09.06-6.18.64-2.82,1.59-5.38,3.23-7.85,2-3.02,3.46-6.42,5.01-9.71,1.09-2.31,2.57-4.18,4.73-5.58,2.94-1.92,6.06-3.67,8.66-6,4.7-4.22,8.84-8.94,9.1-15.81,0-.23.22-.45.49-.95.56.55,1.17.97,1.54,1.54.95,1.46,2.24,2.12,3.96,2.02,1.04-.06,2.2.18,3.1-.21,2.14-.92,4.34-.86,6.54-.78,2.88.1,5.37-1.07,7.73-2.42,2.4-1.38,4.89-1.65,7.53-1.52,3.32.17,4.3,1.01,4.79,4.37.16,1.07.44,2.02,1.19,2.82.89.95,1.78,1.91,2.61,2.9,1.43,1.71,3.19,2.67,5.45,2.55,1.37-.07,2.5.31,3.58,1.22,1.65,1.39,3.63,1.94,5.83,1.78,1.56-.12,3.14-.11,4.7,0,2.22.15,3.77-.7,4.74-2.7.22-.45.61-.82.87-1.17,2.37-.4,4.2.44,5.85,1.86,1.09.94,2.19,1.85,3.26,2.81,1.29,1.15,2.73,1.46,4.35.82.96-.38,1.91-.78,2.98-1.22,2.29-6.56,2.26-12.72-2.69-18.43-.84.14-1.7.33-2.58.43-2.49.3-3.59-.29-4.76-2.48-.87-1.64-1.25-3.36-1.33-5.24-.14-3.21-2.25-4.56-5.39-3.61-.84.26-1.24.96-1.3,1.78-.1,1.3-.08,2.61-.14,3.91-.05,1.13-.13,2.27-.21,3.48-1.91.11-3.37-.53-4.48-1.6-1.98-1.91-3.54-4.1-4.03-6.98-.41-2.43-.87-4.83-.98-7.32-.12-2.91-3.59-4.93-6.4-4.02-.89.29-1.46,1.38-.91,2.2,1.39,2.04,1.56,4.37,1.92,6.69.16,1.01.52,2,.82,2.99.18.62.53,1.2.6,1.83.12,1.04.22,2.26-.75,2.88-.68.43-1.69.34-2.65.5-.62-2.14-.35-4.11-.27-6.02.13-2.84-.72-5.36-1.83-7.9-1.09-2.5-2.93-3.58-5.55-3.46-.9.03-1.82.17-2.66.46-1.71.59-3.33.57-4.9-.34-2.88-1.65-5.94-.87-8.78-.25-2.23.48-4.28,1.99-5.34,4.27-.82,1.76-1.84,3.57-2.06,5.44-.3,2.45-1.56,4.36-2.29,6.28-1.14,1.02-2.05-.51-3.14.25-.86.6-1.74,1.07-2.35,1.96-.57.84-1.2,1.64-1.71,2.33-1.72-.36-3.2-.78-4.7-.96-1.53-.19-3.11.11-4.74-.28-.11-.9-.25-1.66-.3-2.42-.21-3.05-.91-5.9-3.14-8.18-.36-.37-.64-.82-.93-1.27-1.29-2.01-1.13-3.88.5-5.75,3,.96,6,.68,8.98.7,1.27,0,2.25-.49,2.98-1.55,1.18-1.72,2.24-3.37,2.24-5.68,0-2.59-.91-4.22-3.3-5.13-1.21-.46-2.39-1.04-3.55-1.62-.57-.29-1.07-.72-1.55-1.04-.05-1.52.69-2.27,1.96-2.63,1.12-.32,2.24-.69,3.34-1.06.86-.29,1.74-.56,2.56-.93,2.17-.97,3.76-2.36,3.38-5.07-.05-.36.15-.75.29-1.34.99-.09,2-.21,3.01-.26,1.41-.06,2.64-.5,3.17-1.87.51-1.3,1.53-2.07,2.41-3.02,1.59-1.71,3.12-3.48,5-5.6,1.64,0,3.7-.02,5.77-.03,1.03,0,2.07.05,3.1-.03,3.17-.24,5.27-2.27,5.45-5.43.19-3.38-.88-6.44-2.98-9.08-1.14-1.42-2.44-2.71-3.71-4.02-1.11-1.15-1.78-2.49-2.36-3.99-1.23-3.18-1.7-6.54-2.61-9.8-.73-2.64-1.02-2.86-3.77-2.93-3.84-.09-3.93.21-4.23,4.19-.37,4.92,1.12,8.98,4.63,12.37.66.63,1.32,1.27,1.91,1.97.41.48.72,1.05,1,1.48-.33,1.64-1.35,2.38-2.65,2.8-1.2.39-2.35.26-3.2-.79-.65-.81-1.2-1.7-1.83-2.53-.78-1.04-1.52-2.14-2.42-3.07-2.33-2.4-3.91-2.58-6.95-.96-2.43,1.29-4.24,1.06-5.98-.75-1.99-2.08-2.11-5.64-.19-7.79.78-.86,1.69-1.63,2.59-2.37,1.09-.89,1.64-2,1.64-3.4,0-2.73.35-5.5-1.22-8-.67-1.06-.65-2.19-.27-3.39.3-.98.46-2.03.55-3.05.15-1.74,1.08-2.91,2.58-3.65,2.78-1.37,5.62-2.13,8.63-.67.35.17.72.35,1.1.41,4.58.66,7.62,3.76,10.63,6.83,1.37,1.39,2.67,2.89,3.78,4.49.95,1.37,1.67,2.93,2.32,4.47,1.09,2.58,2.55,4.67,5.05,6.23,2.06,1.28,3.77,3.19,5.43,5.02,5.26,5.81,10.53,11.58,15.27,17.84,2.75,3.63,5.95,6.92,8.74,10.53,2.15,2.78,3.98,5.81,5.94,8.74.43.65.72,1.4,1.19,2.02,2.19,2.85,3.66,5.93,3.83,9.63.07,1.52.89,2.99,1.25,4.51,1.85,7.6,3.69,15.2,5.46,22.82.29,1.25.34,2.59.29,3.88-.23,5.9.6,11.73,1.21,17.56.31,2.93,1.36,5.82,2.33,8.64,1.77,5.16,2.09,10.45,1.88,15.84-.05,1.34-.24,2.56-1.55,3.99ZM449.45,457.22q-.76,1.09-.53,3.03c.2-1.43.32-2.28.43-3.12.17-.15.41-.26.5-.45.04-.09-.19-.31-.3-.47-.06.1-.16.21-.17.31,0,.23.05.47.07.7ZM423.59,378.1c-1.6-.37-2.83.25-3.72,1.52-.45.64-.74,1.4.18,2.26.46-.32,1.07-.57,1.43-1.02.74-.9,1.34-1.91,2-2.88.75-.2,1.52-.34,2.25-.62.63-.24,1.58.24,1.92-.77-1.71-.99-2.5-.69-4.06,1.5ZM498.98,271.37c.53.34.93.67,1.39.88,1.5.68,2.55.3,3.14-1.13.2-.48.4-.98.45-1.48.36-3.67.14-7.25-1.53-10.65-.75-1.53-1.82-2.61-3.47-2.81-2.44-.3-4.9-.49-7.36-.5-1.97-.02-2.82,1.32-2.19,3.13.34.98.91,1.88,1.27,2.85.5,1.33,1.14,2.67,1.32,4.06.26,2,.77,4.09-.81,5.95-.7.82-.18,2.12.73,2.66,1.67.99,3.97.67,5.33-.8.61-.66,1.13-1.4,1.73-2.15ZM466.31,445.95c1.63-.49,2.36-1.37,2.5-2.6.22-2.05.32-4.11.43-6.17,0-.12-.36-.26-.74-.52-2.3,2.72-.91,6.19-2.19,9.28ZM462.61,261.5c-.54-.93.11-2.24-1.42-2.26-.55,1.1-1.39,2.17-.57,3.77,1.9-.27,3.93.17,5.65-1.37-1.27-1.02-2.38-.41-3.66-.14ZM453.25,264.56c1.71-1.61,2.49-3.01,2.66-4.71.04-.41-.28-.86-.62-1.86-.98,2.32-2.73,3.68-2.04,6.58ZM464.46,413.36c1.95-3.33,2.21-4.38,1.51-6.51-.79,2.19-1.98,4.01-1.51,6.51ZM459.01,203.58c.19-.27.34-.39.33-.47-.35-1.58-1.51-2.59-2.66-3.55-.33-.28-1.06-.09-2.27-.14,1.86,1.68,3.22,2.91,4.6,4.16ZM414.15,379.44c-1.2.86-1.47,1.79-1.5,2.8-.02.59.28.92,1.01.78.71-.96,1.51-1.95.49-3.58ZM441.34,374.88c-1.07,0-1.45-.07-1.8.02-.49.11-1.05.34-.73.98.08.17.7.19,1.01.1.34-.1.61-.42,1.51-1.09ZM480.8,254.2c-.18.72-.31,1.2-.42,1.68-.1.46-.35,1.06.44,1.08.24,0,.62-.39.72-.68.23-.67.52-1.44-.74-2.08ZM456.8,451.7c-.06.07-.15.14-.16.23-.01.09.05.19.07.28.06-.07.15-.14.16-.23.01-.09-.05-.19-.08-.28ZM463.25,419.6c-.08-.23-.15-.44-.23-.66-.09.09-.27.19-.26.26.03.22.14.44.21.66.09-.09.18-.18.27-.26Z"/>
        <path class="st5" d="M409.42,220.14c2.23,1.02,3.96,1.82,5.95,2.73.17.64.39,1.5.65,2.35.15.49.24,1.22.59,1.42,2.21,1.21,2.36,3.62,3.31,5.53,1.6,3.21,3.35,5.31,7.22,8.27v3.16c-.83.25-1.7.78-2.48.67-1.52-.21-2.99-.78-4.63-1.24-.17-1.8-.34-3.58-.5-5.33-1.08-.74-2.11-1.32-2.98-2.07-1.87-1.62-4.45-.1-4.64,2.05-.13,1.39.12,2.82.21,4.56-1.66.71-3.54.13-5.45.3-.8-2.41-.55-4.63-.35-6.79.19-2.09,1.79-3.1,3.9-2.72.75.14,1.46.55,2.21.69,1.24.23,2.17-.67,1.83-1.79-.61-1.98-1.31-3.94-2.03-5.89-.12-.31-.51-.62-.84-.73-2.3-.82-2.07-2.64-1.96-5.17Z"/>
        <path class="st5" d="M210.18,341.73c.91-.61,1.62-1.1,2.35-1.57.64-.41,1.34-1.2,1.92-1.13,2.25.3,4.72.05,6.52,1.93.72.75,1.47,1.47,2.17,2.24,2.16,2.35,4.87,3.38,8,3.39,4.55.02,9.1,0,13.65.02,1.04,0,2.1-.07,3.11.11.55.1,1.21.56,1.46,1.05.33.63-.15,1.29-.76,1.58-1.4.67-2.8,1.58-4.28,1.79-2.94.4-5.94.57-8.89-.21-2.88-.76-5.74-1.62-8.78-1.4-.75.06-1.52-.25-2.29-.37-1.4-.22-2.81-.6-4.22-.6-2.6.01-4.84-1.1-6.98-2.24-1.54-.82-2.7-2.39-2.98-4.59Z"/>
        <path class="st5" d="M364.54,198.08c1.48.37,2.83.89,4.21,1.02,2.61.25,5.16.09,7.39-1.68,1.47-1.17,3.22-1.64,5.18-.97.8,1.33.38,2.7.18,4.06-2.64,1.54-5.29,2.39-8.25,2.26-2.33-.1-4.68,0-7.01-.02-.65,0-1.3,0-1.94-.09-1.03-.14-1.55-.86-1.79-1.8-.21-.84.1-1.54.79-2.04.41-.3.88-.53,1.24-.74Z"/>
      </g>
      <g>
        <g>
          <g>
            <g>
              <path class="st1" d="M114.74,380.76l-.42.73c-1.14-.47-3.07-1.65-3.67-4.65-.85-4.27,1.44-7.12,5.14-7.85,3.75-.74,7.09,1.15,7.84,4.95.71,3.6-1.21,6.24-5.12,7.02l-1.91-9.6c-3.82.81-5.04,3.07-4.49,5.84.44,2.23,1.64,3.12,2.62,3.57ZM119,378.22c1.68-.34,4.35-1.13,3.75-4.14-.52-2.62-2.91-3.14-5.15-2.91l1.4,7.04Z"/>
              <path class="st1" d="M109.79,391.76l-.61.17-1.63-5.98.61-.17c.58,1.43,1.03,1.66,2.94,1.14l11.15-3.04c1.91-.52,2.18-.95,1.95-2.48l.61-.17,1.1,4.02-1.4.38c1.2.49,2.25,1.55,2.73,3.3.79,2.9-.81,5.94-4.84,7.04-4.07,1.11-7.26-.73-8.16-4.04-.38-1.38-.16-2.69.41-3.61l-2.95.81c-1.91.52-2.18.95-1.91,2.63ZM115.17,391.22c.67,2.47,3.18,3.32,6.41,2.44,3.08-.84,4.84-2.93,4.21-5.22-.34-1.25-1.27-2.14-2.43-2.48l-7.54,2.05c-.68.81-.97,2.04-.66,3.22Z"/>
              <path class="st1" d="M123.61,410.49l-.31.78c-1.2-.31-3.27-1.2-4.28-4.09-1.44-4.11.43-7.25,3.99-8.49,3.61-1.26,7.18.15,8.46,3.81,1.21,3.46-.33,6.35-4.09,7.66l-3.23-9.24c-3.67,1.34-4.56,3.75-3.63,6.41.75,2.14,2.06,2.86,3.09,3.17ZM127.47,407.38c1.62-.57,4.15-1.73,3.14-4.62-.88-2.52-3.32-2.7-5.5-2.16l2.37,6.78Z"/>
              <path class="st1" d="M135.21,421.71c-1.04.44-2.01.2-2.42-.78-.33-.78-.04-1.65.78-2,.85-.36,1.33.29,2.06-.02.75-.32.81-1.32.29-2.56-1.01-2.29-3.66-2.8-6.4-1.63-3.64,1.55-4.58,3.99-3.59,6.32.87,2.04,2.2,2.62,3.24,2.83l-.29.81c-1.27-.23-3.29-.92-4.46-3.66-1.56-3.67.11-6.87,3.58-8.35,3.52-1.5,7.21-.23,8.69,3.24,1.14,2.67.53,4.94-1.49,5.8Z"/>
              <path class="st1" d="M130.41,436.7l18.37-9.61.61,1.17-18.37,9.61-.61-1.17Z"/>
            </g>
            <g>
              <path class="st1" d="M147.86,446.72l-6.27,4.01c.41.89.93,1.69,1.45,2.52,2.16,3.38,4.15,3.8,7.62,1.93l.38.6-5.43,3.47-7.66-11.99.6-.38c1.14,1.59,1.61,1.79,3.33.69l9.52-6.08c1.71-1.09,1.73-1.61.77-3.31l.6-.38,7.43,11.63-4.6,2.94-.37-.58c2.65-2.07,2.96-3.55.72-7.07-.48-.76-.95-1.49-1.55-2.18l-5.56,3.55,1.11,1.74c1.51,2.36,2.61,2.47,4.76,1.18l.38.6-6.65,4.25-.38-.6c2.05-1.4,2.43-2.43.91-4.81l-1.11-1.74Z"/>
              <path class="st1" d="M161.03,458.3c1.03,1.4,1.61,2.94,1.64,4.13l-2.65,1.96-.34-.47c1.59-1.53,1.76-3.56.56-5.2-.89-1.21-2.06-1.73-3.08-.97-1.29.96-.68,2.5,0,4.17.82,2.05,1.71,4.28-.52,5.92-1.82,1.35-4.4.92-6.41-1.8-1.61-2.19-1.85-4.01-1.82-4.82l2.91-2.15.36.49c-1.6,1.48-2.04,4.16-.57,6.16,1.05,1.42,2.42,1.82,3.57.97,1.4-1.03.74-2.68.1-4.44-.77-2.02-1.59-4.2.53-5.77,1.29-.96,3.64-1.02,5.73,1.81Z"/>
              <path class="st1" d="M169.82,475.09c-.87.73-1.87.77-2.54-.04-.54-.65-.52-1.56.17-2.14.71-.59,1.36-.1,1.97-.61.63-.53.4-1.5-.47-2.53-1.63-1.91-4.31-1.62-6.6.29-3.04,2.54-3.23,5.15-1.61,7.09,1.42,1.7,2.87,1.87,3.93,1.77l-.04.86c-1.29.15-3.42.07-5.33-2.22-2.56-3.06-1.88-6.61,1.01-9.04,2.94-2.45,6.84-2.31,9.26.58,1.86,2.23,1.93,4.58.25,5.98Z"/>
              <path class="st1" d="M178.33,488.5c-2.84,2.72-6.48,2.85-9.29-.09-2.77-2.9-2.53-6.57.31-9.29,2.84-2.72,6.52-2.81,9.29.09,2.81,2.94,2.53,6.57-.31,9.29ZM169.68,487.79c1.88,1.96,4.39,1.34,6.93-1.08,2.52-2.41,3.26-4.91,1.38-6.88-1.86-1.95-4.41-1.33-6.93,1.08-2.54,2.43-3.24,4.93-1.38,6.88Z"/>
              <path class="st1" d="M179.16,493.63l8.43-8.95c1.36-1.44,1.36-1.95.37-3.13l.43-.46,3.03,2.86-10.6,11.26c-1.36,1.44-1.38,1.93-.37,3.13l-.43.46-4.4-4.14.43-.46c1.24.91,1.74.88,3.1-.56Z"/>
              <path class="st1" d="M192.52,499.78l1.03-1.21c1.35-1.59,1.34-2.88-.04-4.06-1-.86-1.99-1.08-2.47-.51-.29.34-.02.88-.47,1.4-.41.48-1.28.64-2,.03-.8-.68-.62-1.67-.07-2.31,1.13-1.33,3.39-1.17,5.68.78,1.87,1.59,3.22,3.71.94,6.38l-4.16,4.88c-.63.74-.66,1.31-.12,1.77.26.22.59.33.98.35l-.1.57c-1.08.05-1.97-.26-2.67-.86-.86-.74-.99-1.68-.16-2.78-1.14.2-2.91.16-4.51-1.21-1.83-1.56-2.12-3.57-.75-5.18,2-2.35,5.57-.76,8.91,1.95ZM185.56,499.36c-.99,1.16-.82,2.39.24,3.29,1.14.98,2.73.94,3.77.58l2.36-2.77c-2.47-2.07-4.82-2.93-6.38-1.1Z"/>
            </g>
            <g>
              <path class="st1" d="M203.72,516.82l-.41.59-5.96-4.14.41-.59c1.66,1.03,2.18,1.03,3.34-.64l6.45-9.27c1.16-1.67.98-2.15-.56-3.35l.41-.58,6.41,4.46c3.66,2.55,5.12,5.2,3.1,8.11-1.99,2.86-4.97,2.43-8.59-.09l-2.47-1.72-2.7,3.88c-1.16,1.67-.98,2.15.56,3.35ZM208.92,510.31c2.28,1.58,4.09,1.69,5.65-.54,1.57-2.25.91-4.03-1.54-5.73-.82-.57-1.52-1.06-2.31-1.44l-4.2,6.04,2.41,1.67Z"/>
              <path class="st1" d="M223.18,526.49l.26.8c-1.12.53-3.28,1.18-5.91-.39-3.74-2.23-4.33-5.83-2.4-9.08,1.96-3.29,5.6-4.5,8.93-2.52,3.15,1.88,3.83,5.07,1.79,8.5l-8.42-5.01c-1.95,3.38-1.09,5.8,1.34,7.25,1.95,1.16,3.42.87,4.41.44ZM224.14,521.62c.88-1.47,2.07-3.99-.56-5.56-2.29-1.36-4.28.07-5.61,1.88l6.17,3.67Z"/>
              <path class="st1" d="M237.73,522.78c1.2.62,1.36,1.74.88,2.66-.4.77-1.18,1.2-1.96.8-.63-.33-.73-.88-.65-1.38.11-.51.06-.86-.5-1.15-.73-.38-1.73-.21-2.77.41l-2.92,5.65c-.91,1.76-.77,2.24.64,3.18l-.29.56-5.51-2.85.29-.56c1.45.54,1.92.37,2.83-1.39l2.93-5.67c.91-1.76.77-2.24-.5-3.11l.29-.56,3.7,1.91-1.01,1.79c1.09-.56,3.19-1,4.55-.29Z"/>
              <path class="st1" d="M240.94,537.96l-.26.58-5.53-2.44.26-.58c1.47.45,1.94.25,2.74-1.56l2.57-5.84c.8-1.81.63-2.29-.69-3.07l.26-.58,3.81,1.68-.72,1.64c1.58-.63,3.45-.76,5.02-.07,2.17.96,2.87,2.59,1.66,5.32l-2.28,5.17c-.8,1.81-.63,2.29.69,3.07l-.26.58-5.5-2.43.26-.58c1.48.45,1.94.25,2.74-1.56l2.28-5.17c.85-1.93.35-2.96-.98-3.54-1.4-.62-3.07-.17-4.17.44l-2.59,5.87c-.8,1.81-.66,2.28.69,3.07Z"/>
              <path class="st1" d="M260.53,538.39l.54-1.49c.71-1.96.24-3.17-1.47-3.78-1.24-.45-2.25-.31-2.5.39-.15.42.29.83.06,1.48-.21.6-.97,1.05-1.86.73-.99-.36-1.17-1.35-.88-2.14.59-1.64,2.76-2.29,5.59-1.27,2.31.83,4.32,2.34,3.13,5.64l-2.18,6.03c-.33.92-.16,1.46.51,1.7.32.12.67.1,1.04-.02l.1.57c-1,.43-1.93.45-2.8.14-1.07-.39-1.52-1.22-1.13-2.54-1,.59-2.67,1.17-4.65.46-2.26-.81-3.24-2.6-2.53-4.59,1.05-2.91,4.95-2.68,9.03-1.32ZM253.87,540.45c-.52,1.44.07,2.52,1.39,3,1.41.51,2.89-.08,3.74-.79l1.23-3.43c-3.04-1.07-5.54-1.05-6.36,1.21Z"/>
              <path class="st1" d="M269.95,548.61l-.16.61-5.84-1.55.16-.61c1.53.21,1.95-.06,2.46-1.97l1.64-6.17c.51-1.91.27-2.36-1.16-2.93l.16-.61,4.03,1.07-.45,1.71c1.38-.86,3.08-1.31,4.74-.87,1.68.45,2.63,1.41,2.68,3.06,1.66-1.01,3.36-1.46,5.04-1.01,2.24.6,3.18,2.1,2.42,4.98l-1.45,5.46c-.51,1.91-.27,2.36,1.16,2.93l-.16.61-5.84-1.55.16-.61c1.55.22,1.95-.06,2.46-1.97l1.45-5.46c.54-2.04-.07-2.94-1.29-3.26-1.5-.4-3.09.33-4.06,1.11-.03.21-.09.44-.16.69l-1.45,5.46c-.51,1.91-.27,2.36,1.16,2.93l-.16.61-5.81-1.54.16-.61c1.53.21,1.95-.05,2.46-1.97l1.45-5.46c.54-2.04-.07-2.94-1.32-3.27-1.45-.39-3,.3-4,1.07l-1.64,6.2c-.51,1.91-.27,2.36,1.16,2.93Z"/>
              <path class="st1" d="M288.79,553.84l2.62-15.24c.33-1.92.06-2.37-1.42-2.81l.11-.62,4.11.71-1.25,7.25c.95-.88,2.35-1.39,4.15-1.08,2.96.51,5.04,3.25,4.33,7.36-.72,4.16-3.73,6.27-7.11,5.68-1.46-.25-2.6-1.06-3.19-2.02l-1.44.93-.91-.16ZM294.07,553.94c2.52.43,4.35-1.48,4.92-4.78.54-3.15-.61-5.62-2.95-6.02-1.27-.22-2.48.24-3.28,1.15l-1.32,7.7c.45.96,1.44,1.75,2.64,1.95Z"/>
              <path class="st1" d="M304.01,544.16l.06-.63,4.12.41-.88,8.77c-.21,2.07.59,2.89,2.03,3.04,1.52.15,2.97-.79,3.83-1.71l.64-6.35c.2-1.97-.08-2.37-1.61-2.71l.06-.63,4.15.41-.95,9.5c-.2,1.97.11,2.37,1.61,2.71l-.06.63-4.15-.42.18-1.81c-1.3,1.12-3.04,1.79-4.75,1.62-2.36-.24-3.53-1.57-3.23-4.54l.56-5.59c.2-1.97-.11-2.37-1.61-2.71Z"/>
              <path class="st1" d="M330.82,548.72c-.04,1.13-.67,1.9-1.73,1.87-.84-.03-1.51-.66-1.48-1.55.03-.92.83-1.08.85-1.87.03-.82-.85-1.3-2.2-1.34-2.5-.06-4.08,2.13-4.18,5.11-.13,3.95,1.68,5.84,4.21,5.92,2.21.07,3.3-.89,3.94-1.74l.61.6c-.75,1.06-2.22,2.59-5.2,2.49-3.98-.13-6.18-3-6.06-6.77.13-3.82,2.84-6.64,6.61-6.51,2.9.1,4.7,1.61,4.62,3.8Z"/>
              <path class="st1" d="M341.36,550.39l-.05-1.58c-.06-2.08-.94-3.04-2.76-2.98-1.32.04-2.2.54-2.18,1.28.01.45.57.67.6,1.36.02.63-.52,1.34-1.47,1.36-1.06.03-1.58-.82-1.61-1.67-.05-1.74,1.73-3.14,4.74-3.23,2.45-.07,4.88.59,4.98,4.1l.19,6.41c.03.98.39,1.41,1.1,1.39.34,0,.66-.15.97-.4l.3.49c-.77.76-1.63,1.13-2.55,1.16-1.14.03-1.87-.58-1.99-1.95-.71.92-2.05,2.07-4.16,2.13-2.4.07-3.97-1.23-4.03-3.34-.09-3.09,3.62-4.31,7.92-4.54ZM335.91,554.75c.05,1.53.99,2.32,2.39,2.28,1.5-.04,2.66-1.14,3.19-2.1l-.11-3.64c-3.22.12-5.54,1.06-5.47,3.46Z"/>
              <path class="st1" d="M353.74,556.4l.06.63-6.02.6-.06-.63c1.5-.34,1.81-.74,1.61-2.71l-.63-6.36c-.2-1.97-.57-2.3-2.11-2.34l-.06-.63,4.15-.41.18,1.79c1.06-1.33,2.63-2.36,4.34-2.53,2.36-.24,3.77.85,4.07,3.81l.56,5.62c.2,1.97.57,2.3,2.12,2.34l.06.63-5.99.59-.06-.63c1.51-.34,1.81-.74,1.61-2.71l-.56-5.62c-.21-2.1-1.15-2.75-2.59-2.61-1.52.15-2.76,1.36-3.42,2.43l.63,6.38c.2,1.97.55,2.31,2.12,2.34Z"/>
              <path class="st1" d="M370.97,547.14l-.27-1.56c-.35-2.06-1.35-2.88-3.14-2.57-1.3.22-2.11.84-1.98,1.57.08.44.66.58.78,1.26.11.62-.32,1.39-1.26,1.55-1.04.18-1.68-.6-1.82-1.43-.29-1.72,1.28-3.35,4.24-3.85,2.42-.41,4.91-.09,5.5,3.37l1.08,6.32c.16.96.58,1.35,1.28,1.23.34-.06.63-.24.9-.53l.37.45c-.66.86-1.46,1.35-2.37,1.5-1.12.19-1.93-.31-2.24-1.65-.58,1.01-1.74,2.33-3.83,2.69-2.37.4-4.1-.67-4.46-2.75-.52-3.04,2.99-4.76,7.21-5.59ZM366.18,552.22c.26,1.51,1.31,2.16,2.68,1.93,1.48-.25,2.48-1.49,2.86-2.52l-.61-3.59c-3.17.57-5.34,1.82-4.94,4.19Z"/>
            </g>
            <g>
              <path class="st1" d="M387.24,532.6l-.17-.61,4.02-1.1,4.08,14.92c.52,1.91.95,2.18,2.48,1.95l.17.61-4.02,1.1-.4-1.45c-.47,1.2-1.54,2.28-3.32,2.77-2.9.79-5.94-.81-7.04-4.83-1.11-4.07.73-7.26,4.03-8.16,1.4-.38,2.72-.17,3.65.43l-1-3.67c-.52-1.91-.95-2.18-2.48-1.95ZM390.58,549.34c1.25-.34,2.17-1.28,2.49-2.49l-2.03-7.44c-.82-.71-2.06-1.02-3.26-.7-2.47.67-3.32,3.18-2.43,6.41.84,3.08,2.94,4.83,5.23,4.21Z"/>
              <path class="st1" d="M409.96,541.01l.78.31c-.3,1.2-1.19,3.28-4.08,4.3-4.11,1.45-7.25-.41-8.51-3.97-1.27-3.61.13-7.18,3.78-8.47,3.46-1.22,6.35.31,7.68,4.07l-9.23,3.26c1.35,3.67,3.76,4.55,6.42,3.61,2.14-.76,2.85-2.07,3.16-3.1ZM406.83,537.16c-.57-1.62-1.74-4.14-4.63-3.12-2.51.89-2.69,3.33-2.14,5.51l6.77-2.39Z"/>
            </g>
            <g>
              <path class="st1" d="M420.75,530.28l3.19,6.73c.94-.3,1.8-.71,2.68-1.12,3.62-1.72,4.29-3.64,2.87-7.32l.64-.3,2.76,5.82-12.86,6.09-.31-.64c1.72-.93,1.98-1.37,1.11-3.21l-4.83-10.21c-.87-1.84-1.38-1.92-3.19-1.18l-.3-.64,12.47-5.91,2.34,4.94-.62.29c-1.72-2.89-3.15-3.38-6.92-1.6-.81.38-1.6.76-2.35,1.26l2.82,5.96,1.86-.88c2.53-1.2,2.78-2.28,1.77-4.58l.64-.31,3.38,7.13-.64.31c-1.13-2.21-2.1-2.71-4.65-1.5l-1.86.88Z"/>
              <path class="st1" d="M440.9,518.87c.56.99.42,1.98-.5,2.49-.74.42-1.63.22-2.07-.56-.45-.8.14-1.35-.25-2.04-.4-.71-1.4-.66-2.57,0-2.17,1.26-2.38,3.95-.91,6.54,1.95,3.45,4.47,4.11,6.68,2.86,1.93-1.09,2.35-2.48,2.46-3.54l.84.19c-.09,1.29-.55,3.37-3.15,4.84-3.47,1.96-6.84.65-8.7-2.63-1.88-3.33-1.04-7.14,2.25-9,2.53-1.43,4.85-1.07,5.93.83Z"/>
              <path class="st1" d="M455.62,512.9c2.17,3.28,1.64,6.89-1.75,9.13-3.35,2.21-6.91,1.31-9.08-1.97-2.17-3.28-1.6-6.91,1.75-9.13,3.39-2.24,6.91-1.31,9.08,1.97ZM453.37,521.27c2.27-1.5,2.11-4.08.17-7.01-1.92-2.9-4.25-4.09-6.52-2.59-2.24,1.48-2.09,4.1-.17,7.01,1.94,2.93,4.27,4.07,6.52,2.59Z"/>
              <path class="st1" d="M465.79,512.41l.39.5-4.79,3.69-.39-.5c1.1-1.08,1.14-1.58-.07-3.15l-3.9-5.06c-1.21-1.57-1.71-1.65-3.03-.86l-.39-.5,3.3-2.55,1.1,1.42c.2-1.69.98-3.39,2.34-4.44,1.88-1.45,3.65-1.28,5.47,1.08l3.45,4.47c1.21,1.57,1.71,1.65,3.03.86l.39.5-4.76,3.68-.39-.5c1.1-1.08,1.15-1.58-.06-3.15l-3.45-4.47c-1.29-1.67-2.43-1.72-3.58-.84-1.21.94-1.62,2.62-1.61,3.88l3.92,5.08c1.21,1.57,1.69,1.67,3.03.86Z"/>
              <path class="st1" d="M480,492.89c2.62,2.93,2.63,6.58-.4,9.29-2.99,2.68-6.65,2.3-9.27-.63-2.62-2.93-2.59-6.61.4-9.29,3.03-2.71,6.65-2.3,9.27.63ZM478.99,501.51c2.03-1.81,1.49-4.35-.85-6.96-2.32-2.6-4.8-3.43-6.83-1.61-2.01,1.8-1.48,4.37.85,6.96,2.34,2.62,4.82,3.41,6.83,1.61Z"/>
              <path class="st1" d="M489.5,490.13l.46.43-4.12,4.42-.46-.43c.91-1.24.87-1.75-.57-3.1l-4.67-4.36c-1.45-1.35-1.95-1.35-3.13-.36l-.46-.43,2.84-3.05,1.29,1.21c-.11-1.62.3-3.33,1.47-4.59,1.19-1.27,2.48-1.65,3.96-.92-.1-1.94.3-3.65,1.49-4.92,1.58-1.7,3.35-1.81,5.53.22l4.13,3.85c1.45,1.35,1.95,1.35,3.13.36l.46.43-4.12,4.42-.46-.43c.93-1.26.87-1.75-.57-3.1l-4.13-3.85c-1.54-1.44-2.62-1.33-3.49-.4-1.06,1.14-1.17,2.88-.94,4.1.17.12.35.29.54.47l4.13,3.85c1.45,1.35,1.95,1.35,3.13.36l.46.43-4.1,4.4-.46-.43c.91-1.24.87-1.75-.57-3.1l-4.13-3.85c-1.54-1.44-2.62-1.33-3.5-.38-1.03,1.1-1.15,2.78-.94,4.03l4.69,4.37c1.45,1.35,1.95,1.35,3.13.36Z"/>
              <path class="st1" d="M490.37,463.6c.58-.72,1.58-.82,2.28-.26.7.56.8,1.56.22,2.28-.56.7-1.57.8-2.26.24-.7-.56-.8-1.57-.24-2.26ZM502.14,476.95c.82-1.31.75-1.81-.79-3.05l-4.98-4.03c-1.54-1.24-2.02-1.19-3.13-.12l-.49-.4,2.62-3.24,7.43,6c1.54,1.24,2.02,1.23,3.15.13l.49.4-3.8,4.7-.49-.4Z"/>
              <path class="st1" d="M506.65,459.44l-1.28-.93c-1.68-1.23-2.97-1.12-4.04.35-.78,1.07-.92,2.07-.33,2.5.36.27.88-.04,1.43.36.51.37.74,1.23.18,1.99-.62.85-1.62.74-2.3.24-1.41-1.03-1.42-3.29.36-5.72,1.45-1.98,3.46-3.48,6.3-1.41l5.18,3.78c.79.58,1.35.56,1.77-.01.2-.28.28-.61.28-1.01l.58.06c.13,1.07-.11,1.98-.65,2.73-.67.92-1.6,1.12-2.75.37.29,1.13.37,2.89-.87,4.59-1.42,1.94-3.41,2.38-5.11,1.13-2.49-1.82-1.18-5.5,1.28-9.04ZM506.75,466.41c1.23.9,2.44.64,3.27-.49.89-1.21.74-2.8.3-3.8l-2.94-2.15c-1.88,2.61-2.56,5.02-.62,6.44Z"/>
            </g>
            <g>
              <path class="st1" d="M513.36,445.09c-4.8-2.82-5.94-7.81-3.1-12.63,1.07-1.82,2.76-3.49,4.43-4.31l4.14,2.44-.36.61c-2.94-1.15-5.63-.99-7.39,1.99-1.83,3.12-.67,6.86,3.58,9.36,4.18,2.46,8.39,1.41,10.59-2.34,1.26-2.14,1.17-3.91.88-5.24l.93-.13c.56,2.01.42,4.23-1.13,6.87-2.84,4.82-7.85,6.16-12.58,3.37Z"/>
              <path class="st1" d="M521.64,420.44c.6-1.2,1.72-1.38,2.64-.92.78.39,1.21,1.17.82,1.95-.32.64-.87.74-1.37.67-.51-.11-.86-.05-1.15.52-.37.73-.19,1.74.45,2.76l5.68,2.85c1.77.89,2.25.75,3.17-.68l.57.28-2.78,5.54-.57-.28c.52-1.45.34-1.92-1.42-2.81l-5.71-2.86c-1.77-.89-2.25-.75-3.1.54l-.57-.28,1.87-3.73,1.81.99c-.58-1.09-1.03-3.18-.35-4.54Z"/>
              <path class="st1" d="M519.17,412.82c.38-.84,1.32-1.2,2.14-.83.82.37,1.18,1.31.8,2.15-.37.82-1.31,1.18-2.13.81-.82-.37-1.17-1.31-.81-2.13ZM533.94,422.75c.46-1.47.26-1.94-1.54-2.75l-5.85-2.63c-1.81-.81-2.26-.64-3.06.68l-.58-.26,1.71-3.8,8.71,3.92c1.8.81,2.27.67,3.08-.67l.58.26-2.48,5.51-.58-.26Z"/>
              <path class="st1" d="M533.29,405.46l-1.47-.58c-1.94-.76-3.16-.34-3.83,1.36-.48,1.23-.37,2.24.32,2.51.42.16.84-.27,1.48-.01.59.23,1.03,1,.68,1.88-.39.98-1.38,1.13-2.17.82-1.62-.64-2.21-2.83-1.11-5.63.9-2.28,2.47-4.25,5.73-2.96l5.97,2.35c.91.36,1.45.2,1.71-.46.13-.32.12-.66.01-1.04l.57-.09c.4,1.01.4,1.94.06,2.8-.42,1.06-1.27,1.49-2.57,1.06.56,1.02,1.09,2.7.32,4.66-.88,2.23-2.69,3.17-4.66,2.39-2.87-1.13-2.53-5.02-1.06-9.07ZM535.15,412.18c1.42.56,2.52,0,3.04-1.3.55-1.4,0-2.89-.68-3.76l-3.39-1.33c-1.15,3.01-1.2,5.51,1.03,6.39Z"/>
              <path class="st1" d="M528.24,394.7l.21-.63,3.9,1.31,1.13-3.38.95.32-1.13,3.38,8.13,2.73c1.48.5,2.2.07,2.52-.88.26-.78.07-1.54-.5-2.31l.63-.37c.92,1.17,1.33,2.51.81,4.06-.61,1.83-1.98,2.42-4.11,1.71l-8.21-2.75-.72,2.15-.55-.19c.4-2.51-.37-3.71-3.06-5.15Z"/>
              <path class="st1" d="M529.35,385.12c.26-.89,1.15-1.37,2.01-1.11.86.25,1.34,1.14,1.08,2.02-.25.86-1.14,1.34-2,1.09-.86-.26-1.34-1.14-1.09-2ZM545.33,392.96c.26-1.52,0-1.95-1.9-2.52l-6.15-1.82c-1.9-.56-2.32-.33-2.94,1.09l-.61-.18,1.18-4,9.16,2.71c1.9.56,2.34.36,2.96-1.08l.61.18-1.71,5.8-.61-.18Z"/>
              <path class="st1" d="M536.76,376.91l.61.15c-.18,1.4.24,2.12,2.47,1.77l7.28-1.23-4.96-3.71c-2.09-1.57-3.39-1.81-4.02,0l-.62-.15,1.18-4.82.56.14c-.05,1.21.65,1.79,2.29,3.06l7.99,6-.36,1.46-10.23,1.71c-2.09.33-2.55.54-3.01,1.52l-.62-.15,1.41-5.74Z"/>
              <path class="st1" d="M542.75,359.84l-1.56-.28c-2.05-.37-3.16.29-3.49,2.08-.24,1.3.07,2.27.8,2.4.44.08.77-.42,1.45-.3.62.11,1.2.78,1.03,1.72-.19,1.04-1.13,1.38-1.96,1.23-1.71-.31-2.71-2.34-2.18-5.3.44-2.42,1.59-4.65,5.04-4.02l6.31,1.14c.96.17,1.46-.08,1.59-.78.06-.34-.01-.67-.19-1.03l.54-.2c.59.91.77,1.83.6,2.74-.2,1.12-.95,1.7-2.32,1.54.75.89,1.6,2.43,1.22,4.51-.43,2.36-2.02,3.63-4.1,3.25-3.04-.55-3.46-4.43-2.8-8.68ZM545.88,366.07c1.51.27,2.48-.49,2.72-1.87.27-1.48-.56-2.84-1.4-3.55l-3.58-.65c-.55,3.17-.11,5.64,2.25,6.07Z"/>
            </g>
          </g>
          <g>
            <path class="st1" d="M112.15,343.48l-8.45-7.63.75-1.01,9.36,5.61,9.34-5.64.76,1.01-8.43,7.65h-3.32ZM112.16,352.02l-8.46-7.63.75-1.01,9.36,5.61,9.34-5.64.75,1.01-8.43,7.65h-3.32Z"/>
            <g>
              <g>
                <path class="st1" d="M113.43,320.83c-10.47-1.69-15.94-9.76-14.23-20.28.64-3.97,2.48-8.1,4.89-10.72l9.03,1.46-.22,1.34c-6.01,0-10.68,2.14-11.74,8.64-1.1,6.8,3.55,12.64,12.83,14.15,9.13,1.48,15.86-3.29,17.19-11.48.75-4.66-.63-7.74-2.06-9.91l1.57-.87c2.39,3.19,3.67,7.21,2.74,12.97-1.7,10.52-9.68,16.36-20,14.69Z"/>
                <path class="st1" d="M112.41,267.58c.71-2.47,2.74-3.19,4.63-2.65,1.59.46,2.68,1.76,2.23,3.36-.37,1.3-1.38,1.7-2.33,1.74-.99-.02-1.63.21-1.96,1.37-.43,1.5.25,3.31,1.81,5.01l11.65,3.34c3.62,1.04,4.48.6,5.7-2.39l1.16.33-3.25,11.35-1.16-.33c.47-2.9-.03-3.72-3.66-4.76l-11.69-3.35c-3.62-1.04-4.48-.6-5.62,2.1l-1.16-.33,2.19-7.63,3.73,1.22c-1.46-1.83-3.05-5.58-2.25-8.38Z"/>
                <path class="st1" d="M107.43,251.94c.61-1.65,2.35-2.45,3.96-1.86,1.6.59,2.4,2.34,1.79,3.99-.59,1.6-2.34,2.4-3.94,1.81-1.6-.59-2.4-2.34-1.81-3.94ZM136.8,268.87c.68-2.86.25-3.71-3.29-5.02l-11.45-4.24c-3.53-1.31-4.37-.92-5.72,1.69l-1.13-.42,2.76-7.45,17.06,6.32c3.54,1.31,4.4.99,5.76-1.67l1.13.42-4,10.79-1.13-.42Z"/>
                <path class="st1" d="M136.31,236.34l-2.73-1.29c-3.59-1.7-5.96-1.04-7.44,2.1-1.07,2.27-.99,4.2.28,4.81.77.37,1.63-.4,2.82.16,1.09.52,1.82,2.03,1.05,3.67-.86,1.82-2.77,1.97-4.22,1.28-3-1.42-3.83-5.65-1.38-10.83,2-4.23,5.23-7.76,11.27-4.9l11.04,5.22c1.68.8,2.73.57,3.31-.66.28-.59.31-1.24.16-1.98l1.1-.09c.63,1.97.51,3.75-.24,5.34-.92,1.95-2.59,2.66-5.02,1.68.94,2,1.74,5.27.01,8.9-1.96,4.14-5.52,5.67-9.16,3.96-5.32-2.51-4.17-9.87-.85-17.36ZM139,249.35c2.64,1.25,4.8.32,5.94-2.09,1.22-2.59.37-5.5-.81-7.22l-6.27-2.97c-2.58,5.57-2.99,10.32,1.14,12.28Z"/>
                <path class="st1" d="M129.07,212.35l.64-1.08,6.74,4,3.46-5.83,1.64.97-3.46,5.83,14.05,8.34c2.55,1.51,4.07,1.01,5.05-.63.8-1.34.74-2.83-.01-4.51l1.32-.45c1.24,2.55,1.47,5.2-.12,7.88-1.87,3.15-4.66,3.72-8.34,1.54l-14.18-8.41-2.21,3.72-.95-.56c1.75-4.52.8-7.06-3.64-10.81Z"/>
                <path class="st1" d="M136.71,195.65c1-1.45,2.89-1.79,4.3-.82,1.41.97,1.75,2.86.75,4.31-.97,1.41-2.86,1.75-4.27.78-1.41-.97-1.75-2.86-.78-4.27ZM160.98,219.33c1.37-2.6,1.16-3.54-1.94-5.68l-10.05-6.94c-3.1-2.14-4.01-1.98-5.96.22l-.99-.69,4.51-6.53,14.97,10.34c3.1,2.14,4.02,2.05,6-.19l.99.68-6.54,9.47-.99-.68Z"/>
                <path class="st1" d="M156.43,186.68l.93.77c-1.47,2.24-1.35,3.84,2.76,5.1l13.51,3.95-5.4-10.49c-2.27-4.43-4.3-5.92-6.88-3.36l-.93-.77,6.03-7.27.85.71c-1.1,2.03-.38,3.61,1.38,7.15l8.68,16.94-1.83,2.21-18.94-5.59c-3.86-1.18-4.82-1.19-6.42.1l-.93-.77,7.19-8.67Z"/>
                <path class="st1" d="M164.86,161.8c1.24-1.25,3.16-1.25,4.37-.05,1.21,1.21,1.22,3.13-.02,4.37-1.21,1.21-3.12,1.22-4.34.01-1.21-1.21-1.22-3.12-.01-4.34ZM184.58,189.39c1.81-2.32,1.77-3.28-.91-5.93l-8.67-8.61c-2.68-2.66-3.6-2.65-5.9-.83l-.86-.85,5.6-5.64,12.91,12.83c2.68,2.66,3.6,2.73,5.94.87l.86.85-8.12,8.17-.86-.85Z"/>
                <path class="st1" d="M184.4,144.62l-.77-.93,6.13-5.05,18.74,22.73c2.4,2.91,3.35,3.04,5.82,1.45l.77.93-6.13,5.05-1.82-2.21c.12,2.44-.89,5.17-3.61,7.4-4.42,3.65-10.95,3.23-16.01-2.9-5.12-6.21-4.41-13.17.63-17.33,2.13-1.76,4.59-2.42,6.67-2.11l-4.61-5.59c-2.4-2.91-3.35-3.04-5.83-1.45ZM203.28,171.08c1.9-1.57,2.77-3.91,2.39-6.27l-9.34-11.33c-1.98-.58-4.38-.17-6.2,1.33-3.76,3.1-3.28,8.11.78,13.04,3.87,4.69,8.88,6.1,12.37,3.23Z"/>
                <path class="st1" d="M222.35,142.47l-1.6-2.56c-2.11-3.37-4.46-4.09-7.39-2.25-2.13,1.33-3.1,3.01-2.35,4.2.45.72,1.59.55,2.28,1.66.64,1.02.44,2.69-1.1,3.65-1.7,1.07-3.39.17-4.25-1.2-1.76-2.81-.18-6.82,4.68-9.86,3.96-2.48,8.59-3.71,12.13,1.96l6.48,10.35c.99,1.58,1.99,1.95,3.14,1.23.55-.35.93-.88,1.2-1.58l.97.52c-.53,1.99-1.59,3.43-3.08,4.36-1.83,1.15-3.62.84-5.14-1.29-.29,2.19-1.38,5.37-4.79,7.5-3.88,2.43-7.71,1.8-9.84-1.61-3.12-4.98,1.81-10.56,8.65-15.07ZM217.6,154.86c1.55,2.47,3.86,2.86,6.12,1.45,2.43-1.52,3.28-4.42,3.21-6.52l-3.68-5.88c-5.17,3.29-8.08,7.07-5.66,10.95Z"/>
                <path class="st1" d="M237.5,112.09l-.5-1.1,7.23-3.28,12.18,26.82c1.56,3.43,2.45,3.8,5.24,2.92l.5,1.1-7.23,3.28-1.18-2.61c-.52,2.39-2.2,4.75-5.41,6.21-5.22,2.37-11.41.27-14.7-6.96-3.33-7.32-.83-13.87,5.12-16.57,2.52-1.14,5.06-1.14,6.98-.3l-2.99-6.59c-1.56-3.43-2.45-3.8-5.25-2.92ZM248.85,142.55c2.24-1.02,3.69-3.06,3.94-5.43l-6.07-13.36c-1.76-1.08-4.18-1.3-6.33-.33-4.44,2.02-5.28,6.98-2.64,12.79,2.52,5.54,6.98,8.2,11.1,6.33Z"/>
                <path class="st1" d="M283.4,126.33l1.46.67c-.69,2.25-2.58,6.12-8.17,7.78-7.95,2.37-13.76-1.46-15.81-8.35-2.08-6.98.92-13.64,8-15.75,6.7-1.99,12.05,1.19,14.21,8.46l-17.87,5.32c2.22,7.1,6.72,9.01,11.88,7.48,4.14-1.23,5.62-3.67,6.3-5.6ZM277.82,118.71c-.93-3.13-2.92-8.05-8.51-6.38-4.86,1.45-5.43,6.07-4.59,10.28l13.1-3.9Z"/>
              </g>
              <g>
                <path class="st1" d="M297.3,95.91l-.09-1.35,10.83-.69,11.92,25.13,8.65-26.44,10.38-.66.09,1.35c-3.75.44-4.47,1.04-4.22,4.9l1.36,21.47c.25,3.86,1.03,4.37,4.81,4.33l.09,1.35-13.84.88-.09-1.35c3.75-.44,4.52-1.04,4.27-4.9l-1.51-23.78-9.95,30.5-1.7.11-13.73-29.09,1.37,21.62c.32,5.02,1.97,6.42,6,6.52l.09,1.35-12.69.81-.09-1.35c3.44-.57,4.7-2.16,4.38-7.18l-1.22-19.21c-.25-3.86-1.18-4.36-5.11-4.31Z"/>
                <path class="st1" d="M344.74,103.07l.12-1.2,7.85.8-1.7,16.7c-.4,3.95,1.11,5.52,3.86,5.8,2.9.3,5.66-1.5,7.3-3.25l1.23-12.1c.38-3.75-.15-4.51-3.06-5.16l.12-1.2,7.9.8-1.84,18.1c-.38,3.75.2,4.52,3.06,5.16l-.12,1.2-7.9-.8.35-3.45c-2.49,2.12-5.8,3.4-9.05,3.07-4.5-.46-6.72-3.01-6.14-8.66l1.08-10.65c.38-3.75-.2-4.52-3.06-5.16Z"/>
                <path class="st1" d="M393.55,99.17l.28-1.17,7.72,1.86-6.89,28.64c-.88,3.67-.41,4.5,2.34,5.53l-.28,1.17-7.72-1.86.67-2.79c-1.88,1.57-4.66,2.4-8.08,1.57-5.57-1.34-9.17-6.81-7.31-14.53,1.88-7.82,7.87-11.45,14.22-9.92,2.69.65,4.69,2.21,5.69,4.06l1.69-7.04c.88-3.67.41-4.5-2.34-5.53ZM383.77,130.16c2.39.58,4.79-.14,6.44-1.86l3.43-14.27c-.72-1.93-2.49-3.6-4.79-4.15-4.74-1.14-8.45,2.26-9.95,8.47-1.42,5.91.46,10.76,4.86,11.82Z"/>
                <path class="st1" d="M418.11,128.3l1.1-2.81c1.45-3.7.62-6.02-2.61-7.28-2.34-.91-4.26-.69-4.77.62-.31.8.51,1.6.03,2.82-.44,1.12-1.9,1.96-3.58,1.3-1.87-.73-2.16-2.62-1.57-4.12,1.21-3.09,5.37-4.22,10.71-2.13,4.36,1.7,8.1,4.68,5.67,10.9l-4.44,11.38c-.68,1.73-.38,2.77.88,3.26.61.24,1.26.22,1.99.02l.17,1.09c-1.92.76-3.7.77-5.34.13-2.01-.79-2.84-2.4-2.03-4.89-1.93,1.08-5.14,2.09-8.88.63-4.26-1.67-6.04-5.11-4.58-8.86,2.14-5.48,9.56-4.85,17.26-2.05ZM405.32,131.88c-1.06,2.72.01,4.81,2.49,5.78,2.67,1.04,5.51,0,7.15-1.31l2.52-6.46c-5.73-2.19-10.5-2.27-12.17,1.99Z"/>
              </g>
              <path class="st1" d="M459.03,153.36c-4.04,6.3-10.73,8.16-17.25,3.98-6.43-4.13-7.61-11.04-3.56-17.34,4.04-6.3,10.82-8.11,17.25-3.98,6.51,4.18,7.61,11.04,3.56,17.34ZM442.7,155.9c4.36,2.8,8.74.53,12.35-5.09,3.58-5.58,3.85-10.55-.51-13.35-4.31-2.77-8.76-.49-12.35,5.09-3.61,5.63-3.8,10.58.51,13.35Z"/>
              <g>
                <path class="st1" d="M486.71,149.22l.99-.93,7.42,7.92-11.81,25.18,25.9-10.14,7.11,7.59-.99.93c-2.72-2.61-3.64-2.79-6.47-.14l-15.7,14.71c-2.82,2.65-2.71,3.57-.28,6.46l-.99.93-9.48-10.12.99-.93c2.72,2.61,3.68,2.82,6.5.18l17.39-16.29-29.86,11.72-1.17-1.25,13.72-29.1-15.81,14.81c-3.67,3.44-3.7,5.6-1.21,8.78l-.99.93-8.69-9.28.99-.93c2.63,2.29,4.66,2.25,8.32-1.19l14.05-13.16c2.82-2.65,2.61-3.68.08-6.68Z"/>
                <path class="st1" d="M511.45,190.67l1.02-.65,4.25,6.65-14.14,9.05c-3.35,2.14-3.64,4.3-2.15,6.62,1.57,2.46,4.69,3.5,7.08,3.7l10.25-6.56c3.18-2.03,3.44-2.92,2.14-5.61l1.02-.65,4.28,6.69-15.33,9.81c-3.17,2.03-3.42,2.96-2.14,5.61l-1.02.65-4.28-6.69,2.92-1.87c-3.21-.63-6.27-2.43-8.03-5.18-2.44-3.81-1.82-7.13,2.96-10.19l9.02-5.77c3.17-2.03,3.42-2.96,2.14-5.61Z"/>
                <path class="st1" d="M513.16,237.02l-1.1.5-4.81-10.46,1.1-.5c1.54,2.5,2.45,2.8,5.88,1.23l11.05-5.08c3.43-1.58,3.79-2.46,2.89-5.26l1.1-.5,3.32,7.22-3.11,1.43c3.05,1.09,5.88,3.27,7.24,6.24,1.89,4.11.82,7.32-4.34,9.69l-9.77,4.49c-3.43,1.57-3.79,2.46-2.89,5.26l-1.1.5-4.79-10.41,1.1-.5c1.54,2.5,2.45,2.8,5.87,1.23l9.77-4.49c3.65-1.68,4.24-3.77,3.09-6.29-1.22-2.65-4.16-4.12-6.51-4.64l-11.1,5.1c-3.43,1.57-3.81,2.42-2.89,5.26Z"/>
                <path class="st1" d="M556.26,257.48l1.15-.35,2.34,7.59-28.16,8.66c-3.6,1.11-4.09,1.94-3.56,4.83l-1.15.35-2.34-7.59,2.74-.84c-2.3-.82-4.43-2.79-5.47-6.15-1.68-5.48,1.19-11.36,8.78-13.69,7.69-2.36,13.86.94,15.78,7.19.81,2.64.48,5.16-.59,6.97l6.92-2.13c3.6-1.11,4.08-1.94,3.56-4.83ZM524.61,264.85c.73,2.35,2.56,4.05,4.89,4.6l14.03-4.32c1.29-1.61,1.83-3.98,1.13-6.24-1.43-4.66-6.25-6.12-12.35-4.25-5.81,1.79-9.03,5.88-7.7,10.2Z"/>
                <path class="st1" d="M543.51,303.12c-7.38,1.29-13.27-2.38-14.6-10-1.31-7.52,2.97-13.07,10.35-14.36,7.38-1.29,13.29,2.47,14.6,10,1.33,7.62-2.97,13.07-10.35,14.36ZM530.59,292.82c.89,5.1,5.52,6.79,12.11,5.64,6.53-1.14,10.37-4.31,9.48-9.41-.88-5.05-5.57-6.78-12.11-5.64-6.58,1.15-10.36,4.36-9.48,9.41Z"/>
              </g>
            </g>
            <path class="st1" d="M543.65,336.73l-8.65-7.41.73-1.02,9.5,5.37,9.19-5.88.78.98-8.23,7.86-3.32.09ZM543.42,328.19l-8.65-7.41.73-1.02,9.5,5.37,9.19-5.88.78.98-8.23,7.86-3.32.09Z"/>
          </g>
        </g>
        <g>
          <path class="st4" d="M272.98,154.25c2.7-2.9,5.85-5.34,9.5-7.18,1.14-.57,2.08-1.55,3.06-2.4,2.28-1.99,4.72-2.61,7.56-1.21,2.05,1.01,4.15,1.32,6.41.46.94-.36,2.07-.39,3.09-.31,3.31.24,6.49-.33,9.6-1.34,1.9-.62,3.82-.77,5.79-.73,1.83.04,3.66.07,5.48.02,3.41-.1,6.71.23,10,1.35,2.68.91,5.54,1.34,8.39,1.72,3.75.51,7.48,1.08,11.26,1.14.13,0,.27,0,.39.06,2.99,1.42,6.25,1.47,9.44,2,1.81.3,3.59.61,5.4.54,5.4-.21,10.57.68,15.8,2.1,4.21,1.14,8.11,2.56,11.77,4.9,1.52.97,3.3,1.55,5,2.19,2.44.92,4.95,1.65,7.36,2.65,1.42.59,2.86,1.36,4,2.38,3.84,3.42,8.27,5.81,12.91,7.92,4.86,2.21,9.65,4.6,14.48,6.89.7.33,1.47.51,2.21.74,1.87.58,3.76,1.08,5.6,1.72,2.39.84,4.42,2.23,5.93,4.3.31.42.57.9.96,1.23,4.48,3.78,7.19,8.86,10.16,13.76.53.87,1.33,1.59,2.04,2.35,5.07,5.45,10.18,10.85,15.19,16.34,1.67,1.83,3.05,3.91,4.62,5.82,3.39,4.13,6.93,8.14,10.21,12.36,2.23,2.88,4.05,6.07,6.17,9.05,2.4,3.37,3.76,7.11,4.52,11.13.41,2.17,1.05,4.31,1.71,6.43,2.33,7.48,4.21,15.07,5.88,22.71.27,1.26.37,2.59.34,3.88-.17,6.68.87,13.28,1.49,19.9.08.9.36,1.78.62,2.66.29,1,.59,2.01,1.01,2.96,2.59,5.94,2.48,12.2,2.36,18.48-.04,1.94-.99,3.54-1.93,5.06-.97,1.58-.99,3.06-.87,4.82.3,4.29.29,8.6.36,12.9.01.64-.03,1.36-.29,1.92-.67,1.44-.44,2.76.14,4.14.3.71.47,1.5.61,2.27.59,3.28.67,6.48-1.27,9.44-1.09,1.66-1.75,3.49-2.07,5.45-.11.63-.2,1.36-.56,1.86-1.8,2.53-2.07,5.57-3.02,8.39-2.51,7.41-5.1,14.81-7.99,22.08-2.17,5.45-4.86,10.68-7.28,16.03-2.7,5.96-6.28,11.43-9.58,17.06-.92,1.57-2.07,3.03-3.3,4.37-3.79,4.13-7.39,8.45-11.64,12.15-1.08.94-2.07,1.99-3.07,3.02-1.37,1.41-2.59,2.9-3.15,4.88-.47,1.68-1.52,3.04-3.07,3.91-1.28.72-2.26,1.71-3.14,2.88-1.35,1.8-3.09,3.12-5.11,4.16-2.89,1.5-5.71,3.11-7.83,5.73-1.52,1.87-3.9,2.51-5.96,3.56-2.23,1.14-4.32,2.38-6.15,4.1-.38.35-.72.88-1.17,1-3.37.9-5.75,3.55-8.84,4.94-1.41.64-2.64,1.66-3.94,2.53-5.21,3.47-10.54,6.71-16.51,8.76-2.83.97-5.57,2.22-8.4,3.23-2.33.83-4.72,1.5-7.09,2.22-.5.15-1.1.51-1.5.35-2.45-.94-4.59.33-6.8.9-3.53.91-7.03,1.97-10.56,2.89-1.25.33-2.57.39-3.84.68-3.43.78-6.84,1.64-10.28,2.39-1.13.25-2.32.34-3.48.37-2.35.07-4.7-.03-7.05.07-1.55.07-3.08.39-4.62.57-1.03.12-2.07.25-3.11.29-5.61.19-11.21.42-16.82.49-2.33.03-4.67-.4-7.01-.44-4.83-.07-9.66-.14-14.49.02-3.34.11-6.48-.53-9.53-1.74-2.66-1.05-5.25-2.28-7.88-3.4-2.26-.96-4.54-1.88-6.8-2.84-2.77-1.17-5.51-2.37-7.81-4.38-.67-.59-1.49-1.06-2.31-1.43-4.61-2.12-9.15-4.48-13.91-6.18-2.95-1.06-5.74-2.45-8.67-3.51-2.96-1.07-5.59-2.75-8.32-4.28-4.55-2.54-9.17-4.92-13.33-8.1-3.73-1.17-6.36-4.03-9.48-6.14-2.05-1.39-4.13-2.73-6.16-4.15-2.02-1.42-4.17-2.73-5.93-4.43-6.02-5.78-11.95-11.65-17.78-17.62-1.61-1.65-2.85-3.71-4.05-5.7-3.28-5.49-6.46-11.04-9.65-16.58-.39-.67-.85-1.41-.9-2.14-.17-2.31-1.33-4.15-2.35-6.13-1.9-3.7-3.8-7.39-5.72-11.07-1.97-3.77-3.38-7.8-3.89-12.19-.46-3.97-1.92-7.83-2.91-11.75-.57-2.26-1.13-4.53-1.62-6.82-.85-3.95-1.77-7.88-2.44-11.87-1.15-6.79-2.62-13.51-3.65-20.34-1.5-10.04-.46-20.07-.83-30.09-.03-.78.04-1.58.23-2.33.72-2.95.81-5.93.85-8.94.02-1.41.45-2.81.63-4.23.16-1.28.52-2.64.26-3.85-.43-1.96-.34-3.85-.13-5.8.15-1.42.28-2.86.24-4.3-.18-7.61,2.63-14.29,6.47-20.6,1.31-2.16,2.42-4.19,2.39-6.86-.03-2.55,1.27-4.8,2.87-6.72,2.51-3.03,4.64-6.29,6.83-9.54,1.76-2.63,3.17-5.39,4.46-8.24,1.62-3.56,3.33-7.08,4.94-10.66,1.44-3.2,2.95-6.4,4.14-9.7,1.69-4.64,4.51-8.5,7.68-12.17,1.7-1.97,3.19-4.19,5.15-5.86,1.94-1.66,4.4-2.7,6.55-4.13,4.44-2.95,8.49-6.4,12.58-9.82,2.59-2.17,5.3-4.22,7.95-6.33.92-.73,2.1-1.32,2.66-2.26,1.87-3.13,5.11-4.38,8.02-5.96,3.29-1.79,6.82-3.15,10.5-4.1,1.85-.48,3.57-1.57,5.26-2.53,1.58-.9,3.03-2,4.96-2.19.74-.07,1.47-.51,2.14-.9,6.11-3.54,12.57-6.33,19.16-8.83.95-.36,2.01-.43,3.1-.66ZM178.02,314.69c1.36-.4,2.7-1.06,4.08-1.16,4.37-.33,8.5.6,12.43,2.64,3.69,1.92,7.02,4.06,8.05,8.48.19.81.88,1.27,1.73,1.36.52.05,1.04.05,1.56.06,4.48.08,4.98-.39,5-4.77.01-3.53.08-7.06-.02-10.58-.1-3.55,1.52-5.96,4.6-7.53.35-.18.71-.33,1.04-.53,2.34-1.42,4.73-2.77,7-4.29,3.6-2.4,5.52-5.83,5.69-10.16.06-1.48.35-2.8,1.16-4.07.56-.87.84-1.91,1.33-2.82,1.62-2.97,3.15-6.01,4.98-8.84.73-1.13,2.06-2.05,3.32-2.6,3.33-1.47,6.76-2.76,10.19-3.99,1.68-.6,3.04-1.51,3.94-3.02.67-1.11,1.22-2.29,1.84-3.44.99-1.84,1.9-3.72,3-5.49,1.54-2.49,3.67-4.03,6.8-3.71.78.08,1.57.06,2.35,0,3.71-.28,6.93,1.2,9.93,3.03,1.8,1.1,3.67,1.94,5.57,2.78,3.19,1.43,6.04.87,8.87-1.26,0-1.05.04-2.09-.02-3.13-.03-.51-.17-1.04-.38-1.5-1.89-4.01-3.54-8.18-5.81-11.96-2.13-3.57-4.34-7.09-6.26-10.78-1.43-2.75-3.41-4.59-6.84-3.96-.89.16-1.89-.07-2.72.23-2.42.86-4.9.58-7.36.7-3.9.19-6.82-1.46-8.91-4.64-1.22-1.85-2.32-3.77-3.43-5.69-.53-.92-1.03-1.97-2.16-2.1-3.26-.39-6.53-.48-9.54,1.16-1.57.86-2.58,2.21-2.65,4.06-.05,1.43-.13,2.85.5,4.23.68,1.46.69,3.07.36,4.62-1.07,4.99-2.5,9.86-5.1,14.31-.72,1.23-1.55,2.44-2.53,3.46-2.88,2.98-7.27,2.14-8.91-1.71-.5-1.18-.84-2.49-.96-3.77-.55-5.7-3.65-9.59-8.49-12.31-1.58-.89-3.21-1.75-4.67-2.82-.67-.49-1.21-1.41-1.42-2.23-.76-2.98.2-5.38,2.77-7.13.96-.65,2.06-1.1,3.1-1.65,2.88-1.54,5.74-3.07,7.48-6.07.71-1.23,1.69-2.33,2.67-3.37,1.97-2.07,3.81-4.38,6.48-5.54,3.69-1.6,7.48-2.97,11.26-4.36,3.47-1.27,5.53-3.66,6.33-7.18-.91-.97-1.73-1.8-2.51-2.67-2.18-2.47-2.05-5.24-.88-8.06.54-1.29,1.58-2.12,3.01-2.16,5.84-.2,5.85-.37,9.16,4.21.15.21.3.44.4.67,1,2.18,2.3,4.06,4.55,5.17,1.15.57,1.62,1.66,1.58,2.93-.05,1.81.27,3.65-.6,5.39-.64,1.28-1.46,2.54-1.7,3.91-.27,1.48.3,3.13,0,4.59-.41,1.96.17,3.27,1.77,4.53,5.86-.74,11.43-3.11,17.28-4.34.77-.16,1.39-1.04,2.38-1.83-1.05-.42-1.74-.7-2.43-.97-.96-.38-2.03-.59-2.86-1.16-1.85-1.27-1.74-3.59.14-4.87.75-.51,1.62-.85,2.36-1.37.98-.69,1.01-2,.07-2.65-.86-.59-1.81-1.04-2.69-1.59-1.55-.96-3.12-1.9-4.63-2.92-4.09-2.78-3.93-7.9-2.93-11.32.47-1.6,1.43-3.05,1.99-4.19,1.72-1.1,3.15-1.96,4.52-2.89,2.04-1.39,4.02-2.87,6.08-4.24,1.14-.76,2.43-.95,3.71-.28,1.24.65.24,1.93.74,2.95.37.19.82.44,1.28.65,2.22,1.04,4.61.78,6.94.84,4.07.1,7.25,1.88,9.85,4.88,1.11,1.28,2.14,2.63,3.27,3.9,1.45,1.63,2.18,3.56,2.36,5.69.35,4.1.09,8.09-2.61,11.53-.56.71-1,1.53-1.41,2.35-.59,1.16-1.24,2.32-1.61,3.56-1.02,3.42-.87,6.93,1.38,9.69,1.6,1.96,3.38,3.88,5.45,5.53,3.18,2.53,6.66,3.51,10.56,3.27,2.73-.17,5.04-1.26,6.38-3.84.42-.81.81-1.64,1.25-2.43,1.54-2.86,2.79-5.87,4.58-8.63,1.96-3.03,4.31-4.61,8.07-4.28,5.05.45,9.11-2.06,12.54-5.37,1.76-1.7,3.61-2.94,5.88-3.67,1.37-.44,2.76-.79,4.1-1.3,2-.77,2.36-1.58,1.9-3.62-.96-4.27-2.72-8.13-5.5-11.54-.72-.88-1.24-1.98-1.64-3.07-1.03-2.79-1.34-5.87-3.51-8.18-.16-.17-.2-.49-.22-.74-.25-2.96-2.11-4.57-4.61-5.76-1.17-.55-2.18-1.46-3.57-1.45-5.48.04-10.97.08-16.45.13-.26,0-.52.07-.77.13-2.67.52-5.32,1.22-8.01,1.51-2.15.24-4.43.66-6.44-.79-.37-.27-.96-.3-1.45-.28-2.73.07-5.46.17-8.19.29-1.61.07-3.1-.32-4.51-1.06-2.3-1.23-4.61-2.42-6.91-3.65-2.25-1.21-2.8-1.28-4.51.26-1.66,1.5-3.36,2.84-5.38,3.85-1.77.88-3.07,2.35-3.84,4.26-.28.69-.73,1.48-1.34,1.82-1.24.69-2.6,1.46-3.95,1.55-2.56.18-4.8,1.07-7.04,2.15-1.06.51-2.11,1.11-3.24,1.37-3.88.87-7.3,2.68-10.67,4.68-.88.53-1.88.99-2.88,1.14-1.36.21-2.4.92-3.54,1.56-1.93,1.08-3.84,2.41-5.93,2.95-2.75.72-4.95,2.28-7.25,3.7-1.44.89-2.75,1.99-4.2,2.87-4.23,2.58-8.52,4.99-12.36,8.23-2.34,1.98-5.4,3.1-7.03,5.97-.18.32-.59.51-.91.73-2.34,1.64-4.7,3.26-7.04,4.92-3.72,2.64-7.72,4.98-11.05,8.04-4.43,4.08-8,8.92-9.99,14.77-.92,2.71-2.14,5.31-3.29,7.94-1.41,3.22-3,6.37-4.3,9.63-2.73,6.84-6.39,13.14-10.96,18.87-2.34,2.94-4.15,5.98-4.67,9.73-.31,2.23-1.22,4.21-2.47,6.1-1.44,2.16-2.85,4.37-3.65,6.9-2.61,8.23-2.84,16.36.78,24.41,1.23,2.73,2.01,5.61,1.31,8.71-.19.84.07,1.8.17,2.7.35,3.1,1.11,6.13,1.09,9.31-.05,6.8,1.58,13.14,6.1,18.47,2.35,2.77,4.14,6.03,7.21,8.15.14.1.43-.01.65-.03.59-.61-.06-1.93,1.29-2.14,1.69,1.1-.35,2.64.57,4.13.63.4,1.44,1.3,2.37,1.45,1.67.27,2.7,1.49,4.08,2.1,1.25.56,2.22,1.82,3.68,1.77.89-1.12.15-2.87,1.83-3.47,2,.88.74,3.1,1.3,3.84,3.1,2.38,5.88,4.14,8.17,6.4,2.21,2.17,3.92,4.84,5.82,7.31,1.59,2.06,3.62,3.2,6.21,3.69,2.27.43,4.5,1.22,6.67,2.06,1.34.52,2.59,1.2,4.08,1.19,1.83,0,3.35.97,4.48,2.16,1.96,2.06,3.63,4.39,5.38,6.64.32.4.52.91.69,1.39,1.4,3.81,1.39,7.41-1.56,10.58-.8.86-1.51,1.8-2.33,2.64-1.26,1.29-1.83,2.8-1.75,4.6.06,1.3-.08,2.62.05,3.92.1,1.01.31,2.08.74,2.99,1.63,3.42,3.44,6.72,6.57,9.1,1.13.86,2.14,1.93,3.06,3.02,3.18,3.77,7.59,5.88,11.51,8.65,2.45,1.73,5.05,3.22,7.58,4.85,2.36,1.52,4.11,3.58,5.39,6.08.71,1.4,1.5,2.75,2.32,4.08,1.32,2.13,2.3,4.39,2.76,6.86,1.09,5.86,4.29,10.56,8.28,14.8,3.68,3.9,7.73,7.43,12.07,10.56,6.85,4.93,11.86,11.34,15.74,18.7,1.42,2.7,3.21,4.95,5.33,7.12,2.7,2.77,5.75,4.87,9.17,6.53.51.24,1.17.17,1.95.27.56-3.13.16-5.76-2.11-7.74-4.12-3.58-6.47-8.48-9.69-12.73-.23-.31-.41-.68-.51-1.05-.85-3.13-1.89-6.19-1.93-9.53-.06-3.87.42-7.3,2.8-10.67,2.19-3.1,4.67-5.65,7.97-7.26,3.11-1.51,5.75-3.39,8.09-5.97,1.63-1.79,2.53-3.58,2.47-5.9-.05-1.72.3-3.35.8-4.99.55-1.8,1.53-2.91,3.51-3.16,1.14-.14,2.23-.71,3.36-1.01,4.68-1.23,7.55-4.57,9.6-8.61,1.7-3.36,2.95-6.96,4.45-10.43.65-1.49.76-3.03.67-4.6-.27-4.83-4.96-10.99-9.45-12.44-.12-.04-.25-.09-.38-.1-3.25-.17-6.37-1.34-9.69-1.13-1.93.12-3.91-.09-5.82-.43-3.65-.65-6.84-2.43-9.84-4.54-1.92-1.36-3.82-2.74-5.78-4.03-2-1.31-3.7-2.89-4.79-5.03-.95-1.85-2.41-3.02-4.3-3.77-2.17-.86-4.25-2-6.47-2.72-3.59-1.15-6.91-3-10.66-3.77-3.07-.63-5.82-2.19-8.14-4.4-1.23-1.16-2.61-2.18-3.79-3.39-1.49-1.51-3.24-2.05-5.31-2.01-3.65.06-7.31,0-10.97.03-2.11.02-4.17.02-6.04-1.2-.52-.34-1.22-.57-1.84-.58-4.22-.09-5.33-.67-7.04,4.24-.53,1.53-1.53,2.49-2.86,2.99-1.69.63-3.47,1.14-5.25,1.36-3.13.38-3.62-.02-5.06-3-.11-.22-.31-.39-.36-.46-1.36-.43-2.59-.81-3.82-1.2-3.65-1.15-4.88-4.06-5.31-7.47-.14-1.16,0-2.35-.05-3.52-.08-1.67.33-3.39-.47-5.12-1.57-.5-3.22-.89-4.77-1.53-2.03-.85-4.09-1.74-5.93-2.92-2.51-1.6-2.98-3.67-1.65-6.43.61-1.27,1.58-2.38,2.29-3.62.35-.6.48-1.33.79-2.22-2.54-.51-4.86-.84-6.35,1.25-1.82,2.54-4.37,4.08-6.82,5.79-3.52,2.46-7.81,1.45-10.05-2.28-.74-1.22-1.57-2.4-2.26-3.65-.56-1.02-1.1-2.08-1.43-3.18-1.49-4.96-1.28-10.06-1-15.14.14-2.52,1.02-4.76,2.53-6.87,1.54-2.14,3.42-3.88,5.34-5.62l-.11.11ZM208.48,219.49c.33.27.68.71,1.13.9,3.98,1.72,6.66,4.88,9.41,8.06,2.32,2.7,3.49,5.73,3.87,9.19.12,1.15.43,2.32.9,3.37.69,1.54,2.35,1.77,3.52.57.63-.65,1.22-1.37,1.68-2.15,2.55-4.31,4.11-9,5.02-13.91.16-.86.16-1.9-.17-2.68-.8-1.9-.71-3.84-.65-5.78.1-3.35,1.96-5.51,4.82-7,2.91-1.5,6.02-1.46,9.17-1.47,3.09,0,5.15,1.28,6.51,4.08.96,1.98,2.23,3.82,3.46,5.66,1.06,1.58,2.57,2.71,4.5,2.79,2.2.09,4.49.18,6.62-.28,2.21-.48,4.4-.43,6.6-.6,2.79-.22,4.79.96,6.32,3.13.75,1.06,1.46,2.15,2.1,3.28,2.5,4.41,4.96,8.83,8.22,12.77,3.8,4.6,5.81,9.83,5.13,15.93-.18,1.58-.74,2.88-2.16,3.45-3.17,1.28-6.5,2.26-9.9,1.15-2.83-.93-5.63-1.96-8.15-3.73-3.31-2.32-7.13-3.09-11.17-2.65-1.42.15-2.37.79-2.75,2.31-.57,2.26-1.2,4.54-2.05,6.7-1.04,2.63-2.15,5.08-4.76,6.9-3.89,2.71-8.4,3.39-12.64,4.97-.44.16-1.04.05-1.53-.07-1.36-.34-2.14.26-2.94,1.32-2.58,3.37-3.74,7.44-5.72,11.1-.29.53-.23,1.27-.29,1.91-.45,5.42-2.84,9.71-7.45,12.64-2.42,1.54-4.84,3.11-7.38,4.41-2.48,1.27-3.76,2.91-3.61,5.85.2,4.04.11,8.1.04,12.14-.06,3.32-1.64,5.04-4.92,5.48-1.29.17-2.61,0-3.91.12-2.91.28-5.47-1.29-6.12-4.26-.49-2.18-2.01-3.56-3.85-4.71-2.8-1.75-5.81-2.99-9.04-3.47-1.76-.26-3.61.09-5.42.16-3.95,2.61-7.13,5.77-7.41,10.85-.12,2.21-.02,4.44-.08,6.65-.13,5.07,2.02,9.32,4.83,13.31.93,1.31,2.98,1.9,4.19,1.08,2.14-1.46,4.61-2.51,6.14-4.75,2.72-4.01,6.71-4.03,10.86-3.39,1.16.18,1.83,1.04,1.99,2.15.3,2.1.41,4.16-1.48,5.76-1.23,1.04-1.86,2.46-2.2,3.94,1.93,1.97,2.75,2.6,4.85,3.31,1.6.54,3.27.89,4.89,1.38,2.53.76,3.62,2.17,3.68,4.83.05,2.22-.07,4.44.04,6.66.16,3.19,1.44,4.73,4.49,5.6.37.11.77.22,1.15.18,1.82-.16,2.93.75,3.71,2.29.28.55.74,1.02,1.1,1.52,1.88-.53,3.61-1.02,5.06-1.43.98-1.73,1.79-3.21,2.66-4.66.7-1.17,1.78-2.03,3.08-2.24,2.83-.44,5.73-.91,8.43.53,1.56.83,3.16,1.07,4.89,1.04,3.92-.06,7.83,0,11.75-.02,2.18-.01,4.1.6,5.73,2.09,1.45,1.32,2.97,2.55,4.37,3.91,2.03,1.95,4.48,3.08,7.1,3.91,1.12.35,2.32.47,3.4.9,4.72,1.86,9.4,3.8,14.11,5.7,2.51,1.01,4.5,2.6,5.78,5.03.87,1.65,2.13,2.94,3.66,4,2.14,1.48,4.22,3.08,6.43,4.46,3.32,2.06,6.72,4.06,10.84,3.98,3.54-.07,6.99.53,10.49.91,4.88.53,8.11,3.35,11.12,6.58,1.27,1.37,1.92,3.37,2.69,5.16,1.39,3.26,1.48,6.61.17,9.91-1.45,3.63-2.79,7.33-4.57,10.8-2.43,4.74-5.74,8.71-11.19,10.28-1.62.47-3.21,1.08-4.76,1.6-1,1.58-1.15,3.25-1.14,4.97.02,2.13-.26,4.34-1.67,5.92-2.41,2.7-4.63,5.69-8.12,7.21-.84.37-1.66.76-2.46,1.2-5.44,3-8.88,7.18-8.19,13.82.09.9.01,1.83.07,2.74.03.51.07,1.09.32,1.5,1.2,2.01,2.46,3.99,3.72,5.96.63.99,1.4,1.89,1.96,2.91,2.07,3.76,4.08,7.57,6.12,11.34,1.55,2.87,1.88,5.96,1.48,9.12-.08.67-.66,1.64-1.22,1.82-1.88.59-4.13.96-5.71-.06-2.92-1.9-6.15-3.3-8.66-5.95-2.66-2.82-5.28-5.76-8.5-8.03-.62-.44-1.05-1.15-1.5-1.79-1.65-2.35-3.21-4.75-4.91-7.06-3.28-4.44-7.55-7.88-11.69-11.44-2.57-2.21-5.06-4.5-7.11-7.22-1.57-2.09-3.1-4.2-4.72-6.24-1.46-1.86-2.7-3.81-3.66-5.99-2.39-5.35-4.95-10.63-7.33-15.99-1.44-3.23-3.8-5.6-6.58-7.6-2.85-2.06-5.67-4.23-8.76-5.86-3.1-1.64-5.43-4.02-7.85-6.38-1.21-1.19-2.5-2.29-3.7-3.49-1.85-1.84-3.66-3.7-4.72-6.17-.57-1.32-1.11-2.71-1.99-3.8-1.23-1.52-1.36-3.18-1.62-4.98-.36-2.49.07-4.7,1.41-6.72,1.3-1.95,2.69-3.85,4.18-5.65.91-1.1,1.35-2.25,1.12-3.6-.88-5.31-3.22-9.6-8.54-11.66-1.45-.56-2.94-1.1-4.47-1.4-2.53-.49-4.83-2.06-7.57-1.59-.33.06-.71-.28-1.08-.42-2.3-.85-3.92-2.54-5.42-4.37-1.9-2.3-3.46-4.98-5.7-6.85-2-1.68-3.25-5.04-6.9-4.11-.2.05-.48-.14-.71-.26-3.76-2.06-7.55-4.07-11.24-6.24-2.13-1.24-4.07-2.76-5.96-4.39-2.62-2.26-4.27-5.24-6.5-7.78-1.03-1.17-2.15-2.36-2.81-3.74-2.18-4.61-3.93-9.4-3.82-14.58.12-5.66-.92-11.15-1.97-16.66-.11-.59-.1-1.33-1.13-1.64-.1,2.23-.12,4.41-.3,6.57-.2,2.33-.58,4.65-.8,6.98-.11,1.16-.02,2.35-.02,3.53,0,4.7,0,9.4.02,14.1,0,3.26-.2,6.53.82,9.71.23.72.08,1.56.16,2.33.14,1.29.28,2.59.53,3.86,1.41,7.14,2.84,14.29,4.31,21.43.82,3.95,1.84,7.87,2.58,11.84.96,5.12,2.82,10.03,3.53,15.22.22,1.64,1.05,3.2,1.62,4.79,1.23,3.41,3.38,6.46,4.08,10.1.1.5.36.98.59,1.45,4.38,8.6,8.16,17.52,13.61,25.54,2.78,4.08,5.38,8.32,9.22,11.57,1.39,1.18,2.63,2.54,3.89,3.86,3.87,4.05,8.1,7.7,12.41,11.27.9.74,1.91,1.35,2.89,1.99,1.85,1.22,3.73,2.4,5.55,3.65,3.31,2.29,6.18,5.24,10.14,6.56.71.24,1.32.83,1.94,1.3,2.81,2.15,5.77,4.03,9.09,5.31.84.32,1.6.86,2.35,1.38,4.54,3.17,9.74,4.92,14.86,6.83,2.1.78,4.32,1.49,5.77,3.12,3.1,3.49,7.17,5.17,11.35,6.56,4.81,1.6,9.68,3.07,14.24,5.26,2.75,1.32,5.49,2.25,8.53,2.55,1.37.14,2.73.83,3.99,1.47,2.61,1.31,2.59,1.38,3.88,1.38,12.67.02,25.33.03,38,.03,1.03,0,2.07-.17,3.1-.3,1.54-.19,3.08-.42,4.63-.62,1.03-.14,2.06-.23,3.09-.38,3.72-.53,7.44-1.1,11.17-1.63,2.31-.33,4.62-.69,6.94-.85,1.57-.11,3.08-.22,4.6-.75,1.96-.68,4.03-1.08,6.05-1.59,2.65-.67,5.37-1.15,7.95-2.04,2.71-.94,5.27-2.27,8.25-2.16.49.02,1-.26,1.49-.45,5.46-2.14,11-4.07,16.13-7.01,6.53-3.73,13.16-7.29,19.74-10.93.76-.42,1.73-.68,1.85-1.94-1.06-.6-2-1.52-3.41-1.41-1.02.08-1.73-.49-2.36-1.17-.78-.85-1.53-1.73-2.3-2.61.34-1.18.41-2.31.95-3.14,2.55-3.93,4.96-8,7.95-11.57,2.63-3.14,4.69-6.56,6.72-10.05,1.27-2.18,1.97-4.51,1.75-7.09-.13-1.56.1-3.14-.04-4.7-.37-4.09,1.46-7.07,4.61-9.35,2.26-1.63,4.03-3.67,5.66-5.9.97-1.33,1.48-2.65,1.45-4.31-.08-3.66,0-7.31-.03-10.97,0-1.71.07-3.38.88-4.96.86-1.66,1.1-3.47,1.07-5.32-.03-1.56,0-3.13.01-4.7.02-6.31-.15-6.74-5.56-9.99-4.27-2.56-8.79-3.74-13.8-2.15-5.22,1.65-10.32,3.58-15.3,5.85-1.17.53-2.42,1.11-3.67,1.2-8.92.6-17.09-1.35-24.08-7.26-1.32-1.12-2.37-2.39-3.08-3.98-2.12-4.78-1.92-9.67-.55-14.53.99-3.51,2.31-6.91,3.48-10.37.12-.37.28-.76.27-1.13-.03-3.91.45-7.92-.28-11.69-.88-4.59,0-8.79,1.12-13.07.16-.62.51-1.2.89-1.73,2.72-3.84,4.87-8.01,6.79-12.29,1.05-2.33,2.58-4.24,4.59-5.75,2.39-1.8,4.76-3.67,7.34-5.18,3.62-2.13,6.06-5.28,8.29-8.67,1.08-1.64,1.76-3.49,1.79-5.51.02-1.42,0-2.83,0-4.45-.81-.08-1.57-.1-2.31-.23-1.83-.35-2.44-1.02-2.67-2.84-.05-.39-.1-.78-.06-1.17.3-3.46-.83-6.4-3.09-9-1.35-1.55-2.03-3.42-1.71-5.44.26-1.65.85-3.27,1.47-4.83.2-.49.95-.95,1.52-1.05.87-.16,1.86-.19,2.68.09,2.56.87,5.13.72,7.75.5.39-.41.81-.74,1.09-1.16,1.68-2.52,1.25-3.95-1.39-5.21-1.64-.79-3.22-1.7-4.8-2.61-1.12-.64-1.59-1.67-1.55-2.95.08-2.58,1.71-4.74,4.19-5.46,1.25-.37,2.5-.71,3.77-1.01,1.42-.34,2.74-.82,3.73-2.2-.32-1.49.93-3.12-.19-4.86-.64,1.09-.99,2.29-1.78,2.91-1.68,1.29-3.63,2.01-5.86,1.41-1.24-.33-2.54-.49-3.81-.72-2-.34-3.01-1.31-3.22-3.34-.1-1.03.09-2.08.04-3.12-.02-.42-.23-1.03-.93-.59.12,1.31.32,2.58.32,3.85,0,1.26-.64,1.96-1.94,1.99-2.61.06-5.22.1-7.82-.07-1.8-.12-2.82-1.29-2.89-3.11-.09-2.21-.14-4.45.03-6.65.15-1.96.85-3.79,2.63-5.17.61.25,1.17.53,1.76.72.94.31,1.83.21,2.43-.67.59-.86.47-1.77-.11-2.56-.69-.95-1.45-1.84-2.24-2.71-1.08-1.19-1.84-2.54-2.18-4.09-.29-1.31.13-2.32,1.33-2.97,2.05-1.11,4.15-1.41,6.31-.16.88.51,1.84,1.08,2.81,1.18,1.7.19,2.5,1.15,3.07,2.59.92,2.3,1.94,4.56,2.87,6.86,1.34,3.33,3.24,6.18,6.26,8.3,1.2.84,2,2.26,3.15,3.62,1.32.21,3.11-.28,4.29,1.52.44.67,1.83.27,2.42-.43.66-.78,1.23-1.67,1.97-2.36,1.84-1.68,3.65-3.36,4.8-5.62.66-1.3,1.73-1.88,3.17-1.88,1.04,0,2.09-.03,3.13-.03,1.83-.02,3.66.01,5.48-.06,1.69-.07,2.64-1.02,2.73-2.69.03-.63-.11-1.29-.25-1.92-.64-2.92-2.17-5.27-4.65-6.99-.57,1.04-1.02,2.12-1.69,3.05-2.99,4.11-8.1,4.21-11.24.24-.72-.92-1.27-1.98-1.97-2.92-.84-1.14-1.57-2.44-3.21-2.71-.34.14-.74.22-1.06.43-3.29,2.21-6.35,1.61-9.4-.58-2.65-1.91-2.91-4.79-3.33-7.61-.24-1.61.17-3.12,1.31-4.35,1.41-1.52,2.84-3.03,4.49-4.77-.13-1.59.18-3.6-.52-5.15-1.26-2.79-1.74-5.41-.54-8.28.19-.46.05-1.04.14-1.55.49-2.88,1.79-5.13,4.77-6.06.56-.18,1.07-.46,1.89-.81-.65-.59-1-.97-1.4-1.26-2.35-1.7-4.93-2.91-7.68-3.8-4.26-1.37-8.18-3.42-11.85-5.96-.74-.51-1.63-1.01-2.06-1.75-1.44-2.46-3.8-3.42-6.29-4.31-5.53-1.96-11.07-3.91-16.25-6.73-.46-.25-.91-.56-1.4-.68-3.65-.86-7.35-1.53-10.88-2.87-.82-.31-1.8-.23-2.71-.25-2.35-.04-4.7-.02-7.05-.04-.91-.01-1.92.16-2.72-.16-2.79-1.1-5.68-.6-8.52-.69-.56-.02-1.32-.27-1.69.66,1.61,2.6,2.17,5.74,4.01,8.3.76,1.06,1.38,2.21,2.06,3.32.61,1.02,1.16,2.08.87,3.32-.24,1.02.2,1.72.8,2.47,2.84,3.5,4.69,7.48,5.79,11.84.97,3.85.29,5.5-3.42,7.13-1.66.72-3.49,1.07-5.17,1.75-1.19.48-2.54.99-3.33,1.91-2.21,2.57-5.16,3.92-8.04,5.43-1.8.94-3.65,1.27-5.66,1.19-5.88-.23-5.31-.36-8.7,4.78-.36.54-.61,1.15-.88,1.74-.93,2.01-1.78,4.06-2.8,6.03-1.33,2.56-2.78,4.98-5.81,6.01-5.63,1.93-10.8,1.01-15.6-2.26-2.14-1.46-3.88-3.4-5.69-5.27-1.53-1.59-2.54-3.27-3.1-5.31-1.44-5.21-.58-10.12,2.38-14.57,1.13-1.7,1.91-3.36,1.85-5.42-.09-3.29-2.92-9.7-5.36-11.91-.48-.44-1.01-.83-1.55-1.19-1.73-1.14-3.47-2.26-5.41-3.52-3.62.31-7.35.13-10.5-2.6-2.22,1.5-4.26,2.9-6.31,4.28q-4.29,2.88-3.86,7.91c.01.13.01.26.02.39.05,1.12.58,2.01,1.45,2.66.62.47,1.31.86,2,1.22,1.27.66,2.59,1.24,3.85,1.93,4.15,2.28,4.66,6.27,1.23,9.59-.36.35-.79.64-1.32,1.07.85.29,1.62.46,2.29.82.79.42,1.61.9,2.2,1.55,1.6,1.8,1.36,3.46-.44,5.07-1.73,1.55-3.79,2.32-5.99,2.68-2.11.34-4,1.11-5.82,2.17-2.47,1.45-5.02,2.77-7.48,4.23-1.36.81-2.77,1-4.08.22-1.85-1.1-3.27-2.6-3.31-4.97-.04-2.48-.08-4.96-.13-7.44-.04-1.99.31-3.81,1.47-5.56,1.33-1.98,1.96-4.25,1.16-6.74-1.05-.88-2.29-1.67-3.19-2.74-.99-1.19-1.64-2.66-2.48-3.97-.56-.88-1.1-1.83-1.87-2.49-.5-.43-1.42-.56-2.13-.52-.88.04-1.35.83-1.42,1.63-.19,2.07-.36,4.05,1.23,5.88,2.45,2.82,1.99,6.99-.75,9.43-1.64,1.46-3.36,2.64-5.59,3.16-3.69.86-7.04,2.66-10.51,4.16-3.9,1.68-6.88,4.2-9.11,7.68-1.9,2.97-4.65,4.89-7.6,6.6-1.01.59-2.14.96-3.18,1.5-1.37.71-2.19,1.8-2.11,3.56ZM515.89,335.79c1.31-1.43,1.5-2.66,1.55-3.99.21-5.38-.12-10.67-1.88-15.84-.96-2.82-2.02-5.71-2.33-8.64-.61-5.83-1.44-11.66-1.21-17.56.05-1.29,0-2.63-.29-3.88-1.77-7.62-3.61-15.22-5.46-22.82-.37-1.52-1.19-2.99-1.25-4.51-.17-3.7-1.64-6.78-3.83-9.63-.47-.62-.76-1.37-1.19-2.02-1.96-2.93-3.79-5.96-5.94-8.74-2.79-3.61-5.99-6.9-8.74-10.53-4.74-6.26-10.02-12.03-15.27-17.84-1.65-1.82-3.37-3.74-5.43-5.02-2.51-1.56-3.96-3.65-5.05-6.23-.65-1.54-1.38-3.1-2.32-4.47-1.11-1.6-2.41-3.1-3.78-4.49-3.02-3.07-6.05-6.16-10.63-6.83-.38-.05-.75-.24-1.1-.41-3.01-1.47-5.85-.7-8.63.67-1.5.74-2.42,1.91-2.58,3.65-.09,1.03-.25,2.07-.55,3.05-.38,1.2-.4,2.32.27,3.39,1.57,2.5,1.22,5.27,1.22,8,0,1.4-.55,2.5-1.64,3.4-.9.74-1.82,1.5-2.59,2.37-1.93,2.16-1.81,5.71.19,7.79,1.74,1.82,3.55,2.04,5.98.75,3.04-1.62,4.62-1.44,6.95.96.9.93,1.63,2.03,2.42,3.07.63.83,1.18,1.72,1.83,2.53.85,1.05,2,1.18,3.2.79,1.3-.42,2.33-1.16,2.65-2.8-.28-.43-.59-1-1-1.48-.59-.69-1.25-1.34-1.91-1.97-3.51-3.39-4.99-7.45-4.63-12.37.3-3.98.39-4.29,4.23-4.19,2.75.07,3.04.29,3.77,2.93.91,3.26,1.38,6.61,2.61,9.8.58,1.5,1.24,2.84,2.36,3.99,1.27,1.31,2.58,2.6,3.71,4.02,2.1,2.64,3.17,5.7,2.98,9.08-.17,3.16-2.28,5.19-5.45,5.43-1.03.08-2.07.03-3.1.03-2.06.01-4.13.02-5.77.03-1.88,2.12-3.41,3.89-5,5.6-.88.95-1.91,1.72-2.41,3.02-.53,1.36-1.76,1.81-3.17,1.87-1.01.04-2.03.17-3.01.26-.13.59-.34.98-.29,1.34.39,2.71-1.2,4.09-3.38,5.07-.83.37-1.7.64-2.56.93-1.11.37-2.22.73-3.34,1.06-1.27.36-2.01,1.11-1.96,2.63.48.32.98.75,1.55,1.04,1.16.58,2.34,1.16,3.55,1.62,2.39.91,3.3,2.53,3.3,5.13,0,2.3-1.06,3.95-2.24,5.68-.73,1.06-1.71,1.56-2.98,1.55-2.98-.01-5.98.26-8.98-.7-1.64,1.87-1.79,3.74-.5,5.75.28.44.57.89.93,1.27,2.23,2.28,2.93,5.13,3.14,8.18.05.76.18,1.51.3,2.42,1.63.39,3.21.1,4.74.28,1.51.18,2.98.6,4.7.96.51-.69,1.14-1.5,1.71-2.33.61-.89,1.49-1.36,2.35-1.96,1.09-.76,2,.77,3.14-.25.73-1.92,2-3.84,2.29-6.28.23-1.87,1.24-3.68,2.06-5.44,1.05-2.27,3.11-3.79,5.34-4.27,2.84-.62,5.9-1.4,8.78.25,1.57.9,3.19.93,4.9.34.84-.29,1.77-.43,2.66-.46,2.61-.11,4.46.96,5.55,3.46,1.1,2.54,1.95,5.06,1.83,7.9-.08,1.91-.35,3.88.27,6.02.96-.16,1.97-.07,2.65-.5.97-.61.87-1.84.75-2.88-.07-.62-.41-1.21-.6-1.83-.3-.99-.66-1.97-.82-2.99-.36-2.32-.53-4.65-1.92-6.69-.55-.81.01-1.9.91-2.2,2.81-.9,6.27,1.12,6.4,4.02.11,2.49.56,4.89.98,7.32.49,2.87,2.05,5.06,4.03,6.98,1.11,1.08,2.57,1.71,4.48,1.6.07-1.22.16-2.35.21-3.48.05-1.3.04-2.61.14-3.91.06-.82.46-1.52,1.3-1.78,3.14-.95,5.26.39,5.39,3.61.08,1.88.46,3.61,1.33,5.24,1.16,2.19,2.27,2.78,4.76,2.48.87-.1,1.74-.29,2.58-.43,4.95,5.71,4.98,11.87,2.69,18.43-1.06.44-2.02.84-2.98,1.22-1.62.64-3.06.33-4.35-.82-1.07-.96-2.17-1.87-3.26-2.81-1.65-1.42-3.48-2.26-5.85-1.86-.27.35-.65.72-.87,1.17-.97,2-2.53,2.85-4.74,2.7-1.56-.11-3.14-.11-4.7,0-2.2.16-4.17-.39-5.83-1.78-1.08-.91-2.21-1.29-3.58-1.22-2.26.12-4.02-.85-5.45-2.55-.83-1-1.72-1.96-2.61-2.9-.75-.8-1.03-1.75-1.19-2.82-.49-3.35-1.47-4.2-4.79-4.37-2.64-.13-5.13.14-7.53,1.52-2.35,1.35-4.85,2.52-7.73,2.42-2.2-.08-4.4-.13-6.54.78-.9.39-2.06.15-3.1.21-1.71.1-3-.56-3.96-2.02-.37-.57-.98-.99-1.54-1.54-.26.49-.48.72-.49.95-.26,6.86-4.39,11.59-9.1,15.81-2.59,2.33-5.71,4.08-8.66,6-2.16,1.4-3.64,3.27-4.73,5.58-1.55,3.3-3.01,6.7-5.01,9.71-1.64,2.47-2.59,5.02-3.23,7.85-.47,2.1-.58,4.15-.06,6.18,1.13,4.39.74,8.82.53,13.25-.03.77-.25,1.55-.48,2.29-.95,2.98-1.77,6.01-2.97,8.89-1.31,3.14-1.4,6.37-1.19,9.62.16,2.52,1.01,4.92,3.09,6.54,3.83,2.98,7.79,5.75,12.88,6.15.77.06,1.52.43,2.29.5,2.72.25,5.52.8,8.11-.32,3.71-1.6,7.45-3.09,11.17-4.64,4.43-1.85,8.87-2.9,13.66-2.64,1.46.08,2.86.05,3.86,1.41.27.37.85.65,1.32.71,3.64.42,5.94,3.09,8.6,5.13,1.55,1.19,2.15,2.83,2.09,4.82-.09,3-.07,6.01,0,9.01.05,2-.26,3.92-1.09,5.72-.79,1.72-1,3.48-.97,5.33.05,3.66,0,7.31.04,10.97.02,1.76-.45,3.27-1.54,4.72-2.05,2.72-4.12,5.37-6.99,7.32-2.2,1.49-3.25,3.62-3.06,6.37.13,1.95-.06,3.92.04,5.87.23,4.14-2.37,7.37-3.45,11.09-.03.12-.14.21-.23.32-1.99,2.39-4,4.76-5.97,7.16-.58.71-1.04,1.51-1.55,2.26-.89,1.28-1.71,2.62-2.7,3.83-1.38,1.7-1.88,3.6-1.97,5.86,2.4.68,4.67.98,7,1.25,3.54.41,6.54-.88,8.86-3.05,2.42-2.26,4.92-4.24,7.77-5.85,2.31-1.31,4.22-2.99,5.53-5.36.62-1.12,1.57-2.07,2.42-3.05,1.03-1.18,2.13-2.29,3.17-3.47,4.3-4.9,8.6-9.8,13.38-14.27,4.49-4.2,8.54-8.79,11.33-14.36.47-.93,1.09-1.78,1.6-2.69.96-1.71,1.93-3.41,2.84-5.14.85-1.62,1.63-3.27,2.42-4.91.85-1.76,1.47-3.67,2.55-5.27,1.18-1.76.65-3.76,1.27-5.55,1.79-5.18,3.59-10.35,5.39-15.52.17-.49.42-.95.64-1.43.96-2.14,1.93-4.27,2.87-6.43,1.45-3.35,2.88-6.7,4.29-10.06.25-.6.44-1.24.55-1.88.35-2.09,1.12-4.04,2.26-5.8,1.21-1.87,1.47-3.89,1.25-6-.33-3.16-1.28-6.2-2.98-8.82-.91-1.39-1.32-2.73-1.62-4.26-.4-2.05-.83-4.11-1.51-6.07-1.21-3.45-2.64-6.81-3.94-10.22-.93-2.43-2.05-4.83-2.63-7.35-.54-2.38-.56-4.9-.66-7.37-.05-1.18.93-1.91,2.09-1.75.63.09,1.32.21,1.87.52,2.89,1.61,5.45,3.37,6.02,7.13.41,2.65,1.5,5.2,3.43,7.69ZM429.45,293.64c1.49,2.37,2.36,2.91,4.43,2.21,1.52-.51,2.99-.92,4.57-.77,3.65.34,6.98-.67,10.1-2.44,3.16-1.79,6.55-1.7,9.91-1.19,3.56.55,5.46,2.45,5.82,5.84.26,2.38,1.97,3.55,3.3,5.11,1.06,1.24,2.43,1.42,3.89,1.39,1.32-.03,2.67,0,3.66,1.02,1.6,1.64,3.56,1.99,5.73,1.89,1.68-.08,3.37-.01,5.24-.01.67-1.22,1.25-2.37,1.91-3.47.5-.85,1.33-1.45,2.28-1.17,2.73.81,5.58,1.33,7.8,3.38,1.23,1.13,2.6,2.12,3.73,3.02,2.29-.3,2.98-1.76,3.08-3.35.21-3.37.62-6.83-2.1-9.84-.81-.04-1.84-.13-2.87-.13-2.8,0-4.75-1.41-5.86-3.83-.75-1.64-1.09-3.45-1.62-5.19-.15-.5-.28-1.01-.43-1.52-.46,2.15-.4,4.23-.48,6.31-.06,1.64-.79,2.29-2.48,2.37-3.34.17-6.11-1.09-8.35-3.53-.75-.82-1.41-1.74-2.12-2.63-3.34,3.3-3.82,3.47-7.25,3.26-2.63-.16-4.52-1.59-4.18-4.46.09-.77-.02-1.62.26-2.31,1.79-4.37.45-7.77-2.89-10.57-.59,0-1.02-.11-1.36.02-3.34,1.22-6.47,1.21-9.75-.58-1.79-.98-3.88-.72-5.85.69-2.56,1.83-3.67,4.52-4.28,7.19-.51,2.23-1.63,4.08-2.34,6.16-.6,1.78-2.1,2.59-3.9,2.78-.89.09-1.8.02-2.83.02-1.03,2.14-2.71,3.47-4.77,4.33ZM409.42,220.14c-.11,2.52-.34,4.34,1.96,5.17.33.12.73.42.84.73.72,1.95,1.42,3.91,2.03,5.89.34,1.12-.59,2.02-1.83,1.79-.75-.14-1.46-.55-2.21-.69-2.11-.39-3.71.62-3.9,2.72-.2,2.16-.45,4.38.35,6.79,1.92-.17,3.79.41,5.45-.3-.1-1.74-.34-3.16-.21-4.56.2-2.15,2.77-3.67,4.64-2.05.87.75,1.9,1.33,2.98,2.07.16,1.74.33,3.53.5,5.33,1.64.46,3.11,1.03,4.63,1.24.78.11,1.65-.42,2.48-.67v-3.16c-3.87-2.96-5.62-5.06-7.22-8.27-.95-1.92-1.11-4.32-3.31-5.53-.35-.2-.44-.92-.59-1.42-.26-.85-.47-1.71-.65-2.35-1.99-.91-3.73-1.71-5.95-2.73ZM505.37,323.89c-.09,3.86.29,5.84,2.18,10.14,2.57,5.85,5.04,11.73,6.38,18.02.07.34.54.6.97,1.04,1.33-7.56-.73-14.27-2.95-20.96-.37-1.11-.83-2.19-1.33-3.26-1.02-2.19-2.56-3.87-5.26-4.98ZM305.46,148.22c1.92-.04,3.84.59,5.74-.35,1-.5,2.07-.43,2.94.3,1.95,1.66,4.08,1.15,6.29.78,3.82-.65,7.6-1.7,11.53-1.43.78.05,1.56.03,2.35.01.8-.01,1.63.09,2.75-.29-5.45-2.02-10.59-2.73-16.01-2.72-5.58.01-10.63,1.41-15.6,3.7ZM446.53,203.36c-1.16,5.03.26,9.07,3.66,10.25-.72-3.03-1.4-6.01-2.15-8.98-.11-.46-.47-.88-.79-1.25-.11-.12-.47-.02-.72-.02Z"/>
          <path class="st4" d="M240.11,354.39c-2.99.48-5.69-.67-8.48-1.2-1.4-.26-2.81-.45-4.22-.62-1.16-.15-2.37-.08-3.47-.39-1.65-.47-3.32-.52-4.98-.76-3.9-.54-7.69-1.55-10.07-5.11-.71-1.06-1.32-2.27-1.6-3.5-.59-2.56.5-3.9,3.03-5,3.2-1.38,6.43-.6,9.61-.34,1.13.09,2.33,1.15,3.21,2.04,3.7,3.78,4.47,4.31,10.73,4.2,4.3-.07,8.59-.01,12.89-.03,1.6,0,3.1.23,4.4,1.28,1.82,1.47,2.18,3.68.68,5.5-.64.78-1.52,1.42-2.4,1.93-2.89,1.68-6.03,2.4-9.32,1.99ZM210.18,341.73c.27,2.2,1.44,3.77,2.98,4.59,2.14,1.13,4.38,2.25,6.98,2.24,1.41,0,2.81.38,4.22.6.76.12,1.54.43,2.29.37,3.05-.22,5.91.64,8.78,1.4,2.95.78,5.95.62,8.89.21,1.48-.21,2.88-1.12,4.28-1.79.62-.29,1.09-.95.76-1.58-.25-.49-.91-.95-1.46-1.05-1.01-.18-2.07-.11-3.11-.11-4.55-.01-9.1,0-13.65-.02-3.14,0-5.85-1.03-8-3.39-.7-.76-1.45-1.48-2.17-2.24-1.8-1.88-4.27-1.63-6.52-1.93-.58-.07-1.28.71-1.92,1.13-.72.47-1.43.95-2.35,1.57Z"/>
          <path class="st4" d="M365.19,194.8c.55.21,1.04.38,1.52.57,2.69,1.07,5.28,1.16,7.74-.64,2.35-1.72,5.05-1.9,7.81-1.61,1.48.16,2.34,1.01,2.56,2.49.11.77.1,1.55.1,2.33,0,4.37-.53,5.04-4.47,6.67-2.33.96-4.68,1.41-7.19,1.33-2.98-.09-5.98-.22-8.95-.02-3.64.24-5.77-4.76-4.37-7.41.34-.65.94-1.25,1.55-1.66,1.07-.71,2.25-1.26,3.7-2.05ZM364.54,198.08c-.36.21-.83.44-1.24.74-.69.5-1,1.2-.79,2.04.24.93.76,1.66,1.79,1.8.64.09,1.29.09,1.94.09,2.34,0,4.68-.09,7.01.02,2.96.13,5.61-.72,8.25-2.26.19-1.36.62-2.73-.18-4.06-1.96-.67-3.7-.2-5.18.97-2.23,1.76-4.78,1.93-7.39,1.68-1.38-.13-2.73-.65-4.21-1.02Z"/>
          <path class="st4" d="M218.45,457.53c.63.66,1.06.94,1.28,1.34,1.24,2.26,1.19,4.68.73,7.12-.05.3-.55.79-.71.74-.42-.12-.89-.41-1.1-.78-.25-.41-.26-.98-.33-1.48-.2-1.52-.46-3.04-.53-4.57-.03-.66.36-1.34.67-2.38Z"/>
          <path class="st4" d="M373.8,497.4c.89-1.67,1.74-3.37,2.71-5.01.19-.33.88-.6,1.26-.52.55.11.7.65.44,1.24-.85,1.94-2.24,3.39-3.77,4.74-.21-.15-.43-.3-.64-.44Z"/>
          <path class="st4" d="M207.21,452.74c1.27,1.34,2.33,2.42,3.32,3.56.18.2.15.93.02.99-.4.18-1.07.38-1.33.18-1.4-1.12-1.63-2.79-2-4.73Z"/>
          <path class="st4" d="M160.79,384.86c-.55-1.51-.61-3.07.06-4.88.91,2.09.94,2.31.61,4.79-.02.11-.11.28-.2.29-.1.02-.23-.09-.48-.2Z"/>
          <path class="st4" d="M339.1,209.64c.91-.62,1.79-1.31,2.77-1.8.29-.15.95.19,1.3.49.22.19.34.78.21,1.04-.2.38-.62.82-1.01.88-1.01.17-2.06.15-3.1.21-.06-.27-.11-.55-.17-.82Z"/>
          <path class="st4" d="M200.24,445.77c-.06.3-.04.72-.22,1.03-.17.28-.55.61-.83.6-.29,0-.75-.35-.82-.63-.15-.58-.23-1.25-.09-1.82.1-.4.61-.7.93-1.04.31.34.65.66.91,1.04.13.19.08.49.13.82Z"/>
          <path class="st4" d="M350.43,505.71c1.17-1.49,1.94-2.47,2.8-3.56.71,2.13.41,2.57-2.8,3.56Z"/>
          <path class="st4" d="M331.08,215.8c-.16-1.46.77-1.94,2.23-2.31-.67,1.11-1.4,1.76-2.31,2.24l.08.08Z"/>
          <path class="st4" d="M383.49,323.91c-.04.6-.04,1.2-.13,1.79-.02.14-.4.36-.55.32-.17-.05-.42-.37-.39-.53.09-.58.28-1.14.43-1.71.21.04.43.09.65.14Z"/>
          <path class="st4" d="M331,215.72c-.32.69-.64,1.38-1.31,2.8-.2-1.98.2-2.63,1.39-2.72l-.08-.08Z"/>
          <path class="st4" d="M386.41,319.96c-.08.03-.16.07-.25.1-.03-.12-.05-.23-.08-.35.11.09.22.17.33.25Z"/>
          <path class="st4" d="M363.58,500.58c-.11-.16-.31-.32-.31-.48,0-.14.23-.28.36-.42.07.09.22.19.21.25-.05.22-.16.43-.26.64Z"/>
          <path class="st4" d="M272.84,465.53c.44,1.02.88,2.05,1.33,3.09.74-.17,1.35-.31,2.19-.5,1.07,1.05,1.75,2.6,3.22,3.49.95.58,1.36,1.84.93,3.01-1.28-.81-2.58-1.57-3.8-2.45-.47-.34-.86-.92-1.07-1.47-.24-.65-.49-1.03-1.25-1.2-2.13-.46-2.32-2.04-1.53-3.97Z"/>
          <path class="st4" d="M184.19,307.43c.29-.19,1.23.52,1.98.87.41-.22.85-.47,1.3-.7.45-.23.91-.46,1.45-.72,1.33.74,2.82,1.17,3.38,2.9.13.39,1.02.67,1.6.76,1.03.15,2.09.08,2.79,1.35-1.58-.07-3.08.22-4.65-.51-.17-.7-.33-1.42-.5-2.14-.22-.11-.44-.3-.67-.31-1.74-.07-3.5-.47-5.13.71-.37.27-1.35.16-1.75-.15-.69-.54-.62-1.5.21-2.06Z"/>
          <path class="st4" d="M346.97,165.46c1.9,1.48,3.19,3.41,4.17,5.53.25.55-.08,1.37-.17,2.24-1.42-.53-1.02-1.67-1.44-2.37-.39-.64-.77-1.29-1.19-1.99-.71.45-1.21.77-1.68,1.08-1.15-.44-1.02-2.52.31-4.49Z"/>
          <path class="st4" d="M157.46,307.36c-.5-.3-.9-.43-.89-.55.08-2.02.15-4.04.35-6.05.06-.56.54-1.09.89-1.76,1.27,2.71,1.18,4.62-.35,8.36Z"/>
          <path class="st4" d="M232.02,414.33c1.01,2.62,1.52,5,.92,7.77-1.38-1.52-.15-3.58-1.7-4.85-.27.29-.49.58-.77.8-.17.14-.44.29-.61.24-.19-.06-.45-.34-.45-.52.06-1.53.76-2.65,2.61-3.44Z"/>
          <path class="st4" d="M156.96,290.96c-.46,2.33-.7,4.74-2.73,6.97-.21-3.15.57-5.34,2.73-6.97Z"/>
          <path class="st4" d="M237.11,427.82c-1.5.25-1.9-.26-2.04-.91-.3-1.37-.57-2.77.72-3.95,1.57,1.42.51,3.22,1.32,4.86Z"/>
          <path class="st4" d="M164.38,333.17c.99,2.58-.81,3.75-1.29,5.25-.9.09-1.34-.29-1.11-.83.56-1.38.8-2.97,2.41-4.42Z"/>
          <path class="st4" d="M316.26,191.44c.43,1.92-.51,3.41-1.24,4.92-.83.08-1.08-.37-.93-.91.38-1.47.99-2.86,2.17-4.01Z"/>
          <path class="st4" d="M178.13,314.58c-.68-.38-1.39-.79-1.25-1.71.21-1.36.5-2.72.81-4.07.03-.15.39-.32.59-.32.2,0,.55.18.57.31.1.73.27,1.5.14,2.21-.22,1.24-.63,2.45-.96,3.68,0,0,.1-.11.1-.11Z"/>
          <path class="st4" d="M234.8,241.93c-.09,1.92-.11,3.16-.25,4.39-.03.24-.51.6-.76.59-.26-.01-.67-.38-.72-.65-.27-1.49-.38-2.98,1.73-4.33Z"/>
          <path class="st4" d="M268.94,461.26c-.28.25-.44.49-.65.55-.21.06-.6.02-.69-.12-.48-.73-1-1.47-1.3-2.29-.14-.37.07-.99.33-1.35.27-.39,1.24.05,1.5.71.32.82.55,1.69.81,2.49Z"/>
          <path class="st4" d="M333.25,420.83q-1.82-.97-2.18-2.92c1.36.57,2.18,1.3,2.18,2.92Z"/>
          <path class="st4" d="M326.45,414.2c1.03,1.29,1.55,1.94,2.12,2.66-1.95.45-2.09.31-2.12-2.66Z"/>
          <path class="st4" d="M245,231.84c-.5.48-.78.92-1.18,1.09-.57.23-1.28-.43-1.14-1.11.08-.43.51-.79.78-1.18.45.35.9.7,1.54,1.21Z"/>
          <path class="st4" d="M319.61,193.79c.63,1.09.38,1.95-.63,2.64q-.41-1.33.63-2.64Z"/>
          <path class="st4" d="M238.78,241.35c-.09-.37-.29-.75-.26-1.11.04-.45.27-.87.42-1.31.29.22.73.38.85.67.28.66.03,1.25-.58,1.65-.1.07-.25.05-.43.09Z"/>
          <path class="st4" d="M227.15,251.57c-.09-.19-.31-.49-.25-.56.19-.22.48-.36.72-.53.03.22.15.48.07.64-.09.19-.35.3-.54.45Z"/>
          <path class="st4" d="M332.24,188.76c-.11.06-.28.19-.3.17-.1-.11-.17-.26-.25-.4.13-.02.26-.07.37-.04.08.03.12.18.18.27Z"/>
          <path class="st4" d="M332.26,430.12c-.09.07-.18.13-.27.2-.07-.15-.15-.3-.22-.45.12-.02.26-.1.36-.06.08.03.1.2.14.31Z"/>
          <path class="st4" d="M325.39,192.4c-.15.07-.3.14-.45.21-.03-.2-.08-.39-.07-.58,0-.08.16-.15.24-.22.09.2.19.39.28.59Z"/>
          <path class="st4" d="M498.98,271.37c-.6.75-1.12,1.49-1.73,2.15-1.35,1.47-3.66,1.79-5.33.8-.92-.55-1.43-1.84-.73-2.66,1.59-1.87,1.07-3.95.81-5.95-.18-1.39-.81-2.73-1.32-4.06-.37-.97-.93-1.87-1.27-2.85-.64-1.81.22-3.14,2.19-3.13,2.46.02,4.92.21,7.36.5,1.65.2,2.72,1.29,3.47,2.81,1.67,3.4,1.9,6.98,1.53,10.65-.05.51-.25,1.01-.45,1.48-.6,1.42-1.65,1.8-3.14,1.13-.46-.21-.86-.54-1.39-.88ZM493.82,272.48c1.02-.66,1.62-.88,1.98-1.31,2.26-2.7,2.24-2.72,5.31-3.41.79-2.76-.03-5.31-1.26-7.78-.21-.42-.65-.92-1.08-1.03-1.97-.51-3.97-1.09-6.06-.45,3.1,9.51,2.36,7.74,1.11,13.98Z"/>
          <path class="st4" d="M466.31,445.95c1.28-3.1-.11-6.56,2.19-9.28.38.26.74.4.74.52-.11,2.06-.21,4.12-.43,6.17-.14,1.23-.87,2.11-2.5,2.6Z"/>
          <path class="st4" d="M462.61,261.5c1.28-.27,2.39-.88,3.66.14-1.72,1.54-3.75,1.11-5.65,1.37-.82-1.6.02-2.67.57-3.77,1.53.03.87,1.34,1.42,2.26Z"/>
          <path class="st4" d="M453.25,264.56c-.7-2.9,1.06-4.26,2.04-6.58.35,1,.66,1.45.62,1.86-.17,1.7-.95,3.11-2.66,4.71Z"/>
          <path class="st4" d="M464.46,413.36c-.47-2.5.72-4.33,1.51-6.51.7,2.13.44,3.18-1.51,6.51Z"/>
          <path class="st4" d="M423.49,377.99c-.66.96-1.26,1.97-2,2.87-.37.45-.97.7-1.43,1.02-.92-.86-.63-1.62-.18-2.26.89-1.27,2.12-1.89,3.72-1.52l-.1-.11Z"/>
          <path class="st4" d="M459.01,203.58c-1.38-1.25-2.74-2.48-4.6-4.16,1.21.05,1.93-.14,2.27.14,1.15.96,2.31,1.97,2.66,3.55.02.08-.14.2-.33.47Z"/>
          <path class="st4" d="M414.15,379.44c1.02,1.64.22,2.62-.49,3.58-.73.14-1.03-.18-1.01-.78.03-1.02.3-1.94,1.5-2.8Z"/>
          <path class="st4" d="M423.59,378.1c1.56-2.19,2.35-2.49,4.06-1.5-.34,1-1.29.53-1.92.77-.72.27-1.49.42-2.24.62,0,0,.1.11.1.11Z"/>
          <path class="st4" d="M441.34,374.88c-.9.67-1.17.99-1.51,1.09-.32.09-.93.07-1.01-.1-.32-.65.24-.87.73-.98.35-.08.73-.02,1.8-.02Z"/>
          <path class="st4" d="M449.35,457.13c-.12.84-.24,1.69-.43,3.12q-.23-1.94.53-3.03l-.1-.09Z"/>
          <path class="st4" d="M480.8,254.2c1.25.64.97,1.4.74,2.08-.1.29-.48.69-.72.68-.79-.03-.54-.62-.44-1.08.11-.48.24-.95.42-1.68Z"/>
          <path class="st4" d="M456.8,451.7c.03.09.09.19.08.28-.01.08-.1.15-.16.23-.03-.09-.09-.19-.07-.28.01-.08.1-.15.16-.23Z"/>
          <path class="st4" d="M449.45,457.22c-.03-.23-.08-.47-.07-.7,0-.11.11-.21.17-.31.11.16.34.38.3.47-.09.19-.32.3-.49.45,0,0,.1.09.1.09Z"/>
          <path class="st4" d="M463.25,419.6c-.09.09-.18.18-.27.26-.08-.22-.18-.44-.21-.66-.01-.07.16-.18.26-.26.08.21.15.43.23.66Z"/>
        </g>
      </g>
    </g>
    <path class="st7" d="M361.65,329.05c4.09.67,8.32,1.37,12.57-2.41.27-.24.32-.65.12-.95-.21-.3-.6-.4-.93-.24-3.65,1.87-7.37-.15-11.3-2.28-3.03-1.65-6.14-3.33-9.31-3.19,2.14-2.25,4.96-2.91,7.91-3.6,4.04-.94,8.21-1.92,10.69-7.04.16-.33.05-.72-.26-.92-.31-.2-.71-.14-.95.14-2.66,3.13-6.86,2.68-11.31,2.22-3.43-.36-6.95-.73-9.83.62,1.12-2.9,3.47-4.59,5.93-6.35,3.37-2.42,6.86-4.92,7.18-10.6.02-.36-.23-.69-.59-.75-.36-.07-.71.14-.82.49-1.26,3.9-5.31,5.1-9.6,6.38-3.31.98-6.7,1.99-8.84,4.33-.08-3.1,1.45-5.57,3.05-8.14,2.19-3.52,4.45-7.17,2.58-12.54-.12-.34-.48-.55-.83-.47-.36.08-.6.4-.57.77.33,4.09-2.95,6.75-6.43,9.56-2.68,2.17-5.43,4.4-6.51,7.38-1.26-2.84-.79-5.7-.3-8.68.67-4.09,1.37-8.32-2.42-12.57-.24-.27-.65-.32-.95-.12-.3.21-.4.6-.24.93,1.87,3.65-.15,7.37-2.28,11.3-1.65,3.03-3.33,6.14-3.19,9.31-2.25-2.14-2.91-4.96-3.6-7.91-.94-4.04-1.92-8.22-7.04-10.69-.33-.16-.72-.05-.92.26-.2.31-.14.71.14.95,3.13,2.66,2.68,6.86,2.22,11.31-.36,3.43-.73,6.95.62,9.83-2.9-1.12-4.59-3.47-6.35-5.93-2.42-3.37-4.92-6.86-10.6-7.18-.36-.02-.69.23-.75.59-.07.36.14.71.49.82,3.9,1.26,5.11,5.31,6.38,9.6.98,3.31,1.99,6.7,4.33,8.84-3.1.08-5.57-1.45-8.14-3.05-3.52-2.19-7.17-4.45-12.54-2.58-.34.12-.55.48-.47.83.08.36.4.6.77.57,4.09-.33,6.75,2.95,9.56,6.43,2.17,2.68,4.4,5.43,7.38,6.51-2.84,1.26-5.7.79-8.68.3-4.09-.67-8.32-1.37-12.57,2.41-.27.24-.32.65-.12.95.21.3.6.4.93.24,3.65-1.87,7.37.15,11.3,2.28,2.91,1.58,5.89,3.2,8.94,3.2.13,0,.25,0,.38-.01-2.14,2.25-4.96,2.91-7.91,3.6-4.04.94-8.21,1.92-10.69,7.04-.16.33-.05.72.26.92.12.08.26.12.4.12.21,0,.41-.09.55-.26,2.66-3.13,6.86-2.68,11.31-2.22,3.43.36,6.95.73,9.83-.62-1.12,2.9-3.47,4.59-5.93,6.35-3.37,2.42-6.86,4.92-7.18,10.6-.02.36.23.69.59.75.04,0,.09.01.13.01.31,0,.59-.2.69-.5,1.26-3.9,5.31-5.1,9.6-6.38,3.31-.98,6.7-1.99,8.84-4.33.08,3.1-1.45,5.57-3.05,8.14-2.19,3.52-4.45,7.17-2.58,12.54.1.3.38.49.68.49.05,0,.1,0,.15-.02.36-.08.6-.4.57-.77-.33-4.09,2.95-6.75,6.43-9.56,2.68-2.17,5.43-4.4,6.51-7.38,1.26,2.84.79,5.7.3,8.68-.67,4.09-1.37,8.32,2.42,12.57.14.16.34.24.54.24.14,0,.28-.04.41-.13.3-.21.4-.6.24-.93-1.87-3.65.15-7.37,2.28-11.3,1.65-3.03,3.33-6.14,3.19-9.31,2.25,2.14,2.91,4.96,3.6,7.91.94,4.04,1.92,8.22,7.04,10.69.1.05.21.07.31.07.24,0,.47-.12.61-.33.2-.31.14-.71-.14-.95-3.13-2.66-2.68-6.86-2.22-11.31.36-3.43.73-6.95-.62-9.83,2.9,1.12,4.59,3.47,6.35,5.93,2.42,3.37,4.92,6.86,10.6,7.18.01,0,.03,0,.04,0,.35,0,.65-.25.71-.59.07-.36-.14-.71-.49-.82-3.9-1.26-5.1-5.31-6.38-9.6-.98-3.31-1.99-6.7-4.33-8.84,3.1-.08,5.57,1.45,8.14,3.05,2.6,1.62,5.27,3.28,8.66,3.28,1.2,0,2.48-.21,3.88-.7.34-.12.55-.48.47-.83-.08-.36-.4-.6-.77-.57-4.09.33-6.75-2.95-9.56-6.43-2.17-2.68-4.4-5.43-7.38-6.51,2.84-1.26,5.7-.79,8.68-.3Z"/>
  </g>
</svg>