<?xml version="1.0" encoding="UTF-8"?>
<svg id="Camada_1" xmlns="http://www.w3.org/2000/svg" version="1.1" viewBox="0 0 275.93 71.98">
  <!-- Generator: Adobe Illustrator 30.0.0, SVG Export Plug-In . SVG Version: 2.1.1 Build 123)  -->
  <path d="M6.32,7.17h2.55l8.13,12.94,8.13-12.94h2.55v23.71h-2.52V11.67l-8.13,12.7h-.13l-8.13-12.67v19.17h-2.46V7.17Z"/>
  <path d="M35.59,7.17h16.13v2.44h-13.62v8.1h12.18v2.44h-12.18v8.3h13.77v2.44h-16.29V7.17Z"/>
  <path d="M64.23,9.64h-7.53v-2.47h17.57v2.47h-7.53v21.24h-2.52V9.64Z"/>
  <path d="M78.04,19.09v-.07c0-6.54,4.62-12.26,11.42-12.26s11.35,5.66,11.35,12.19v.07c0,6.54-4.62,12.26-11.41,12.26s-11.35-5.66-11.35-12.19ZM98.19,19.09v-.07c0-5.39-3.7-9.79-8.8-9.79s-8.74,4.34-8.74,9.72v.07c0,5.39,3.7,9.79,8.8,9.79s8.74-4.34,8.74-9.72Z"/>
  <path d="M107.72,7.17h7.75c7.01,0,11.86,5.11,11.86,11.79v.07c0,6.67-4.85,11.86-11.86,11.86h-7.75V7.17ZM110.24,9.64v18.76h5.23c5.64,0,9.25-4.06,9.25-9.31v-.07c0-5.25-3.6-9.38-9.25-9.38h-5.23Z"/>
  <path d="M133.26,19.09v-.07c0-6.54,4.62-12.26,11.41-12.26s11.35,5.66,11.35,12.19v.07c0,6.54-4.62,12.26-11.41,12.26s-11.35-5.66-11.35-12.19ZM153.41,19.09v-.07c0-5.39-3.7-9.79-8.8-9.79s-8.74,4.34-8.74,9.72v.07c0,5.39,3.7,9.79,8.8,9.79s8.74-4.34,8.74-9.72Z"/>
  <path d="M162.95,7.17h2.52v21.24h12.56v2.47h-15.08V7.17Z"/>
  <path d="M181.67,19.09v-.07c0-6.54,4.62-12.26,11.41-12.26s11.35,5.66,11.35,12.19v.07c0,6.54-4.62,12.26-11.41,12.26s-11.35-5.66-11.35-12.19ZM201.82,19.09v-.07c0-5.39-3.7-9.79-8.8-9.79s-8.74,4.34-8.74,9.72v.07c0,5.39,3.7,9.79,8.8,9.79s8.74-4.34,8.74-9.72Z"/>
  <path d="M210.36,19.09v-.07c0-6.5,4.5-12.26,11.19-12.26,3.76,0,6.09,1.15,8.32,3.15l-1.63,2.03c-1.72-1.59-3.63-2.71-6.79-2.71-4.94,0-8.48,4.44-8.48,9.72v.07c0,5.66,3.41,9.86,8.83,9.86,2.55,0,4.91-1.05,6.44-2.37v-5.89h-6.79v-2.4h9.21v9.45c-2.07,1.96-5.2,3.62-8.96,3.62-7.01,0-11.35-5.42-11.35-12.19Z"/>
  <path d="M238.17,7.17h2.52v23.71h-2.52V7.17Z"/>
  <path d="M257.08,7h2.36l10.17,23.88h-2.71l-2.61-6.27h-12.15l-2.65,6.27h-2.58l10.17-23.88ZM263.3,22.21l-5.07-12.09-5.1,12.09h10.17Z"/>
  <path d="M39.07,41.04h17.95v5.55h-11.83v3.62h10.71v5.18h-10.71v3.76h11.99v5.59h-18.11v-23.71Z"/>
  <path d="M82.66,41.04l-7.33,11.55,7.65,12.16h-7.11l-4.27-7.18-4.3,7.18h-6.95l7.65-12.06-7.33-11.65h7.11l3.92,6.67,4.02-6.67h6.95Z"/>
  <path d="M84.48,52.96v-.07c0-6.91,4.97-12.33,11.73-12.33,4.56,0,7.49,2.03,9.47,4.91l-4.66,3.83c-1.28-1.66-2.74-2.78-4.88-2.78-3.12,0-5.32,2.85-5.32,6.3v.07c0,3.56,2.2,6.33,5.32,6.33,2.33,0,3.7-1.15,5.04-2.88l4.66,3.52c-2.1,3.08-4.94,5.35-9.85,5.35-6.38,0-11.51-5.18-11.51-12.26Z"/>
  <path d="M110.11,41.04h6.19v17.95h10.81v5.76h-17v-23.71Z"/>
  <path d="M130.49,54.35v-13.31h6.25v13.18c0,3.42,1.63,5.05,4.11,5.05s4.14-1.56,4.14-4.88v-13.35h6.25v13.14c0,7.62-4.11,11.01-10.46,11.01s-10.3-3.42-10.3-10.84Z"/>
  <path d="M154.82,61.23l3.44-4.37c2.23,1.86,4.66,2.85,7.24,2.85,1.69,0,2.58-.61,2.58-1.63v-.07c0-1.02-.73-1.52-3.79-2.3-4.75-1.15-8.42-2.57-8.42-7.42v-.07c0-4.4,3.28-7.59,8.64-7.59,3.79,0,6.76,1.08,9.18,3.15l-3.09,4.64c-2.04-1.56-4.27-2.34-6.25-2.34-1.5,0-2.23.64-2.23,1.52v.07c0,1.08.77,1.56,3.89,2.3,5.1,1.19,8.29,2.95,8.29,7.38v.07c0,4.84-3.6,7.72-9.02,7.72-3.95,0-7.68-1.32-10.46-3.93Z"/>
  <path d="M179.05,41.04h6.19v23.71h-6.19v-23.71Z"/>
  <path d="M189.16,41.04h6.89l5.07,15,5.1-15h6.76l-9.06,23.88h-5.74l-9.02-23.88Z"/>
  <path d="M221.27,40.87h5.96l9.5,23.88h-6.63l-1.59-4.27h-8.64l-1.59,4.27h-6.47l9.47-23.88ZM226.69,55.37l-2.49-6.71-2.52,6.71h5.01Z"/>
</svg>