<?xml version="1.0" encoding="UTF-8"?>
<svg id="Camada_1" xmlns="http://www.w3.org/2000/svg" version="1.1" viewBox="0 0 55.09 54.38">
  <!-- Generator: Adobe Illustrator 30.0.0, SVG Export Plug-In . SVG Version: 2.1.1 Build 123)  -->
  <defs>
    <style>
      .st0 {
        fill: #f7faff;
      }

      .st1 {
        fill: #05a8e1;
      }
    </style>
  </defs>
  <path class="st1" d="M35.06,43.4l-.16-.06c-1.96-.71-4.16-.14-5.52,1.45l-.11.13c-2.38,2.77-6.81,2.16-8.36-1.15l-.07-.15c-.88-1.89-2.85-3.04-4.93-2.88h-.17c-3.64.29-6.34-3.28-5.1-6.71l.06-.16c.71-1.96.14-4.16-1.45-5.52l-.13-.11c-2.77-2.38-2.16-6.81,1.15-8.36l.15-.07c1.89-.88,3.04-2.85,2.88-4.93v-.17c-.29-3.64,3.28-6.34,6.71-5.1l.16.06c1.96.71,4.16.14,5.52-1.45l.11-.13c2.38-2.77,6.81-2.16,8.36,1.15l.07.15c.88,1.89,2.85,3.04,4.93,2.88h.17c3.64-.29,6.34,3.28,5.1,6.71l-.06.16c-.71,1.96-.14,4.16,1.45,5.52l.13.11c2.77,2.38,2.16,6.81-1.15,8.36l-.15.07c-1.89.88-3.04,2.85-2.88,4.93v.17c.29,3.64-3.28,6.34-6.71,5.1Z"/>
  <path class="st0" d="M35.7,21.75c.01.08.01.27,0,.35-.04.29-.22.57-.41.78-3.13,3.09-6.19,6.26-9.35,9.31-.51.3-1.09.24-1.54-.13l-4.72-4.72c-.92-1.2.47-2.7,1.74-1.9l3.84,3.81,8.44-8.4c.78-.53,1.88-.01,2.01.91Z"/>
</svg>